<?xml version="1.0" standalone="no"?>
<!DOCTYPE svg PUBLIC "-//W3C//DTD SVG 20010904//EN"
 "http://www.w3.org/TR/2001/REC-SVG-20010904/DTD/svg10.dtd">
<svg version="1.0" xmlns="http://www.w3.org/2000/svg"
 width="2342.000000pt" height="1824.000000pt" viewBox="0 0 2342.000000 1824.000000"
 preserveAspectRatio="xMidYMid meet">

<g transform="translate(0.000000,1824.000000) scale(0.100000,-0.100000)"
fill="#000000" stroke="none">
<path d="M13601 16739 c-238 -28 -601 -175 -1106 -448 -347 -188 -926 -523
-1005 -581 -153 -114 -275 -258 -320 -378 -44 -115 -13 -254 74 -328 86 -74
181 -99 339 -91 79 4 107 2 107 -6 0 -7 5 -89 10 -184 11 -192 29 -296 63
-363 13 -25 38 -74 57 -110 30 -57 34 -73 33 -135 -1 -38 -19 -158 -39 -265
-46 -239 -52 -402 -19 -459 33 -57 67 -75 147 -79 39 -3 104 1 144 8 91 16 94
14 146 -99 23 -50 57 -105 83 -132 26 -28 45 -58 45 -71 1 -36 34 -100 70
-133 40 -38 64 -84 85 -165 46 -178 139 -258 313 -268 45 -2 82 -7 81 -11 0
-3 -62 -43 -137 -87 -75 -45 -321 -192 -545 -328 -671 -404 -804 -470 -1212
-601 -132 -43 -252 -84 -267 -92 -16 -7 -28 -11 -28 -7 0 3 14 34 32 68 43 82
164 201 247 244 61 31 69 32 181 32 244 0 338 44 403 188 17 39 22 71 25 187
2 94 9 154 19 182 11 30 14 58 9 92 -5 40 -2 58 15 91 20 38 21 45 9 100 -7
32 -10 66 -7 74 3 8 37 34 75 59 85 55 115 95 115 151 0 56 -19 91 -123 231
-50 66 -99 144 -110 173 -24 64 -26 161 -4 252 51 217 -26 501 -228 842 l-40
68 17 65 c36 132 -12 266 -143 394 -106 105 -219 160 -438 216 -117 29 -280 9
-336 -42 -19 -17 -20 -17 -30 2 -21 39 -106 113 -159 138 -148 70 -407 96
-619 62 -292 -47 -564 -190 -790 -415 -114 -113 -194 -224 -259 -360 -48 -98
-111 -288 -136 -406 l-18 -80 -96 -29 c-445 -133 -772 -495 -888 -985 -34
-145 -43 -405 -19 -570 48 -332 173 -615 379 -859 309 -364 710 -466 1037
-263 137 85 321 302 368 434 9 27 19 48 22 48 6 0 -14 -586 -25 -713 -22 -283
-41 -403 -90 -577 -131 -466 -203 -1268 -151 -1700 50 -417 220 -773 631
-1320 39 -52 75 -101 79 -108 4 -7 -2 -37 -13 -68 -25 -66 -28 -178 -6 -249
l14 -49 -41 -35 c-22 -19 -47 -50 -54 -68 -20 -46 -18 -132 4 -174 18 -35 18
-37 0 -70 -35 -66 -17 -172 40 -232 24 -25 26 -34 27 -115 0 -98 19 -151 75
-215 l33 -38 -104 -102 c-235 -233 -500 -448 -1200 -974 -587 -441 -1023 -771
-1129 -857 -368 -294 -750 -708 -977 -1059 -135 -208 -287 -507 -281 -552 2
-11 15 -24 30 -29 24 -8 33 -4 86 45 122 113 289 178 480 186 196 9 348 -17
752 -127 529 -144 762 -192 1017 -210 455 -32 863 100 1044 339 104 138 158
292 190 546 11 88 27 187 35 220 33 137 121 255 189 255 88 0 130 -147 160
-555 18 -245 35 -339 73 -415 49 -97 131 -126 217 -77 85 48 185 209 253 407
76 223 111 410 137 740 27 348 44 458 95 612 81 242 243 468 382 533 39 18 70
25 118 25 79 0 142 -27 282 -122 52 -36 120 -75 152 -87 153 -57 307 7 383
160 l31 62 16 -32 c40 -76 119 -88 318 -47 239 50 720 181 1124 307 104 32
193 59 196 59 4 0 40 -49 81 -108 41 -59 102 -142 135 -184 l60 -75 -80 -27
c-207 -68 -402 -189 -558 -345 -120 -121 -193 -222 -255 -354 -55 -116 -74
-188 -81 -302 -10 -161 37 -306 137 -418 144 -162 350 -219 709 -197 224 14
414 12 492 -5 283 -60 486 -257 713 -691 43 -82 85 -155 93 -162 23 -18 48
-15 78 11 l27 23 -71 215 c-39 118 -119 372 -177 564 -254 836 -317 966 -699
1444 -80 100 -146 183 -146 184 0 1 44 -1 98 -5 118 -8 192 -23 393 -82 85
-24 183 -50 219 -56 89 -16 214 -17 277 -1 75 18 163 78 201 137 77 115 79
222 12 429 -38 115 -43 142 -44 230 -1 115 15 157 80 215 62 54 95 63 259 70
83 4 162 12 177 18 40 16 107 80 128 121 10 20 28 68 40 108 19 62 27 75 62
98 22 15 60 45 84 67 l44 41 0 -34 c0 -52 44 -322 89 -544 40 -197 161 -696
299 -1236 105 -406 119 -508 86 -618 -21 -71 -72 -120 -209 -200 -236 -139
-365 -244 -405 -332 -51 -112 -9 -214 114 -280 38 -20 132 -58 210 -84 324
-107 449 -206 487 -387 6 -29 18 -61 27 -70 20 -24 55 -23 78 3 18 20 19 40
18 358 0 357 -7 441 -60 739 -48 277 -128 590 -308 1219 -190 663 -295 1125
-336 1485 l-11 97 36 77 c20 42 82 215 137 383 55 168 202 617 328 996 442
1336 573 1766 680 2235 69 305 84 414 84 615 1 245 -23 345 -140 576 -138 271
-284 435 -559 621 l-127 87 29 14 c15 8 42 18 59 21 28 6 33 3 61 -43 41 -65
73 -87 105 -70 13 6 27 18 31 26 7 11 18 5 53 -26 36 -34 51 -41 84 -41 72 0
126 46 144 123 l6 27 38 -24 c20 -13 69 -34 107 -47 81 -26 132 -57 164 -99
61 -84 107 24 75 179 -9 41 -24 92 -35 113 -19 37 -19 38 1 58 11 11 20 25 20
30 0 26 -31 78 -68 114 l-41 39 27 49 c26 46 29 49 61 44 52 -8 77 -31 110
-98 17 -36 52 -84 80 -112 41 -41 54 -48 75 -42 42 10 34 45 -20 90 -29 25
-55 58 -69 91 -13 28 -35 65 -49 82 -24 29 -39 37 -109 63 l-28 10 21 29 c20
30 21 30 63 15 58 -20 138 -83 159 -124 10 -19 20 -52 23 -74 5 -31 22 -55 80
-116 65 -68 124 -155 112 -166 -8 -9 -148 16 -198 35 -28 11 -69 32 -91 47
-31 22 -43 25 -56 17 -28 -17 -19 -45 25 -79 59 -45 140 -73 245 -84 145 -15
182 1 159 68 -24 66 -82 152 -147 216 -49 48 -64 70 -64 92 -1 78 -85 175
-193 224 l-62 28 58 25 c69 31 82 56 72 140 -3 32 -8 64 -11 72 -4 10 0 12 15
8 38 -10 45 -29 29 -81 -22 -68 -9 -93 100 -182 50 -41 114 -101 142 -132 29
-32 61 -58 71 -58 26 0 56 32 67 73 5 18 26 55 47 82 31 42 36 55 33 91 l-3
43 61 -6 c87 -8 154 16 215 77 86 86 74 160 -38 236 -34 23 -67 44 -74 46 -8
3 0 28 26 80 20 42 40 97 42 121 5 39 1 52 -25 89 -17 24 -34 61 -38 83 -9 54
-30 92 -57 106 -12 6 -23 13 -25 14 -2 1 11 16 27 33 25 24 30 36 25 59 -6 29
-5 30 43 31 68 3 108 19 138 53 36 44 33 80 -10 118 -20 17 -40 31 -46 31 -17
0 -32 48 -25 84 4 19 24 57 45 84 47 59 71 104 71 132 0 34 -28 79 -60 95 -25
13 -30 21 -30 54 0 48 -24 70 -86 79 -44 7 -48 10 -61 46 -7 22 -20 47 -29 57
-14 15 -12 19 16 47 38 38 41 95 8 137 -26 33 -111 75 -154 75 -74 0 -95 11
-116 56 -10 24 -28 50 -41 59 -26 18 -84 19 -116 1 -22 -12 -28 -11 -51 6 -19
14 -34 17 -54 12 -32 -8 -146 -109 -146 -129 0 -22 -16 -26 -46 -11 -85 42
-172 16 -209 -61 -16 -35 -26 -44 -55 -49 -76 -15 -175 -82 -225 -154 -15 -22
-32 -40 -36 -40 -5 0 -9 18 -9 39 0 22 -4 43 -10 46 -18 11 -11 35 13 44 30
12 85 74 93 106 3 14 3 40 0 59 -6 29 -1 40 29 76 58 69 68 97 72 190 3 69 -1
97 -19 150 -19 55 -27 65 -46 65 -19 0 -32 -17 -75 -99 -29 -55 -57 -101 -63
-103 -7 -2 -13 24 -17 74 -6 91 -37 181 -97 282 -79 133 -110 134 -122 5 -10
-105 -28 -149 -93 -224 -80 -92 -87 -168 -24 -255 33 -45 33 -47 14 -61 -10
-8 -22 -14 -27 -14 -4 0 -36 29 -71 64 -63 65 -105 86 -170 86 -40 0 -88 -23
-121 -59 -20 -21 -39 -31 -58 -31 -36 0 -89 -22 -107 -44 -7 -9 -17 -31 -20
-48 -6 -28 -12 -34 -42 -39 -51 -8 -124 -53 -147 -91 -51 -82 -36 -125 63
-182 55 -33 85 -60 85 -78 0 -2 -24 -3 -54 -4 -36 0 -66 -8 -91 -23 -21 -12
-41 -18 -45 -14 -4 4 -20 46 -36 93 -37 107 -90 189 -151 234 -136 100 -322
166 -340 120 -12 -32 94 -370 132 -420 l26 -34 -103 50 c-128 62 -229 90 -252
71 -28 -23 -18 -42 63 -120 68 -66 82 -85 106 -151 42 -110 91 -158 206 -199
l27 -10 -35 -70 c-22 -44 -43 -73 -56 -77 -12 -4 -34 -20 -50 -37 l-28 -30
-89 13 c-105 15 -172 10 -254 -19 -116 -41 -259 -154 -336 -266 l-33 -48 -32
64 c-88 174 -155 475 -155 694 0 131 14 204 89 471 64 230 85 370 85 574 0
142 -4 194 -22 277 -42 196 -121 379 -236 548 -71 105 -224 263 -314 324 -80
54 -196 110 -245 118 -32 5 -40 12 -53 42 -37 89 -150 162 -280 181 -77 11
-70 11 -173 -1z m226 -115 c58 -16 115 -60 140 -107 15 -30 15 -31 -20 -61
-55 -48 -85 -126 -72 -186 9 -41 30 -60 69 -60 49 0 77 38 107 145 16 59 17
60 50 57 43 -4 144 -59 238 -130 171 -130 345 -382 421 -610 52 -158 65 -241
64 -427 0 -182 -17 -301 -69 -495 -77 -287 -96 -372 -103 -456 -7 -91 -1 -253
13 -327 l8 -39 -59 7 c-341 42 -519 217 -474 465 16 90 52 168 169 370 154
267 195 392 172 533 -15 93 -51 165 -117 237 -133 142 -317 203 -521 171 -43
-7 -172 -44 -288 -82 -115 -38 -248 -76 -295 -85 -197 -37 -329 22 -371 164
-17 59 0 139 56 261 24 52 41 100 38 108 -7 19 -39 34 -56 27 -19 -7 -94 -171
-114 -248 -31 -121 3 -243 88 -320 59 -53 119 -76 220 -83 100 -7 195 12 439
92 339 111 449 118 606 40 129 -63 209 -163 234 -292 23 -114 -23 -247 -172
-498 -114 -192 -178 -333 -178 -394 0 -20 -2 -23 -10 -11 -5 8 -10 31 -10 50
-1 96 -66 237 -142 305 -138 124 -362 109 -489 -33 -35 -39 -99 -157 -121
-222 -3 -9 -30 -23 -60 -33 -30 -9 -83 -34 -118 -56 l-65 -39 -30 57 c-17 32
-65 92 -115 142 -102 103 -163 136 -335 179 -69 17 -139 42 -164 58 -60 37
-92 99 -99 193 -11 158 38 284 191 492 48 65 87 125 87 132 0 7 -8 23 -18 35
-33 41 -58 21 -172 -131 -165 -222 -327 -354 -542 -443 -342 -141 -649 -40
-582 193 33 117 170 275 334 387 73 50 375 224 810 467 557 311 927 470 1190
512 92 14 156 11 237 -11z m3354 -1453 c17 -52 21 -80 17 -156 -4 -99 -17
-131 -63 -161 -37 -24 -39 -13 -8 41 50 90 31 242 -29 233 -33 -5 -46 -33 -25
-56 10 -11 17 -35 17 -58 0 -42 -30 -116 -51 -129 -16 -10 -66 48 -78 90 -11
40 1 68 53 126 50 56 80 115 91 179 l7 44 24 -44 c13 -25 33 -74 45 -109z
m-4982 -47 c-17 -91 -6 -210 26 -281 50 -112 113 -154 300 -198 141 -34 206
-66 284 -139 63 -61 134 -166 147 -219 8 -34 44 -60 70 -50 10 4 47 27 82 51
68 48 132 76 199 87 51 8 55 13 77 95 31 114 120 223 204 248 166 50 311 -65
343 -272 26 -163 -52 -398 -162 -490 -78 -66 -172 -84 -235 -45 -26 16 -38 18
-53 10 -36 -20 -34 -46 8 -116 50 -83 96 -208 128 -350 60 -262 2 -464 -175
-608 -86 -71 -303 -217 -384 -259 -60 -31 -68 -33 -173 -33 -94 0 -116 3 -151
22 -62 33 -89 72 -124 180 -33 104 -56 147 -107 204 -36 40 -53 77 -53 117 0
36 -23 67 -70 97 -26 17 -42 36 -50 62 -20 63 -69 147 -98 168 -30 22 -86 25
-208 11 -92 -11 -119 -4 -140 36 -22 42 -16 121 31 393 27 158 36 231 33 296
-3 82 -6 91 -55 187 -29 55 -60 127 -68 159 -14 51 -35 309 -35 418 l0 40 73
29 c91 36 212 107 286 167 31 25 57 45 58 44 2 -1 -2 -28 -8 -61z m-2159 -30
c146 -27 244 -78 291 -151 23 -34 24 -41 12 -73 -28 -80 -4 -189 61 -270 32
-40 149 -130 169 -130 17 0 47 32 47 50 0 9 -34 45 -76 79 -76 63 -114 119
-91 133 7 4 13 42 16 92 l3 85 47 23 c76 37 167 32 327 -20 199 -65 326 -157
390 -284 54 -106 40 -170 -49 -214 -189 -95 -366 -265 -446 -428 -67 -137 -75
-180 -76 -441 0 -134 -6 -247 -12 -270 -24 -88 -25 -98 -9 -92 19 8 19 8 1
-72 -32 -133 -131 -267 -265 -356 -68 -45 -151 -87 -158 -80 -3 2 45 71 105
152 126 169 203 285 203 305 0 21 -21 38 -47 38 -17 0 -35 -19 -75 -77 -87
-131 -319 -435 -369 -485 -48 -48 -151 -106 -249 -140 -49 -17 -82 -19 -300
-19 -349 2 -466 21 -597 97 -83 47 -183 158 -231 254 -42 86 -70 186 -59 214
12 31 69 56 127 56 75 -1 137 -28 308 -137 180 -115 242 -138 377 -138 110 0
144 11 178 57 18 23 18 30 7 57 -41 99 -252 196 -555 255 -153 29 -200 45
-259 85 -66 46 -112 105 -167 216 -71 144 -92 231 -92 390 -1 127 0 133 42
260 86 258 173 419 300 558 185 199 468 362 721 416 121 25 332 28 450 5z
m7381 -139 c-9 -38 -24 -67 -52 -99 -47 -53 -59 -89 -52 -146 7 -47 -11 -71
-73 -105 -34 -18 -37 -18 -49 -2 -16 23 -38 22 -60 -3 -27 -30 -47 -26 -39 8
20 79 17 75 85 92 51 12 65 19 67 36 5 36 -19 46 -68 29 -76 -27 -100 -12 -31
20 48 21 105 80 118 120 5 17 28 43 50 60 23 17 54 53 69 80 l28 50 10 -43 c6
-29 5 -60 -3 -97z m-688 -79 c18 -7 54 -37 81 -65 27 -29 60 -57 74 -62 28
-11 72 -4 113 17 51 26 61 -18 33 -131 -17 -68 -27 -75 -37 -26 -10 47 -63
100 -107 107 -25 4 -48 17 -64 35 -41 46 -82 62 -144 57 -47 -4 -60 -10 -84
-37 -33 -37 -36 -76 -8 -106 17 -18 18 -24 7 -39 -13 -18 -16 -17 -63 8 -27
14 -55 26 -62 26 -13 0 -42 58 -42 85 0 31 38 55 88 55 42 0 50 4 75 36 43 53
82 65 140 40z m-6296 -113 c-3 -10 -5 -4 -5 12 0 17 2 24 5 18 2 -7 2 -21 0
-30z m7615 12 c11 -14 30 -25 43 -25 15 0 31 10 41 25 27 41 59 33 83 -20 23
-52 52 -68 155 -83 74 -12 119 -36 124 -69 7 -45 -47 -57 -132 -28 -46 16 -56
23 -56 42 0 13 -5 23 -12 23 -7 0 -27 14 -44 31 -56 54 -174 70 -183 24 -4
-25 37 -55 69 -49 39 7 90 -29 90 -65 0 -57 -10 -65 -36 -28 -24 36 -77 67
-113 67 -12 0 -47 -9 -78 -20 -32 -11 -58 -20 -59 -20 -1 0 -7 13 -12 29 -14
41 10 116 50 158 38 40 44 40 70 8z m-1309 -46 c30 -16 37 -28 37 -65 0 -43
-8 -47 -42 -19 -16 14 -42 25 -58 25 -21 0 -31 6 -36 22 -12 40 49 63 99 37z
m-935 -50 c139 -74 177 -119 238 -278 20 -53 43 -103 51 -112 19 -22 17 -31
-19 -100 l-33 -62 -16 39 c-10 21 -22 81 -28 133 -15 118 -65 278 -92 286 -26
9 -59 -12 -59 -37 0 -12 9 -31 19 -42 22 -24 57 -133 67 -206 l7 -51 -37 22
c-67 39 -111 118 -167 301 -22 71 -43 137 -46 145 -8 21 24 11 115 -38z m576
-21 c8 -13 24 -51 35 -86 35 -114 98 -172 186 -172 113 1 225 101 225 200 0
54 63 61 90 10 13 -24 13 -76 -1 -101 -6 -11 -54 -49 -108 -84 -110 -70 -162
-118 -190 -172 l-18 -37 -17 32 c-10 20 -32 39 -54 49 -74 31 -88 42 -119 95
-44 72 -77 104 -133 133 -26 13 -50 31 -54 40 -12 32 33 79 99 103 42 15 43
15 59 -10z m1437 -4 c13 -12 16 -21 9 -28 -5 -5 -10 -26 -10 -46 0 -45 42
-107 101 -150 44 -31 185 -90 218 -90 11 0 26 -3 35 -6 29 -11 -24 -40 -77
-42 -59 -2 -90 -18 -146 -76 l-44 -45 -17 32 c-11 20 -36 41 -67 57 -50 25
-50 25 -56 83 -4 44 -14 72 -40 110 -76 115 -85 160 -41 204 22 22 32 25 70
20 25 -2 54 -13 65 -23z m-1109 -83 c-1 -13 3 -29 8 -36 14 -16 -30 -49 -77
-60 -54 -11 -91 3 -124 48 -16 22 -28 42 -26 43 2 2 43 -11 93 -28 59 -21 96
-29 109 -24 19 7 18 9 -8 32 -33 28 -30 57 5 52 18 -2 22 -9 20 -27z m907 -63
c19 -31 20 -38 7 -38 -62 0 -96 -56 -96 -158 0 -101 44 -184 149 -285 90 -85
103 -116 79 -189 -10 -30 -21 -44 -38 -48 -13 -3 -28 -13 -34 -22 -16 -25 6
-114 54 -217 43 -95 49 -138 24 -180 -23 -39 -46 -50 -134 -66 -57 -10 -90
-22 -121 -44 -52 -38 -95 -41 -110 -7 -13 29 -48 46 -93 46 -91 0 -114 90 -48
189 8 11 19 11 66 0 72 -16 111 -2 103 37 -4 23 -3 24 16 11 34 -22 30 -33
-17 -61 -25 -15 -51 -36 -57 -48 -16 -30 16 -69 77 -91 98 -35 193 2 239 93
38 75 30 120 -21 120 -23 0 -34 -17 -34 -53 0 -63 -72 -114 -141 -100 -37 7
-37 17 1 33 70 29 77 82 19 145 -45 48 -46 75 -5 75 13 0 38 -11 54 -25 34
-29 54 -31 72 -10 32 39 -50 105 -128 105 -70 0 -126 -72 -103 -132 10 -26 10
-26 -42 -22 -43 3 -57 9 -79 34 -50 55 -30 129 39 146 56 13 83 35 108 84 24
48 27 50 67 50 23 0 79 -5 125 -12 72 -10 85 -10 98 3 24 24 8 47 -48 65 -78
25 -122 50 -151 84 -36 43 -41 73 -26 149 26 130 9 193 -59 228 -20 10 -38 19
-40 21 -7 3 59 70 93 95 35 25 99 48 107 39 3 -4 16 -24 28 -44z m529 -12 c36
-55 37 -56 20 -79 -12 -16 -17 -16 -67 3 -72 28 -125 55 -139 73 -10 12 -3 18
40 35 80 32 107 26 146 -32z m-1001 2 c22 -21 31 -40 16 -36 -5 1 -26 -1 -49
-5 -56 -9 -119 -57 -134 -101 -10 -32 -13 -34 -36 -26 -14 6 -41 10 -61 10
-69 0 -147 -114 -128 -188 6 -23 5 -24 -12 -12 -43 33 -63 54 -63 67 0 24 93
107 159 142 71 38 137 92 146 122 4 12 16 19 33 20 15 0 43 6 62 13 19 8 37
14 39 15 3 0 15 -9 28 -21z m1178 13 c3 -5 19 -12 35 -16 17 -4 30 -10 30 -15
0 -10 -103 -50 -130 -50 -18 0 -16 5 12 45 32 46 42 52 53 36z m98 -131 l-52
-50 -80 0 c-67 0 -79 3 -75 15 3 8 22 17 42 20 21 3 71 19 112 34 41 16 82 29
90 30 8 0 -8 -22 -37 -49z m-743 -63 c6 -77 24 -102 79 -111 38 -6 62 -25 74
-59 6 -17 -40 -117 -54 -117 -16 0 -129 133 -152 181 -32 62 -36 141 -11 177
14 21 18 22 37 9 18 -12 23 -27 27 -80z m-452 57 c20 -9 65 -20 100 -24 87
-11 106 -30 99 -95 -16 -138 -24 -164 -42 -136 -3 5 -18 12 -35 16 -18 4 -32
15 -36 28 -12 43 -58 99 -103 125 -37 22 -58 27 -108 26 -35 0 -63 2 -63 6 0
11 44 48 70 59 37 15 76 13 118 -5z m-1553 -55 c55 -27 110 -57 123 -67 l24
-18 -21 -40 c-11 -21 -22 -58 -23 -81 -2 -24 -7 -43 -11 -43 -5 0 -23 10 -39
22 -21 14 -45 52 -75 117 -25 53 -61 113 -81 134 -44 45 -36 44 103 -24z
m2860 -63 c19 -20 63 -45 104 -61 54 -20 71 -31 71 -46 0 -10 -20 -48 -45 -85
-25 -36 -45 -72 -45 -80 0 -8 -4 -14 -9 -14 -5 0 -17 33 -26 72 -24 107 -41
135 -94 163 -25 13 -52 33 -59 45 -11 19 -9 25 25 64 l38 44 3 -34 c2 -23 14
-46 37 -68z m-4444 -125 c95 -179 243 -259 549 -296 l45 -6 38 -125 c20 -69
62 -178 93 -243 l56 -118 -89 -154 c-101 -174 -59 -134 -464 -449 -95 -74
-274 -215 -397 -313 l-224 -177 -54 86 c-70 112 -139 198 -215 269 -34 31 -58
60 -53 64 5 4 42 31 82 60 206 150 291 328 279 580 -8 159 -37 269 -123 467
-3 7 12 13 40 16 113 13 236 117 304 258 42 86 71 186 73 250 0 24 5 13 14
-36 7 -41 27 -99 46 -133z m-2742 -3 c116 -223 151 -321 172 -473 9 -70 8 -93
-12 -185 -43 -210 -18 -309 124 -500 132 -176 133 -185 37 -247 -119 -78 -136
-112 -109 -219 11 -41 10 -46 -15 -78 -29 -39 -31 -55 -14 -102 9 -26 9 -41
-2 -71 -7 -21 -15 -106 -19 -188 -6 -138 -8 -154 -33 -195 -16 -28 -43 -55
-70 -70 -38 -22 -54 -25 -143 -23 -173 2 -489 66 -611 124 -125 59 -210 168
-239 303 -30 145 40 266 320 556 130 134 159 170 193 238 78 157 81 285 13
511 -23 74 -44 162 -47 195 -20 198 110 447 305 585 53 38 41 51 150 -161z
m5012 171 c14 -22 11 -28 -23 -42 -46 -19 -63 -43 -63 -88 0 -59 71 -127 121
-115 36 9 29 36 -18 77 -38 33 -41 39 -28 53 17 17 145 47 167 39 20 -8 16
-16 -22 -53 -19 -19 -35 -39 -35 -44 0 -6 -12 -34 -26 -63 -34 -66 -28 -83 30
-83 50 0 56 8 56 75 0 37 5 47 35 74 20 17 39 31 43 31 4 0 34 -24 66 -53 l60
-54 -41 -43 -41 -44 -40 13 c-57 19 -86 9 -114 -42 -26 -46 -34 -48 -118 -28
-25 6 -67 14 -95 17 l-50 7 83 19 c85 20 107 37 81 63 -12 12 -26 12 -89 -1
-41 -7 -83 -14 -92 -14 -26 0 -88 67 -88 95 0 37 88 205 113 215 31 14 117 6
128 -11z m2269 1 c0 -13 -11 -13 -30 0 -12 8 -11 10 8 10 12 0 22 -4 22 -10z
m-1669 -46 c35 -11 72 -14 107 -11 84 9 134 -19 173 -95 24 -48 24 -89 -1
-136 -21 -39 -44 -72 -52 -72 -2 0 -4 24 -5 54 -2 90 -44 146 -110 146 -43 0
-82 -35 -89 -81 -8 -49 25 -124 65 -147 17 -9 31 -20 31 -23 0 -4 -28 -12 -62
-19 -35 -6 -75 -21 -90 -31 -27 -20 -28 -20 -68 1 -22 11 -40 22 -40 24 0 2
16 30 35 62 19 32 35 70 35 84 0 15 -16 49 -36 76 -30 42 -35 55 -31 92 5 46
38 92 67 92 9 0 41 -7 71 -16z m1398 -29 c11 -19 45 -51 75 -70 66 -42 71 -51
87 -139 9 -54 18 -73 44 -99 17 -18 35 -45 39 -60 4 -17 24 -40 51 -59 25 -18
45 -38 45 -45 0 -20 -62 -43 -115 -43 -45 0 -103 22 -117 44 -11 16 -10 64 1
70 5 3 8 -9 7 -27 -1 -30 1 -32 36 -35 46 -4 62 19 48 68 -18 63 -76 94 -99
53 -9 -17 -11 -17 -25 2 -9 11 -13 29 -10 40 3 11 8 54 10 95 5 64 2 80 -15
108 -27 42 -75 70 -134 78 -50 7 -62 16 -53 39 4 10 21 15 55 15 45 0 51 -3
70 -35z m-206 -12 c2 -10 8 -25 11 -34 5 -12 -9 -26 -55 -55 -34 -21 -75 -52
-92 -67 -26 -25 -29 -33 -24 -73 3 -30 13 -55 30 -72 22 -23 26 -36 26 -87 0
-33 5 -76 11 -95 13 -44 13 -60 0 -60 -5 0 -10 14 -10 31 0 90 -38 152 -133
216 -80 55 -85 113 -13 162 22 16 63 52 89 80 62 64 148 93 160 54z m-2201
-51 c10 -8 20 -24 24 -36 4 -11 22 -42 40 -69 19 -26 34 -52 34 -58 0 -13 -90
-5 -153 14 -60 17 -74 75 -37 147 19 38 21 39 48 28 15 -7 35 -18 44 -26z
m2388 -44 c56 -35 44 -159 -21 -207 -32 -24 -37 -52 -14 -71 20 -17 19 -43 -4
-64 -22 -20 -113 -56 -141 -56 -24 0 -41 36 -43 92 -1 32 5 45 41 81 50 51 54
82 15 127 l-27 32 48 45 c44 42 50 45 87 39 22 -4 48 -12 59 -18z m-1233 -79
c14 -27 17 -79 5 -79 -9 0 -44 36 -56 57 -9 16 12 55 27 50 7 -2 18 -14 24
-28z m-6235 -26 c-11 -21 -30 -71 -42 -111 -19 -64 -22 -89 -17 -185 4 -93 12
-136 47 -252 38 -130 41 -147 38 -236 -3 -88 -7 -103 -42 -173 -31 -64 -62
-103 -179 -224 -186 -193 -224 -239 -291 -350 -80 -133 -91 -146 -190 -224
-130 -105 -210 -221 -238 -348 l-12 -55 -8 50 c-19 113 12 303 71 430 49 105
111 168 221 224 190 98 352 226 420 330 42 67 87 195 106 304 14 78 15 111 5
217 -28 314 -7 450 96 613 31 49 41 42 15 -10z m5938 17 c9 -17 6 -30 -17 -70
-28 -49 -28 -50 -44 -28 -15 20 -15 24 14 69 16 27 31 49 33 49 2 0 8 -9 14
-20z m549 -24 c19 -38 20 -47 9 -82 -12 -35 -21 -43 -94 -79 -111 -54 -145
-83 -183 -154 -17 -33 -41 -67 -52 -75 -19 -13 -24 -11 -60 25 -21 21 -46 39
-54 39 -22 0 -19 9 20 62 32 44 38 47 112 64 43 9 94 25 113 35 67 34 150 138
150 189 0 33 17 23 39 -24z m751 -11 c19 -20 21 -27 10 -40 -7 -8 -16 -15 -21
-15 -15 0 -41 49 -35 65 8 21 19 19 46 -10z m-635 -43 c-9 -9 -35 8 -35 24 0
16 2 16 20 -1 11 -10 18 -20 15 -23z m-1502 -29 l38 -6 -28 -30 c-15 -16 -48
-38 -73 -49 -56 -24 -70 -42 -70 -88 0 -35 -4 -39 -51 -64 -29 -15 -54 -25
-56 -22 -3 2 -7 22 -10 44 -5 38 -4 40 38 63 35 20 49 37 78 97 35 71 37 73
66 67 17 -3 47 -8 68 -12z m685 -21 c55 4 72 -15 53 -59 -13 -32 -14 -33 -135
-87 -82 -38 -122 -44 -159 -25 -17 9 -127 117 -127 125 0 1 24 -5 53 -13 28
-9 74 -18 100 -20 43 -4 52 -2 77 22 16 15 31 38 34 51 6 21 9 22 33 13 15 -6
47 -9 71 -7z m-507 -28 c18 -20 58 -54 87 -75 28 -22 52 -44 52 -49 0 -5 -13
-16 -29 -25 -28 -14 -33 -13 -78 10 -60 31 -138 35 -214 10 -43 -15 -53 -15
-60 -4 -6 10 4 19 40 35 30 14 65 42 96 78 27 31 54 56 60 56 6 0 27 -16 46
-36z m1737 -28 c59 -31 84 -69 92 -145 6 -53 14 -80 34 -105 47 -62 114 -96
189 -96 54 0 39 -12 -55 -44 -96 -33 -165 -34 -203 -4 -27 21 -27 23 -21 99 9
98 -6 132 -70 160 -24 11 -44 25 -44 32 0 13 42 117 47 117 2 0 16 -6 31 -14z
m-9587 -124 c-87 -140 -131 -282 -138 -448 -9 -200 30 -343 139 -506 122 -182
291 -290 500 -318 95 -13 128 -28 158 -70 19 -27 20 -30 4 -30 -39 0 -70 -59
-45 -85 5 -6 25 -50 44 -100 109 -278 47 -474 -188 -590 -38 -19 -101 -41
-140 -50 -38 -9 -74 -20 -79 -25 -5 -5 -15 -2 -23 6 -8 8 -25 14 -37 14 -29 0
-138 36 -191 62 -96 49 -223 157 -290 248 -45 60 -94 145 -129 223 l-34 74 66
-34 c195 -99 411 -71 564 74 65 63 118 143 118 182 0 24 -25 61 -41 61 -5 0
-38 -20 -74 -45 -78 -53 -129 -68 -210 -63 -141 9 -265 119 -374 333 -44 87
-74 165 -63 164 4 0 30 -28 57 -62 58 -70 165 -155 249 -197 105 -53 186 -34
186 43 0 53 -53 144 -149 257 -162 188 -207 291 -199 458 7 155 60 268 176
378 55 53 164 120 170 104 2 -4 -11 -30 -27 -58z m8547 40 c12 -8 7 -42 -7
-42 -7 0 -41 53 -41 64 0 6 19 -2 48 -22z m-8393 -112 c8 -47 18 -96 21 -109
6 -22 5 -23 -20 -19 l-26 5 5 -53 c4 -29 10 -68 16 -86 13 -48 11 -133 -5
-171 -15 -38 -70 -88 -126 -117 -36 -18 -40 -25 -41 -58 l0 -37 -16 40 c-12
30 -17 76 -17 180 -1 120 2 150 23 215 30 95 71 186 124 275 36 60 42 66 45
45 2 -14 9 -63 17 -110z m9954 50 c4 -8 27 -25 52 -38 74 -38 69 -43 -84 -85
-83 -23 -93 -23 -155 -11 -74 14 -102 23 -102 33 0 3 52 32 116 64 85 43 120
65 132 87 l17 30 8 -32 c5 -18 12 -40 16 -48z m-1649 4 c26 -50 70 -84 108
-84 27 0 98 -62 88 -78 -3 -6 -32 -25 -64 -43 -31 -18 -80 -55 -109 -82 l-52
-49 -51 42 c-75 62 -80 77 -68 188 l11 92 46 29 c25 16 51 30 56 30 6 1 21
-20 35 -45z m-8732 -56 c-90 -111 -133 -249 -126 -408 7 -163 53 -259 216
-452 93 -111 122 -154 122 -183 0 -19 -3 -19 -53 6 -211 107 -377 332 -377
513 0 28 7 84 17 124 19 82 13 105 -30 110 -24 3 -27 -2 -47 -65 -60 -196 -49
-382 39 -608 74 -193 214 -364 347 -427 62 -30 78 -33 159 -33 50 0 104 3 120
8 l30 7 -35 -29 c-88 -75 -218 -112 -322 -91 -118 23 -262 118 -303 200 -27
54 -78 194 -100 271 -16 56 -36 74 -73 61 -34 -11 10 -213 74 -339 25 -48 67
-143 94 -210 102 -254 176 -363 334 -488 105 -85 195 -131 312 -161 195 -49
373 -20 493 82 51 43 128 159 153 232 42 123 27 298 -39 444 -14 32 -23 61
-19 65 3 4 31 -1 61 -11 92 -29 120 -92 118 -261 -3 -231 -87 -421 -262 -595
-135 -134 -251 -189 -416 -197 -123 -6 -207 11 -320 67 -304 149 -577 536
-663 941 -47 219 -54 477 -18 649 52 241 169 468 329 638 62 64 209 192 223
192 2 0 -15 -24 -38 -52z m7630 37 c1 -1 5 -25 9 -54 l6 -51 -66 -63 c-47 -45
-68 -73 -76 -102 -18 -66 -14 -88 23 -124 33 -32 35 -36 33 -101 -2 -67 -2
-68 37 -104 22 -19 38 -37 35 -38 -2 -2 -30 -16 -62 -32 -98 -49 -152 -120
-271 -355 -126 -250 -168 -346 -286 -656 -230 -602 -427 -1069 -579 -1373 -77
-154 -242 -436 -299 -511 -99 -129 -701 -500 -1160 -715 -504 -236 -833 -343
-1347 -435 -369 -67 -558 -121 -736 -212 -229 -117 -321 -275 -259 -442 37
-100 115 -146 211 -126 109 23 167 103 199 270 30 157 98 243 246 315 93 44
97 44 90 -8 -75 -557 -163 -890 -302 -1145 -52 -95 -187 -281 -211 -290 -58
-22 -269 184 -497 487 -451 600 -615 987 -593 1399 19 353 167 576 492 739
197 98 391 145 605 146 143 0 148 -1 325 -49 171 -46 187 -48 310 -49 265 -1
478 63 1250 376 377 153 534 195 689 185 62 -4 92 -12 139 -36 66 -34 92 -30
103 16 9 34 -22 62 -103 94 -50 20 -76 23 -185 24 -71 0 -128 4 -128 8 0 18
189 386 250 487 93 156 155 242 345 480 383 481 532 703 815 1215 160 288 317
551 378 628 85 107 212 185 338 206 40 7 222 4 232 -4z m493 -18 c34 -22 40
-34 59 -113 7 -29 17 -43 31 -47 19 -5 17 -8 -18 -40 -21 -20 -41 -33 -46 -30
-4 2 -24 36 -43 75 -20 40 -57 92 -85 119 -27 26 -49 50 -49 53 0 3 26 6 59 6
44 0 66 -6 92 -23z m229 0 c0 -2 -22 -25 -50 -52 l-50 -49 0 42 c0 37 4 45 32
62 23 14 36 16 50 9 10 -5 18 -11 18 -12z m1474 -57 c2 -8 1 -35 -2 -59 l-7
-44 -38 74 c-20 41 -37 78 -37 82 0 13 80 -37 84 -53z m-1321 -55 l-6 -94 34
-33 c19 -18 51 -48 72 -66 23 -20 37 -41 37 -56 0 -24 32 -62 89 -104 22 -16
31 -32 31 -51 0 -41 -54 -116 -118 -164 -31 -23 -74 -59 -95 -80 -37 -38 -67
-44 -67 -13 0 9 25 51 54 95 85 124 86 170 8 253 -47 50 -47 51 -44 115 2 59
0 66 -25 92 -16 15 -50 35 -78 45 -27 10 -58 21 -68 25 -28 10 81 118 125 124
18 2 38 5 45 5 8 2 10 -23 6 -93z m-598 75 l20 -8 -20 -7 c-35 -14 -75 -57
-81 -90 -3 -18 1 -49 11 -75 34 -93 35 -90 -35 -90 -60 0 -62 1 -56 23 3 13 6
67 7 121 l1 98 32 19 c32 20 86 24 121 9z m1250 -46 c14 -33 13 -37 -10 -74
-14 -22 -39 -47 -56 -55 -47 -25 -108 -85 -131 -129 -28 -56 -20 -112 22 -148
l32 -26 -28 -51 c-16 -28 -35 -51 -42 -51 -24 0 -60 47 -72 91 -15 59 -38 113
-66 151 -17 22 -21 36 -14 48 5 9 62 54 127 98 65 45 140 104 168 132 27 27
50 50 52 50 1 0 9 -16 18 -36z m-1145 -51 c6 -10 33 -56 60 -102 28 -46 50
-90 50 -97 0 -8 -12 -17 -27 -20 -40 -10 -126 -54 -141 -73 -10 -12 -15 -13
-18 -3 -4 8 -29 12 -73 12 -79 0 -114 -20 -138 -78 -12 -30 -12 -37 2 -58 15
-23 10 -31 -10 -16 -6 4 -21 22 -34 39 -21 31 -21 36 -9 80 17 61 40 73 142
73 60 0 84 4 98 17 24 22 23 84 -2 151 -20 52 -20 52 0 72 26 26 86 27 100 3z
m-335 -119 c-9 -31 -14 -62 -12 -69 3 -6 -5 -24 -16 -38 l-22 -27 -34 42 -35
41 25 46 c13 25 39 56 58 69 31 20 36 21 44 7 5 -10 2 -37 -8 -71z m2753 72
c38 -20 68 -56 76 -91 4 -16 10 -39 13 -49 5 -17 1 -18 -28 -12 -25 5 -54 27
-105 81 -39 41 -66 76 -60 79 23 10 78 5 104 -8z m-9912 -86 c22 -43 69 -104
120 -159 l84 -89 -58 -4 c-141 -10 -195 -90 -161 -236 20 -86 103 -243 161
-305 54 -57 54 -58 24 -51 -53 11 -148 59 -209 105 -68 50 -135 135 -182 229
-54 109 -56 102 31 146 42 22 93 58 114 81 40 42 70 120 70 177 0 31 -21 126
-35 159 -4 9 -5 17 -2 17 3 0 22 -32 43 -70z m7883 12 c21 -16 24 -26 25 -91
l1 -73 46 -42 c64 -58 66 -70 22 -144 -20 -34 -40 -62 -44 -62 -7 0 -29 86
-29 114 0 7 -7 37 -16 67 -13 46 -27 65 -97 132 l-82 78 32 29 c29 26 35 28
75 19 24 -5 54 -18 67 -27z m1530 -47 c28 -6 44 -25 22 -25 -6 0 -24 -20 -42
-44 l-32 -45 -32 35 c-18 19 -37 34 -43 34 -7 0 -6 12 4 35 7 19 14 46 14 61
l0 26 39 -35 c21 -19 53 -38 70 -42z m351 50 c17 -9 30 -19 30 -23 0 -5 16
-27 36 -51 47 -55 100 -81 164 -81 36 0 52 -4 56 -15 4 -8 -10 -49 -30 -91
-35 -75 -37 -76 -59 -62 -18 13 -23 26 -25 74 -2 33 -7 63 -12 68 -5 5 -29 12
-52 15 -34 5 -44 10 -46 27 -5 35 -38 57 -91 62 -45 4 -53 2 -80 -25 -21 -22
-31 -43 -35 -79 -12 -97 -29 -184 -36 -184 -42 0 -37 250 6 317 11 17 93 53
142 62 2 1 16 -6 32 -14z m-1160 -58 c0 -61 70 -127 136 -127 22 0 39 -9 61
-35 17 -19 41 -35 52 -35 12 0 21 -3 21 -6 0 -33 -95 -100 -127 -90 -10 4 -36
21 -58 40 l-39 33 13 41 c21 63 7 73 -84 65 -48 -4 -74 -2 -79 5 -11 18 20 77
55 105 42 33 49 33 49 4z m-871 -87 c34 -28 67 -63 75 -78 7 -15 23 -74 35
-132 11 -58 39 -156 61 -218 22 -62 40 -122 40 -132 0 -28 -56 -88 -90 -95
-37 -8 -106 23 -103 45 1 8 11 40 22 70 27 74 26 156 -3 282 -13 57 -27 120
-31 142 -5 30 -19 51 -63 93 -46 44 -54 56 -42 63 25 16 37 12 99 -40z m1750
-51 c-16 -104 -1 -177 47 -218 27 -24 44 -31 76 -31 39 0 40 -1 35 -29 -4 -18
1 -41 14 -66 17 -30 19 -43 10 -62 -6 -12 -17 -23 -26 -23 -24 0 -228 196
-248 238 -19 42 -15 116 10 165 16 31 84 110 90 104 2 -2 -2 -37 -8 -78z m268
35 c3 -9 -4 -33 -16 -54 -12 -21 -21 -55 -21 -78 0 -34 6 -47 37 -77 l36 -35
-32 0 c-50 0 -104 26 -97 47 14 48 26 112 26 149 0 22 5 45 12 52 17 17 48 15
55 -4z m-477 -12 c33 -26 35 -106 4 -110 -12 -2 -44 11 -72 28 -30 20 -72 35
-104 39 -57 8 -55 10 37 40 78 25 108 25 135 3z m-1659 -37 c41 -31 69 -79 69
-120 0 -16 12 -77 26 -135 18 -73 24 -117 19 -147 -9 -64 -22 -60 -27 10 -6
71 -27 119 -62 143 -20 13 -34 14 -83 5 -32 -6 -77 -12 -101 -15 -38 -4 -42
-2 -37 14 16 51 -61 140 -121 140 -29 0 -34 3 -34 24 0 60 74 74 156 30 27
-14 78 -49 114 -78 88 -70 88 -71 111 -50 10 9 19 21 19 25 0 6 -122 109 -148
125 -2 1 4 14 13 28 22 33 42 33 86 1z m1366 -53 c-31 -31 -39 -34 -47 -22 -5
8 -10 18 -10 22 0 9 83 47 90 41 2 -2 -13 -20 -33 -41z m875 -8 c-4 -57 -12
-68 -41 -59 -48 15 -50 74 -3 100 40 21 47 14 44 -41z m-1275 10 c-3 -3 -12
-4 -19 -1 -8 3 -5 6 6 6 11 1 17 -2 13 -5z m581 -50 c66 -33 92 -65 92 -116 0
-48 12 -72 57 -120 34 -35 35 -38 28 -88 -6 -47 -32 -90 -52 -90 -5 0 -8 24
-9 53 -1 60 -19 98 -93 205 -47 66 -55 72 -86 72 -39 0 -47 -10 -65 -90 -14
-61 -41 -122 -69 -159 -15 -20 -21 -22 -39 -12 -33 17 -82 126 -82 181 0 55 6
61 83 90 32 12 78 39 103 61 25 21 53 39 63 39 9 0 40 -12 69 -26z m-8646 -30
c206 -43 351 -95 426 -151 43 -32 32 -43 -46 -50 -104 -10 -200 24 -355 124
-40 26 -94 59 -122 75 -62 34 -55 34 97 2z m8143 -35 c28 -23 50 -44 50 -48 0
-3 -13 -33 -30 -66 -26 -52 -30 -71 -30 -141 0 -66 5 -89 26 -130 43 -84 136
-118 236 -85 39 13 43 12 69 -8 32 -25 98 -28 151 -6 20 8 38 13 41 10 3 -3
-4 -25 -16 -50 -33 -68 -73 -69 -199 -8 l-52 26 -48 -51 c-109 -115 -155 -77
-214 172 -29 128 -31 145 -21 196 7 31 12 66 12 79 0 40 -28 78 -70 95 -42 17
-47 25 -28 44 25 25 72 13 123 -29z m-298 -53 c10 -3 54 -10 98 -16 102 -13
112 -23 97 -90 -19 -83 -19 -90 33 -316 8 -34 17 -70 20 -80 3 -10 -7 6 -23
36 -22 41 -31 74 -35 130 -6 79 -6 78 -85 142 -12 10 -22 29 -22 43 0 51 -90
124 -173 139 l-37 7 32 39 31 40 23 -34 c13 -19 32 -37 41 -40z m-1033 28 c15
-14 13 -19 -18 -55 -19 -22 -44 -67 -56 -100 -12 -32 -25 -59 -29 -58 -12 1
-95 65 -98 76 -5 15 81 109 122 134 37 23 59 24 79 3z m2619 -10 c29 -29 44
-93 28 -123 -12 -21 -22 -25 -86 -36 -53 -9 -79 -27 -95 -65 -11 -28 -10 -37
10 -80 26 -55 23 -81 -15 -125 -19 -21 -28 -26 -32 -17 -3 8 -18 28 -33 46
-38 43 -44 120 -12 161 26 33 29 89 7 142 -8 19 -15 37 -15 39 0 2 18 4 39 4
23 0 46 7 55 16 9 8 20 13 25 9 6 -3 25 8 43 24 40 37 49 38 81 5z m175 -97
c43 -42 41 -66 -12 -115 -50 -46 -90 -57 -173 -49 -73 8 -88 23 -31 32 63 11
117 35 129 57 6 11 11 44 11 74 1 51 2 53 22 42 11 -6 36 -24 54 -41z m-2748
-8 c-17 -19 -39 -61 -50 -94 -17 -54 -19 -56 -19 -26 -1 43 33 115 66 141 38
29 39 18 3 -21z m1453 -132 c28 -48 70 -87 93 -87 23 0 16 -15 -15 -33 -33
-19 -89 -22 -124 -6 -68 31 -88 173 -35 259 l21 35 17 -61 c9 -34 28 -82 43
-107z m357 49 c39 -78 39 -109 -2 -146 -75 -69 -138 -79 -180 -30 l-27 33 39
45 c37 41 47 65 87 202 6 21 45 -28 83 -104z m-2118 66 c-5 -54 35 -102 84
-102 41 0 79 -36 90 -85 15 -70 71 -143 124 -163 14 -5 74 -6 134 -3 l108 6
44 49 c36 39 47 46 58 37 11 -10 17 -8 26 6 10 16 10 16 5 -3 -7 -29 34 -62
87 -70 42 -7 44 -10 23 -38 -8 -11 -15 -28 -15 -39 0 -35 43 -15 75 35 35 56
50 62 29 13 -21 -50 -18 -133 6 -172 11 -18 24 -33 30 -33 5 0 10 -4 10 -9 0
-5 -8 -8 -17 -6 -61 12 -73 17 -87 31 -10 9 -16 33 -16 60 0 24 -4 44 -9 44
-5 0 -16 2 -23 5 -34 13 -51 -102 -22 -144 19 -26 87 -60 122 -61 26 0 26 0 7
-47 -8 -19 -15 -51 -15 -69 0 -37 -5 -41 -29 -21 -9 8 -70 47 -136 87 -225
136 -391 256 -551 397 -87 78 -174 157 -193 176 -32 34 -33 37 -21 68 14 33
57 89 69 89 3 0 5 -17 3 -38z m1210 18 c49 -14 98 -56 98 -84 0 -12 -16 -45
-35 -72 l-35 -49 0 36 c0 41 -27 74 -76 95 -73 30 -148 7 -192 -59 l-27 -41
-6 30 c-4 16 -7 44 -8 62 -1 32 -1 32 37 26 32 -5 49 0 103 30 69 39 84 41
141 26z m-757 -32 c-3 -18 -13 -55 -22 -81 -24 -76 -82 -98 -104 -39 -14 36
25 110 71 134 52 27 63 24 55 -14z m116 -49 c16 -79 -2 -159 -42 -194 -38 -31
-90 -34 -119 -5 -27 27 -25 32 13 50 54 25 73 64 103 209 4 21 7 22 19 10 8
-8 20 -40 26 -70z m-1681 -136 c-131 -224 -237 -391 -338 -532 -57 -80 -108
-150 -113 -155 -4 -5 -8 35 -8 90 0 105 -11 176 -37 226 -15 28 -15 32 3 49
33 33 548 437 552 433 2 -2 -25 -52 -59 -111z m2250 72 c17 -9 30 -18 30 -21
0 -3 -23 -31 -51 -62 -73 -81 -83 -106 -80 -184 1 -36 44 -84 87 -98 32 -11
39 -10 65 9 15 11 31 21 34 21 12 0 -26 -60 -52 -80 -30 -23 -50 -23 -151 6
-111 31 -119 82 -41 262 70 161 92 182 159 147z m1341 -21 c13 -14 34 -30 45
-34 16 -6 20 -15 17 -33 -3 -14 0 -35 7 -47 8 -14 -11 -4 -54 31 -36 29 -66
55 -66 58 1 17 13 51 19 51 4 0 18 -12 32 -26z m-1081 -43 c5 -10 13 -45 16
-77 4 -37 21 -87 44 -134 56 -112 57 -126 18 -150 -51 -31 -57 -27 -46 33 21
114 -2 166 -97 214 -27 14 -51 26 -53 28 -6 5 21 62 44 93 21 27 28 30 44 22
11 -6 24 -19 30 -29z m-1309 -370 c-42 -58 -105 -149 -141 -202 l-65 -96 -129
-37 c-210 -59 -213 -72 -55 -232 l112 -113 -77 -96 c-43 -53 -159 -191 -259
-308 -100 -117 -256 -301 -347 -409 -91 -108 -166 -195 -168 -194 -1 2 29 68
67 147 120 251 333 766 461 1115 95 257 266 651 336 771 l24 42 159 -140 158
-141 -76 -107z m210 332 c12 -19 18 -37 15 -40 -11 -11 -54 40 -62 72 -7 27
-6 29 9 16 9 -7 26 -29 38 -48z m903 -40 c-13 -32 -20 -39 -35 -36 -10 3 -19
7 -19 10 0 5 63 68 67 67 2 0 -4 -19 -13 -41z m-3453 -84 c72 -62 168 -188
214 -280 l35 -68 -46 -37 c-32 -27 -50 -35 -59 -28 -7 5 -49 38 -93 74 -81 66
-197 140 -218 140 -6 0 -23 -9 -37 -20 -40 -32 -107 -252 -107 -356 0 -41 -5
-57 -25 -78 -37 -40 -52 -74 -60 -141 -10 -90 -28 -117 -133 -203 -213 -173
-1351 -1016 -1551 -1148 l-73 -48 -29 34 c-16 19 -42 55 -57 80 -26 43 -27 51
-28 185 0 112 -4 147 -17 172 -30 56 -91 53 -121 -6 -37 -70 -30 -180 24 -372
15 -54 24 -99 20 -99 -4 0 -40 30 -79 66 -202 188 -287 418 -251 687 7 52 15
99 19 104 10 17 160 79 281 118 375 119 480 161 725 293 314 168 1207 711
1505 916 52 36 97 66 99 66 2 0 30 -23 62 -51z m3542 -10 c66 -33 77 -47 77
-95 0 -25 -6 -46 -13 -51 -8 -4 -30 -34 -50 -65 -68 -107 -173 -145 -266 -96
-44 22 -71 51 -60 63 3 3 25 -2 49 -10 93 -33 181 -5 231 73 40 64 40 114 -2
152 -17 15 -28 33 -25 39 9 15 10 14 59 -10z m-145 -32 c4 -31 -12 -36 -28 -8
-15 29 -12 43 8 39 10 -2 18 -14 20 -31z m802 -75 c25 -8 51 -17 58 -18 10 -3
9 -10 -4 -29 l-16 -25 -52 42 c-69 57 -75 63 -51 53 11 -4 40 -15 65 -23z
m-7629 -50 c-11 -22 -30 -73 -40 -114 -73 -268 -42 -497 111 -832 54 -119 77
-156 99 -156 4 0 20 10 35 23 l26 23 -25 50 c-56 111 -97 231 -105 310 -25
220 40 375 219 525 56 47 62 45 73 -25 10 -59 72 -179 122 -235 80 -89 180
-138 386 -190 l106 -27 -52 -32 c-114 -68 -236 -240 -280 -394 -23 -82 -46
-241 -46 -324 0 -278 154 -561 393 -719 31 -21 57 -38 57 -39 0 -1 -87 -1
-193 -1 -177 0 -199 -2 -288 -27 -332 -92 -620 -291 -782 -538 -137 -210 -207
-447 -207 -701 0 -198 26 -358 140 -844 27 -115 78 -352 115 -525 36 -173 68
-324 71 -335 7 -28 -20 5 -180 216 -218 287 -323 452 -442 689 -159 318 -201
548 -191 1049 8 426 58 803 157 1194 75 297 89 428 116 1072 19 457 14 591
-31 766 l-6 26 105 6 c173 11 330 50 481 121 39 18 71 32 73 30 2 -1 -6 -20
-17 -42z m7605 -64 c116 -90 149 -122 139 -137 -4 -7 -44 -11 -101 -11 -104 0
-141 -11 -195 -57 -40 -35 -78 -57 -86 -49 -3 3 -8 28 -11 55 -4 41 1 60 22
101 15 28 29 71 33 96 5 37 12 49 41 69 19 13 40 21 46 18 6 -4 56 -42 112
-85z m-8041 52 c-16 -4 -66 -7 -110 -7 l-80 0 65 7 c36 4 85 7 110 7 40 1 41
0 15 -7z m6550 -114 c102 -69 237 -155 301 -192 109 -64 117 -71 144 -124 16
-31 47 -73 69 -93 34 -31 48 -37 85 -37 28 0 52 7 68 20 l25 19 103 -65 c138
-88 221 -151 308 -236 67 -65 162 -178 162 -192 0 -4 -26 11 -57 33 -215 145
-483 194 -726 131 -194 -49 -400 -186 -496 -331 -109 -163 -58 -287 133 -320
74 -12 121 -10 375 17 224 25 376 5 498 -66 64 -37 89 -70 74 -98 -30 -56
-211 -65 -506 -26 -446 59 -681 31 -821 -98 -116 -107 -204 -295 -298 -635
-63 -226 -111 -466 -236 -1188 -34 -192 -76 -422 -95 -510 -54 -254 -57 -279
-53 -357 5 -94 34 -154 111 -223 32 -29 99 -74 148 -99 50 -25 87 -46 82 -46
-4 0 -44 12 -88 26 -101 33 -175 36 -204 10 -27 -25 -28 -78 -1 -121 11 -18
97 -106 190 -195 172 -164 255 -260 121 -140 -108 96 -290 238 -337 260 -81
40 -134 15 -134 -62 0 -33 19 -83 84 -218 47 -96 88 -191 91 -210 7 -41 -13
-77 -38 -67 -21 8 -67 99 -124 246 -120 306 -168 346 -428 345 -159 -1 -261
-21 -506 -99 -95 -31 -295 -90 -444 -131 -148 -41 -341 -95 -429 -120 -87 -25
-160 -43 -163 -40 -16 16 64 421 122 617 100 334 358 946 758 1794 297 631
338 688 1192 1680 196 227 360 428 403 492 42 63 45 55 -86 194 l-91 96 121
28 c66 15 124 33 130 39 5 6 61 94 125 196 63 102 120 193 127 203 6 9 14 17
18 17 4 0 90 -56 193 -124z m1225 91 c0 -27 -74 -167 -91 -172 -18 -6 -139 52
-139 66 0 4 24 16 53 28 87 37 96 43 109 77 10 30 13 31 40 22 15 -6 28 -15
28 -21z m-3340 -74 c0 -37 -132 -165 -229 -223 -66 -39 -74 -42 -96 -30 -14 7
-25 16 -25 20 0 4 57 50 128 103 70 52 143 109 162 126 44 38 60 39 60 4z
m-596 -127 c43 -34 85 -67 94 -73 13 -11 11 -21 -19 -85 -29 -64 -33 -83 -34
-153 0 -57 6 -90 18 -115 l18 -35 -105 -101 c-102 -99 -188 -164 -233 -178
-18 -6 -25 -1 -37 23 -25 47 -18 146 20 279 23 79 54 109 179 167 124 59 142
73 125 104 -6 12 -12 21 -13 21 -1 0 -45 -14 -97 -30 -51 -17 -98 -30 -103
-30 -12 0 -1 71 30 198 l26 103 26 -17 c14 -10 61 -45 105 -78z m3674 26 c66
-41 112 -61 154 -66 39 -4 48 -21 14 -30 -13 -3 -42 -26 -64 -51 l-40 -45 -12
29 c-14 34 -34 49 -143 107 l-78 41 48 30 c26 16 53 28 58 25 6 -3 34 -21 63
-40z m-445 -53 c3 -38 13 -72 25 -88 18 -25 85 -80 120 -100 15 -8 14 -11 -8
-30 -37 -30 -64 -26 -105 16 -52 54 -80 171 -59 250 10 37 21 18 27 -48z m142
22 c17 -3 75 -31 130 -61 l100 -55 -40 -6 c-22 -3 -58 -15 -81 -27 l-41 -21
-58 39 c-66 44 -84 69 -85 118 0 30 2 33 23 26 12 -4 36 -10 52 -13z m-2769
-98 c-20 -212 -7 -183 -175 -386 -58 -71 -126 -154 -150 -185 l-44 -57 7 45
c4 25 23 90 42 145 56 155 76 236 70 280 -5 40 -4 40 56 75 33 19 88 61 122
92 33 31 65 57 70 58 4 0 5 -30 2 -67z m3730 44 c18 -19 51 -117 59 -176 l7
-55 -30 26 c-17 14 -51 33 -74 42 -24 9 -69 25 -101 37 -31 11 -71 32 -88 46
-29 25 -29 26 -12 45 26 29 50 40 107 48 59 9 116 4 132 -13z m-361 -94 c39 6
41 3 25 -55 -20 -71 -77 -87 -135 -37 -29 25 -35 38 -35 69 0 28 6 43 21 54
20 14 25 13 56 -11 26 -20 41 -24 68 -20z m-3709 -139 c-3 -23 -13 -61 -22
-84 -16 -39 -19 -42 -47 -36 -17 4 -34 11 -38 18 -19 30 -21 148 -3 179 2 4
29 -3 60 -15 l55 -21 -5 -41z m-86 -226 c0 -7 -9 -46 -20 -86 -25 -94 -36
-212 -22 -250 9 -26 3 -41 -60 -158 -39 -71 -108 -208 -154 -304 l-83 -175
-143 -51 c-79 -28 -161 -58 -182 -67 -22 -10 -41 -16 -42 -14 -2 2 12 62 31
133 35 132 114 343 203 538 48 103 53 110 100 136 77 42 166 115 266 216 91
93 106 105 106 82z m-542 -272 l21 -36 -40 -87 c-111 -239 -186 -445 -229
-632 -16 -68 -30 -125 -32 -126 -4 -4 -107 -45 -114 -45 -2 0 -2 22 2 49 6 43
4 50 -15 60 -37 20 -55 0 -71 -80 l-15 -74 -125 -47 c-69 -26 -126 -43 -128
-38 -4 11 65 143 185 355 159 282 305 579 311 632 4 43 9 52 50 83 25 19 71
56 101 82 l56 48 11 -54 c6 -30 20 -70 32 -90z m3928 75 c152 -32 265 -86 380
-184 121 -102 211 -234 260 -377 31 -89 26 -359 -10 -555 -86 -477 -219 -928
-742 -2511 -173 -525 -335 -1021 -360 -1102 -25 -81 -70 -199 -101 -262 -91
-188 -184 -265 -480 -400 -238 -108 -534 -211 -1353 -470 -1321 -418 -2003
-610 -2165 -610 -39 0 -46 3 -60 30 -8 16 -27 77 -41 135 -28 118 -303 1479
-300 1483 2 1 137 38 302 83 529 142 1582 438 1834 515 289 89 445 119 571
111 98 -6 155 -29 188 -76 25 -35 47 -85 113 -258 72 -190 133 -268 209 -268
92 0 146 126 105 243 -8 22 -46 104 -85 183 -39 78 -69 145 -66 147 6 7 95
-62 209 -162 184 -162 220 -186 277 -186 68 0 89 62 48 143 -13 25 -96 117
-205 226 -102 101 -182 186 -180 189 9 9 128 -19 271 -64 189 -58 258 -74 331
-74 68 0 114 25 114 61 0 42 -43 65 -240 129 -379 123 -520 225 -520 378 0 28
25 174 55 324 30 150 84 449 120 663 156 930 264 1330 416 1551 64 93 171 146
335 165 101 12 167 8 449 -26 294 -35 332 -38 424 -26 154 20 216 69 208 168
-6 91 -79 157 -232 209 -109 37 -278 43 -509 19 -273 -29 -387 -11 -394 61 -4
40 62 139 135 202 207 179 439 245 689 193z m-4321 -248 c-50 -112 -325 -612
-337 -613 -4 0 -5 6 -2 13 2 7 22 113 43 235 21 123 40 224 42 226 2 2 42 30
89 64 47 33 105 76 130 95 25 20 48 36 52 36 4 1 -4 -25 -17 -56z m-389 -344
c-21 -98 -51 -280 -86 -518 -5 -36 -15 -70 -22 -77 -38 -36 -366 -116 -488
-118 -68 -1 -80 2 -130 31 -62 36 -170 119 -170 131 0 4 42 34 92 67 113 73
601 427 729 528 52 41 95 73 96 72 2 -1 -8 -53 -21 -116z m-902 -677 c0 -1
-31 7 -68 19 l-68 20 -30 67 c-16 36 -34 75 -38 87 -4 11 40 -27 99 -85 58
-58 106 -106 105 -108z m2668 -404 c-172 -338 -608 -1302 -751 -1659 -143
-361 -240 -735 -267 -1031 -4 -43 -11 -78 -15 -78 -12 0 -11 195 1 305 18 160
113 721 210 1240 120 645 176 892 207 928 10 10 87 60 173 111 222 133 409
250 455 284 22 17 43 31 47 31 4 1 -23 -59 -60 -131z m-786 -539 c-113 -501
-339 -1785 -348 -1981 -1 -27 -5 -48 -9 -48 -9 0 -60 130 -83 210 -21 73 -42
224 -55 390 -29 352 -28 346 -14 417 11 48 13 110 10 213 -4 123 -8 158 -32
230 -44 135 -94 220 -199 338 -31 34 -56 67 -56 71 0 5 41 23 92 41 204 71
468 183 663 282 39 20 71 35 72 34 2 -1 -17 -90 -41 -197z m-3448 139 c-17
-67 -13 -310 5 -418 52 -305 191 -597 474 -997 216 -306 473 -593 593 -661 72
-42 125 -43 171 -4 49 41 180 222 232 320 96 183 180 436 232 703 21 110 85
524 85 554 0 6 63 21 139 33 150 25 382 76 525 116 l90 25 59 -65 c106 -116
137 -158 177 -239 61 -123 75 -188 73 -345 -1 -214 -42 -347 -191 -623 -46
-86 -98 -197 -115 -245 -26 -76 -30 -100 -29 -195 0 -59 4 -113 10 -120 6 -6
13 -29 17 -49 4 -21 11 -35 16 -32 5 3 10 -5 10 -18 1 -13 6 19 10 71 20 226
58 342 183 570 l74 134 6 -44 c3 -24 10 -93 16 -154 23 -230 55 -354 139 -543
68 -154 75 -172 65 -181 -14 -13 -482 -133 -493 -127 -5 3 -11 2 -13 -3 -1 -5
-79 -30 -173 -55 -255 -71 -261 -73 -275 -105 -6 -15 -8 -40 -4 -54 l6 -27
-97 0 c-79 0 -117 6 -204 31 -152 44 -212 79 -306 178 -205 216 -241 243 -418
306 -121 43 -211 61 -377 75 -74 6 -191 20 -259 31 -68 11 -139 19 -157 17
-18 -1 -35 0 -37 2 -3 3 -19 75 -37 160 -17 85 -83 385 -145 665 -63 281 -121
555 -130 610 -23 140 -30 332 -16 445 16 131 58 300 75 300 2 0 -1 -19 -6 -42z
m1339 -652 c-44 -56 -71 -129 -86 -224 -13 -85 -30 -122 -67 -151 -57 -45
-108 -37 -145 21 -16 26 -19 45 -16 90 4 72 40 125 125 187 64 47 213 133 220
127 2 -2 -12 -25 -31 -50z m-1220 -1596 c100 -118 123 -140 197 -184 33 -20
56 -36 50 -36 -63 0 -245 25 -266 36 -37 19 -65 65 -79 132 -11 54 -4 156 11
150 4 -2 43 -46 87 -98z m292 0 c54 -11 172 -27 262 -35 250 -24 346 -48 499
-125 99 -49 120 -73 120 -136 0 -30 -13 -93 -31 -150 -57 -181 -49 -294 27
-383 43 -50 81 -71 129 -71 53 0 86 21 195 123 54 51 119 103 144 115 60 30
115 39 127 21 5 -8 9 -199 9 -425 l0 -411 -177 -52 c-328 -94 -457 -112 -783
-108 -165 2 -194 0 -267 -20 -45 -13 -106 -23 -135 -23 -63 0 -131 31 -162 72
l-20 28 23 24 c32 34 96 66 261 131 80 31 155 66 168 78 45 42 16 105 -53 113
-25 4 -97 -6 -189 -25 -167 -35 -278 -40 -314 -15 -27 19 -29 64 -4 86 50 44
174 87 350 119 98 19 121 27 144 50 34 34 35 53 4 84 -30 29 -68 40 -226 60
-132 17 -282 48 -336 71 -49 21 -59 72 -24 129 30 49 51 54 165 39 214 -29
351 -18 407 33 23 21 23 65 0 86 -24 22 -107 37 -204 37 -215 0 -400 89 -344
165 13 18 19 18 217 1 112 -9 276 -26 364 -37 88 -11 173 -18 189 -15 72 15
88 75 32 124 -43 38 -130 58 -301 72 -236 20 -357 64 -385 143 -19 56 -21 56
119 27z m-366 -265 c33 -14 35 -17 27 -44 -16 -57 14 -129 74 -176 l31 -25
-60 19 c-69 20 -97 34 -142 68 -29 21 -33 30 -33 68 0 32 7 51 26 74 30 36 30
36 77 16z m1586 -272 c44 -21 81 -41 81 -45 0 -4 -9 -10 -21 -13 -11 -4 -70
-54 -130 -111 -94 -88 -116 -104 -143 -104 -21 0 -40 8 -53 23 -62 68 -69 154
-23 309 17 55 30 112 30 126 0 22 10 15 89 -61 69 -66 107 -94 170 -124z
m-1643 -12 c5 -4 30 -16 57 -26 26 -10 47 -20 47 -22 0 -3 -9 -16 -20 -30 -11
-14 -22 -40 -26 -59 -3 -19 -11 -34 -16 -34 -6 0 -28 17 -49 39 -34 33 -39 45
-39 83 0 25 3 48 7 51 9 10 27 9 39 -2z m2131 -83 c8 -10 249 -1192 256 -1257
2 -11 -30 -22 -116 -42 -179 -41 -213 -45 -225 -22 -25 45 -32 174 -42 718 -6
319 -13 588 -16 598 -5 15 3 17 64 17 44 0 73 -5 79 -12z m-2000 -254 c57 -27
226 -68 328 -79 77 -9 74 -17 -10 -34 -33 -7 -93 -26 -133 -42 -90 -36 -104
-36 -170 -3 -76 38 -135 137 -117 195 6 19 8 19 28 4 12 -8 45 -27 74 -41z
m6187 -236 c-22 -74 -72 -121 -144 -137 -35 -7 -234 -11 -227 -4 1 0 43 18 92
38 50 20 131 56 180 80 50 24 94 44 98 44 5 1 5 -9 1 -21z m-6182 -85 c-3 -49
0 -64 20 -93 49 -72 129 -99 262 -87 l61 5 -35 -15 c-19 -8 -56 -28 -82 -45
-137 -87 -115 -237 47 -309 69 -31 178 -31 308 0 90 22 114 23 257 18 280 -9
491 20 776 108 81 25 148 44 150 42 2 -1 6 -55 9 -118 14 -259 41 -336 126
-359 42 -12 113 -3 267 31 51 12 96 19 99 16 10 -11 -36 -143 -65 -186 -34
-50 -103 -100 -141 -102 -87 -5 -150 19 -288 112 -41 28 -105 65 -142 83 -59
28 -76 31 -156 31 -102 0 -151 -17 -238 -83 -100 -76 -235 -269 -302 -434 -75
-182 -105 -345 -130 -698 -24 -331 -53 -497 -126 -715 -72 -216 -159 -366
-234 -402 -31 -15 -36 -15 -59 0 -53 35 -78 147 -101 447 -26 341 -57 483
-121 559 -104 121 -277 45 -359 -157 -27 -66 -48 -168 -70 -337 -52 -390 -162
-567 -440 -701 -175 -85 -385 -121 -655 -111 -257 10 -439 44 -895 167 -547
149 -656 170 -860 170 -197 0 -298 -23 -479 -108 -14 -7 63 132 148 266 189
298 457 615 731 865 171 156 333 284 910 717 868 653 1146 869 1440 1121 160
137 306 279 340 332 9 15 20 27 24 27 4 0 5 -26 3 -57z m5606 -160 c-120 -124
-133 -257 -51 -518 63 -202 51 -324 -39 -400 -110 -93 -246 -94 -564 -4 -254
72 -360 91 -483 88 l-103 -3 -79 100 c-117 146 -201 266 -192 275 4 4 188 64
408 134 220 69 567 181 770 249 204 68 372 124 375 125 2 0 -16 -20 -42 -46z
m-1142 -1120 c396 -497 467 -636 689 -1351 57 -185 113 -366 124 -402 12 -36
21 -69 21 -73 0 -5 -27 32 -60 82 -74 109 -192 237 -275 296 -81 58 -191 110
-290 136 -95 25 -259 29 -590 15 -181 -8 -222 -7 -295 8 -349 69 -507 369
-377 716 54 141 126 248 262 385 127 128 225 200 375 276 68 34 234 97 261 99
3 0 73 -84 155 -187z m2587 -870 c44 -205 59 -284 72 -370 24 -164 45 -426 45
-576 l0 -139 -40 50 c-43 55 -134 124 -219 167 -30 15 -129 51 -220 81 -226
75 -291 116 -291 186 0 92 99 183 365 339 140 81 239 175 257 243 14 53 23 58
31 19z"/>
<path d="M9890 14573 c-265 -43 -529 -157 -850 -368 -251 -165 -485 -381 -466
-430 7 -18 86 -76 156 -114 88 -47 188 -70 387 -86 260 -22 385 -59 480 -140
51 -43 61 -70 38 -95 -58 -64 -313 -3 -637 154 -140 67 -229 103 -299 120 -37
8 -79 -25 -64 -50 6 -9 67 -38 135 -64 69 -26 166 -68 217 -93 110 -56 391
-152 487 -167 158 -25 264 29 253 128 -12 107 -165 215 -365 256 -37 8 -144
22 -238 30 -100 9 -197 24 -235 36 -64 19 -189 87 -189 101 0 15 144 78 213
94 36 8 158 27 269 41 330 41 481 79 674 169 175 81 336 205 363 278 33 86
-17 168 -120 197 -33 10 -158 11 -209 3z m234 -102 c36 -34 33 -61 -14 -114
-77 -87 -289 -204 -480 -265 -127 -40 -211 -57 -420 -82 -96 -12 -219 -30
-274 -41 -54 -11 -100 -18 -102 -17 -2 2 48 42 111 88 394 292 791 463 1057
457 87 -2 99 -4 122 -26z"/>
</g>
</svg>
