<?xml version='1.0' encoding='utf-8'?>
<svg xmlns="http://www.w3.org/2000/svg" width="270.10962mm" height="311.14929mm" viewBox="0 0 270.10962 311.14929" version="1.1" id="svg5" xml:space="preserve"><defs id="defs2" /><g id="layer1"><path style="fill:#000000" d="m 0.45719999999982974 310.9475000000002 c -0.446,-0.2979 -0.589,-0.9377 -0.325,-1.4512 0.222,-0.4326 1.21,-0.463 15.045,-0.463 h 14.807 v -2.0976 -2.0977 l 1.494,-0.1865 c 0.821,-0.1026 2.428,-0.1224 3.572,-0.044 3.13,0.2145 3.102,0.2337 3.192,-2.1507 l 0.08,-2.0225 1.775,-0.228 1.775,-0.228 0.08,-1.8886 0.08,-1.8887 0.96,-0.2372 c 0.915,-0.2262 0.967,-0.3003 1.122,-1.5875 0.09,-0.7427 0.163,-17.1048 0.165,-36.3604 0,-27.6568 -0.07,-35.0798 -0.329,-35.3423 -0.182,-0.1828 -0.801,-1.7518 -1.375,-3.4868 -0.575,-1.735 -1.063,-3.1859 -1.084,-3.2242 -0.02,-0.038 -0.488,0.118 -1.037,0.3472 -0.548,0.2293 -1.157,0.3554 -1.353,0.2803 -0.479,-0.1839 -2.686,-3.5577 -2.895,-4.4264 -0.144,-0.5982 -0.03,-0.777 0.845,-1.2997 1.892,-1.1327 21.353,-13.8233 28.794,-18.7764 4.074,-2.7124 9.67,-6.402 12.435,-8.1991 2.765,-1.797 5.069,-3.2994 5.121,-3.3385 0.05,-0.039 -0.227,-0.7257 -0.618,-1.5258 -0.392,-0.8001 -0.672,-1.6581 -0.623,-1.9067 0.113,-0.5763 -0.556,-0.1153 12.921,-8.9037 6.33,-4.128 12.128,-7.9163 12.885,-8.4185 1.038,-0.6895 1.349,-1.0426 1.267,-1.4422 -0.06,-0.2911 -0.238,-1.2017 -0.396,-2.0236 -0.272,-1.4064 -0.341,-1.5041 -1.173,-1.6603 -0.99,-0.1857 -1.039,-0.3206 -1.361,-3.7887 -0.233,-2.5149 -0.06,-2.7139 2.304,-2.7139 h 1.82 v -1.9314 c 0,-1.0623 0.122,-2.0533 0.271,-2.2023 0.406,-0.4062 0.229,-29.6201 -0.18,-29.543 -0.168,0.032 -0.422,-0.087 -0.565,-0.2646 -0.395,-0.4898 -3.076,-11.6907 -2.905,-12.1368 0.08,-0.2146 1.403,-1.2159 2.935,-2.2252 l 2.786,-1.8352 0.43,-1.7198 c 0.618,-2.4688 6.407,-22.3296 11.644,-39.9521 1.363,-4.5839 3.272,-11.0133 4.242,-14.2875 0.971,-3.2742 2.63,-8.8702 3.688,-12.4354 2.491,-8.3948 2.439,-8.0958 1.478,-8.593 -1.192,-0.6162 -1.302,-1.4172 -0.306,-2.2352 l 0.828,-0.6812 v -2.8629 -2.8628 l -3.704,0.188 -3.704,0.188 v -2.6829 -2.683 h 3.572 3.572 v -3.7042 -3.7041 h 3.043 3.042 v 3.7041 3.7042 h 3.308 3.307 v 2.686 2.6861 l -3.288,-0.1554 -3.288,-0.1553 -0.185,1.7237 c -0.282,2.6366 0,4.0659 0.944,4.8056 0.993,0.7775 0.992,1.1564 0,1.9947 -0.436,0.3674 -0.794,0.8252 -0.794,1.0174 0,0.3835 1.868,7.3102 4.09,15.1628 0.782,2.7649 2.257,8.0632 3.278,11.774 1.021,3.7108 3.463,12.5809 5.428,19.7114 4.797,17.4151 5.548,20.212 6.713,25.0032 l 0.997,4.101 3.175,2.1185 c 2.073,1.3837 3.199,2.3014 3.244,2.6458 0.04,0.2901 -0.566,3.0277 -1.343,6.0836 l -1.413,5.5563 -0.846,0.083 -0.846,0.083 0.117,15.1302 c 0.06,8.3216 0.196,15.9338 0.293,16.9161 l 0.177,1.7859 h 2.463 c 2.051,0 2.491,0.074 2.631,0.4396 0.09,0.2417 0.02,1.6147 -0.157,3.051 -0.298,2.3847 -0.379,2.6249 -0.941,2.7659 -0.727,0.1825 -1.126,0.8326 -1.142,1.8621 -0.01,0.6579 -0.296,1.625 -0.897,3.0342 -0.142,0.3324 0.309,0.8121 1.882,2.0023 2.031,1.5363 16.099,11.0448 20.392,13.7821 1.467,0.9357 2.182,1.5552 2.182,1.8898 0,0.2738 -0.416,1.2833 -0.926,2.2434 -0.509,0.96 -0.926,1.7913 -0.926,1.8473 0,0.2164 37.537,24.9039 42.466,27.9292 4.086,2.508 4.299,2.7046 3.939,3.6447 -0.441,1.1494 -2.213,3.7853 -2.662,3.9574 -0.224,0.086 -0.909,-0.087 -1.522,-0.3853 l -1.115,-0.5416 -0.875,2.9499 c -0.482,1.6224 -1.069,3.3071 -1.305,3.7436 -0.389,0.7209 -0.429,4.1227 -0.429,37.0417 v 36.2479 l 1.059,0.1323 1.058,0.1323 0.08,2.0505 0.08,2.0506 h 1.297 c 0.712,0 1.377,0.1311 1.476,0.2914 0.1,0.1604 0.163,1.1724 0.142,2.249 l -0.04,1.9575 h 3.953 c 2.174,0 4.141,0.072 4.371,0.1606 0.333,0.1276 0.419,0.5887 0.419,2.2489 v 2.0884 h 14.543 c 14.215,0 14.549,0.012 14.822,0.5231 0.223,0.4155 0.17,0.6332 -0.255,1.0583 l -0.535,0.5353 h -134.21 c -73.816,0 -134.341,-0.092 -134.501,-0.1984 z m 158.049,-1.8916 35.52,-0.023 v -1.1906 -1.1907 h -60.06 -60.061 v 1.1466 c 0,0.6306 0.05,1.1961 0.111,1.2567 0.06,0.061 11.103,0.091 24.54,0.067 13.436,-0.024 40.414,-0.054 59.95,-0.066 z m -86.453,-1.2132 v -1.1907 h -19.976 -19.976 v 1.1907 1.1906 h 19.976 19.976 z m 166.423,0 v -1.1907 h -21.138 c -23.289,0 -21.46,-0.1371 -21.46,1.6092 v 0.7721 h 21.299 21.299 z m -161.977,-4.5641 -0.08,-1.2568 -11.377,-0.083 c -6.258,-0.046 -14.384,0 -18.058,0.096 l -6.681,0.1789 v 1.1607 1.1608 h 18.139 18.138 z m 113.558,-0.067 v -1.3235 l -55.628,0.067 -55.629,0.067 -0.08,1.2568 -0.08,1.2568 h 55.709 55.709 z m 39.902,0.1991 -0.08,-1.1245 -3.439,-0.1496 c -1.892,-0.082 -10.346,-0.1417 -18.786,-0.1322 l -15.346,0.017 -0.08,1.2568 -0.08,1.2568 h 18.947 18.948 z m -149.472,-3.2742 c 0.755,-0.1511 0.827,-0.254 0.827,-1.1907 v -1.0252 h -18.653 -18.654 v 1.1906 1.1906 h 17.827 c 9.804,0 18.198,-0.074 18.653,-0.1653 z m 105.022,-1.0914 0.08,-1.1245 h -51.212 -51.212 v 1.1913 1.1913 l 51.13,-0.067 51.131,-0.067 z m 41.274,0 c -0.07,-1.1098 -0.15,-1.2546 -0.676,-1.2379 -0.328,0.01 -9.168,0.04 -19.645,0.066 l -19.05,0.047 v 1.0142 c 0,0.5578 0.08,1.0936 0.176,1.1906 0.1,0.097 8.974,0.1764 19.726,0.1764 h 19.549 z m -172.787,-41.9365 c 0.04,-21.2097 0,-38.563 -0.09,-38.563 -0.137,0 -2.307,1.3806 -5.69,3.6191 l -0.951,0.6296 -0.172,3.7626 c -0.232,5.0692 -0.223,68.8455 0.01,69.0781 0.101,0.1012 1.678,0.1508 3.505,0.1103 l 3.322,-0.074 z m 31.164,37.8101 c 0.09,-0.4869 0.112,-5.6959 0.05,-11.5756 l -0.121,-10.6902 0.959,-1.5676 0.958,-1.5675 0.07,-36.4663 c 0.04,-20.0565 0,-36.4663 -0.09,-36.4663 -0.09,0 -3.809,2.4747 -8.272,5.4994 -4.463,3.0247 -11.519,7.7425 -15.68,10.484 l -7.566,4.9846 -0.173,6.5155 c -0.227,8.5628 -0.226,71.3309 0,71.5588 0.1,0.097 6.819,0.1764 14.937,0.1764 h 14.761 z m -21.405,-6.2151 c -0.442,-0.084 -0.462,-0.8307 -0.369,-13.3615 0.112,-14.9598 0.06,-14.5452 2.204,-18.908 0.912,-1.8581 1.673,-2.9429 3.11,-4.4317 1.046,-1.0843 2.078,-1.9714 2.292,-1.9714 0.786,0 3.6,3.3361 4.829,5.724 2.254,4.3801 2.151,3.5124 2.255,19.0659 l 0.09,13.8097 -0.875,0.1432 c -0.906,0.1484 -12.71,0.087 -13.539,-0.07 z m 5.388,-13.0889 v -10.6642 l 0.629,-0.8529 c 0.346,-0.4691 0.778,-1.383 0.959,-2.031 0.182,-0.6479 0.434,-1.1137 0.562,-1.035 0.382,0.2364 0.261,1.6101 -0.175,1.9713 -0.359,0.2982 -0.336,0.4101 0.199,0.9795 l 0.604,0.6427 0.08,10.8269 c 0.07,9.1276 0.136,10.8269 0.452,10.8269 0.316,0 0.387,-1.7376 0.452,-11.1067 l 0.08,-11.1068 0.743,-0.7333 0.743,-0.7334 0.665,0.7643 0.665,0.7643 -0.183,-1.0289 c -0.462,-2.5869 -1.775,-5.9815 -3.055,-7.8947 -0.73,-1.0916 -1.43,-2.0486 -1.557,-2.1266 -0.341,-0.2108 -1.943,1.8802 -2.892,3.7735 -0.731,1.4601 -2.669,6.4672 -2.669,6.8969 0,0.088 0.185,-0.105 0.412,-0.4285 0.51,-0.7285 1.588,-0.7705 1.96,-0.076 0.176,0.3298 0.273,4.5166 0.273,11.7739 0,11.0858 0,11.2622 0.53,11.2622 0.52,0 0.529,-0.1764 0.529,-10.6642 z m 3.092,-11.9962 c -0.261,-0.2612 -0.225,-1.9458 0.04,-1.9458 0.123,0 0.445,0.2451 0.716,0.5446 0.369,0.4078 0.425,0.6532 0.221,0.9765 -0.319,0.506 -0.723,0.681 -0.979,0.4247 z m -3.687,-0.7471 c -0.255,-0.3503 -0.464,-0.6994 -0.464,-0.7759 0,-0.1684 1.904,-1.4812 2.148,-1.4812 0.09,0 -0.07,0.6549 -0.363,1.4552 -0.295,0.8004 -0.609,1.4515 -0.697,1.4469 -0.09,0 -0.37,-0.2948 -0.624,-0.645 z m 4.361,-1.5837 -0.988,-0.9141 0.582,-0.4147 c 0.321,-0.2281 0.752,-0.5843 0.96,-0.7917 0.326,-0.3262 0.433,-0.1778 0.798,1.1035 0.627,2.2065 0.245,2.4941 -1.352,1.017 z m -5.749,0.1188 c 0.264,-0.292 0.412,-0.5986 0.33,-0.6815 -0.151,-0.1503 0.815,-3.2857 1.011,-3.2857 0.146,0 1.489,2.6828 1.387,2.7708 -0.05,0.04 -0.477,0.2723 -0.957,0.5167 -0.481,0.2444 -0.94,0.6167 -1.021,0.8274 -0.08,0.2107 -0.391,0.3831 -0.689,0.3831 -0.525,0 -0.527,-0.016 -0.06,-0.5308 z m 4.629,-2.2512 c 0,-0.2306 0.181,-0.7706 0.403,-1.1999 0.222,-0.4294 0.285,-0.7806 0.14,-0.7806 -0.145,0 -0.375,-0.387 -0.512,-0.8599 l -0.248,-0.8599 -0.02,0.8442 c -0.01,0.4644 -0.143,0.9179 -0.289,1.0078 -0.145,0.09 -0.264,0.5137 -0.264,0.9417 0,0.428 -0.103,0.7781 -0.23,0.7781 -0.304,0 -1.622,-2.0054 -1.622,-2.4681 0,-0.1996 0.373,-0.8778 0.829,-1.5072 l 0.829,-1.1443 0.747,0.9062 c 0.41,0.4984 1.067,1.4902 1.459,2.2041 0.691,1.2613 0.697,1.3086 0.21,1.6731 -1.053,0.7865 -1.428,0.9086 -1.428,0.4647 z m 23.935,36.5039 1.2,-0.1799 v -10.8179 -10.8179 h -4.624 -4.625 l -0.07,10.836 -0.07,10.836 1.059,0.078 c 2.691,0.1984 6.043,0.2292 7.134,0.066 z m 14.661,-0.021 0.827,-0.1654 v -15.9742 c 0,-10.9696 -0.09,-15.9742 -0.278,-15.9742 -0.188,0 -0.228,-1.3389 -0.125,-4.1672 0.252,-6.8608 0.434,-83.7305 0.198,-83.6326 -0.119,0.05 -1.726,1.1024 -3.569,2.3393 l -3.352,2.249 v 44.1854 44.1854 l 0.794,1.6774 c 0.902,1.9076 0.951,2.3249 0.398,3.3856 -0.331,0.635 -0.395,2.4608 -0.397,11.2591 v 10.5012 l 0.992,0.1038 c 1.768,0.185 3.685,0.1966 4.531,0.027 z m 25.404,-15.3334 v -15.205 l -4.682,0.072 -4.682,0.072 -0.07,15.1335 -0.07,15.1335 1.392,0.08 c 0.765,0.044 2.902,0.044 4.749,-6e-4 l 3.359,-0.081 z m 26.688,-1.3023 c 0.06,-14.4458 0.02,-16.7071 -0.321,-16.9559 -0.27,-0.1985 -0.477,-1.2022 -0.671,-3.2524 -0.596,-6.3233 -1.897,-10.1082 -4.969,-14.4521 -4.273,-6.0421 -11.659,-10.6874 -17.74,-11.1564 -7.936,-0.6119 -17.829,5.9124 -22.244,14.6694 -1.178,2.3364 -2.326,5.9271 -2.641,8.2609 -0.147,1.0914 -0.353,10.4081 -0.456,20.7037 l -0.189,18.7192 h 2.29 2.29 v -17.5286 c 0,-9.6408 0.113,-18.5585 0.245,-19.8172 1.03,-9.784 6.591,-16.9891 15.493,-20.073 3.627,-1.2565 6.758,-0.8435 11.27,1.4869 6.531,3.3734 10.645,9.2162 11.983,17.0187 0.361,2.1058 0.427,4.9516 0.427,18.2817 0,8.6833 0.08,16.8726 0.171,18.1984 l 0.171,2.4107 1.747,0.097 c 0.961,0.053 2.045,0.088 2.409,0.077 l 0.661,-0.02 z m 53.5,-22.0266 -0.01,-38.8276 -11.131,-7.276 c -18.281,-11.9494 -20.364,-13.2887 -20.481,-13.171 -0.06,0.062 -0.117,16.2776 -0.121,36.0348 v 35.922 l 0.81,1.4154 0.81,1.4154 -0.01,11.4761 c 0,6.3118 0.07,11.5576 0.166,11.6573 0.1,0.1 6.888,0.1812 15.086,0.1812 h 14.905 z m -22.375,31.6391 c -0.303,-0.49 -0.4,-17.8886 -0.127,-22.7094 0.284,-5.0093 0.651,-6.653 2.187,-9.7889 0.812,-1.6592 1.594,-2.7509 2.982,-4.1671 1.036,-1.0555 2.053,-1.919 2.261,-1.919 0.209,0 1.227,0.8647 2.264,1.9215 2.183,2.2264 3.99,5.5557 4.915,9.0587 0.524,1.9824 0.566,2.9238 0.665,14.8419 l 0.105,12.7251 -3.222,0.1733 c -5.364,0.2884 -11.813,0.2154 -12.03,-0.1361 z m 3.335,-13.3837 0.132,-11.1357 0.641,-0.6825 c 0.353,-0.3754 0.779,-0.6825 0.946,-0.6825 0.377,0 1.305,1.0082 1.583,1.7198 0.114,0.291 0.24,5.2707 0.28,11.066 0.04,5.7953 0.138,10.6023 0.218,10.6822 0.08,0.08 0.329,0.075 0.554,-0.011 0.358,-0.1376 0.408,-1.4477 0.408,-10.7657 0,-6.8979 -0.1,-10.7905 -0.278,-11.1277 -0.152,-0.2853 -0.241,-1.1911 -0.198,-2.013 l 0.08,-1.4943 0.76,0.6552 0.759,0.6552 -0.579,1.1363 c -0.983,1.9259 -0.412,1.5801 1.236,-0.7491 0.05,-0.063 0.495,0.2867 1,0.7768 l 0.92,0.8909 0.07,11.1075 c 0.05,8.6012 0.143,11.1324 0.399,11.2177 0.261,0.087 0.331,-2.2523 0.331,-11.1143 0,-12.4406 -0.09,-13.3049 -1.868,-17.13 -0.979,-2.1121 -2.912,-5.0271 -3.333,-5.0271 -0.663,0 -3.106,3.6537 -4.051,6.058 -0.308,0.7853 -0.676,2.3331 -0.817,3.4396 -0.353,2.7652 0,23.8914 0.388,23.7597 0.199,-0.066 0.329,-3.5504 0.421,-11.2316 z m -0.128,-12.633 c 0.263,-1.627 0.914,-3.8377 1.127,-3.8254 0.105,0.01 0.64,0.408 1.19,0.8932 l 0.998,0.8822 -0.998,0.8181 c -0.55,0.45 -1.334,1.1494 -1.743,1.5542 l -0.745,0.736 z m 3.046,0.066 c 0,-0.1819 0.184,-0.5619 0.397,-0.8444 0.368,-0.4861 0.389,-0.4684 0.389,0.3308 0,0.5741 -0.127,0.8443 -0.397,0.8443 -0.218,0 -0.393,-0.1488 -0.389,-0.3307 z m 3.642,-1.1817 c -1.042,-0.7954 -1.461,-1.2795 -1.352,-1.5621 0.127,-0.3311 0.2,-0.342 0.381,-0.057 0.155,0.2445 0.225,0.1393 0.227,-0.3422 0,-0.3824 0.182,-0.843 0.4,-1.0237 0.334,-0.2771 0.476,-0.1491 0.91,0.8199 0.405,0.9042 0.447,1.2311 0.2,1.5375 -0.244,0.3013 -0.243,0.3461 0,0.1986 0.353,-0.2117 0.958,0.7034 0.824,1.2458 -0.05,0.2103 -0.646,-0.094 -1.592,-0.8172 z m -4.268,-2.6104 -0.985,-0.6692 0.813,-1.5066 c 0.447,-0.8286 1.057,-1.8018 1.356,-2.1625 l 0.543,-0.6558 0.57,0.7714 c 0.313,0.4243 0.84,1.2185 1.171,1.7647 l 0.601,0.9932 -0.827,0.9417 c -0.455,0.518 -0.907,0.9417 -1.005,0.9417 -0.1,0 -0.133,-0.4662 -0.08,-1.036 0.05,-0.5697 -0.03,-1.2544 -0.187,-1.5213 -0.267,-0.4531 -0.298,-0.4443 -0.459,0.1313 -0.116,0.412 -0.322,0.5776 -0.622,0.4991 -0.412,-0.1075 -0.419,-0.028 -0.09,0.9385 0.2,0.5808 0.323,1.0971 0.272,1.1475 -0.05,0.05 -0.534,-0.2097 -1.076,-0.5777 z m 24.827,0.6832 v -36.1156 l -3.175,-2.1624 c -1.746,-1.1894 -3.264,-2.1716 -3.373,-2.1828 -0.109,-0.011 -0.199,17.1754 -0.199,38.1924 0,36.1692 0.02,38.2196 0.464,38.338 0.254,0.069 1.772,0.1073 3.373,0.086 l 2.91,-0.04 z m -120.517,25.0031 v -10.9802 h -2.228 c -1.225,0 -2.415,0.072 -2.646,0.1606 -0.372,0.1428 -0.418,1.3582 -0.418,10.9802 v 10.8196 h 2.646 2.646 z m 17.524,-8.2682 c 0.09,-18.9328 0.101,-19.2829 0.678,-21.3498 1.635,-5.8524 5.24,-10.2279 10.685,-12.9691 3.138,-1.5796 4.782,-1.9021 6.765,-1.3269 3.651,1.0586 7.6,3.6524 9.801,6.438 1.505,1.904 3.146,5.2383 3.809,7.7432 0.577,2.1754 0.589,2.5701 0.677,21.4646 l 0.09,19.2484 h 1.311 1.312 v -16.9994 c 0,-9.3498 -0.118,-18.0711 -0.257,-19.3808 -0.909,-8.5765 -4.846,-14.8177 -11.545,-18.3035 -4.239,-2.2056 -6.285,-2.6016 -9.346,-1.8084 -7.015,1.8178 -12.635,7.48 -15.021,15.1358 l -0.727,2.3303 -0.08,19.513 -0.08,19.513 h 0.923 0.923 z m 4.005,18.6531 c 0.09,-0.3274 0.161,-7.4116 0.163,-15.7427 v -15.1474 h 5.821 5.821 v 7.2761 7.276 h 0.755 0.755 l 0.184,-3.2975 c 0.1,-1.8136 0.165,-5.058 0.143,-7.2099 l -0.04,-3.9124 5.583,-0.071 5.584,-0.071 v 15.7625 15.7624 l 1.257,-0.081 1.256,-0.081 0.08,-16.9333 c 0.08,-17.6753 -0.04,-20.3925 -1.035,-23.9956 -0.888,-3.205 -2.182,-5.3709 -4.715,-7.8916 -2.35,-2.3396 -4.505,-3.6882 -7.387,-4.6236 -1.846,-0.5994 -2.88,-0.4389 -5.705,0.8851 -5.109,2.3942 -8.889,6.6597 -10.455,11.7972 -0.891,2.9268 -1.066,6.9061 -1.07,24.4238 v 16.4703 h 1.425 c 1.253,0 1.443,-0.071 1.584,-0.5953 z m 5.502,-32.4168 -5.644,-0.071 0.187,-2.0452 c 0.651,-7.1198 4.513,-13.0407 9.911,-15.1941 2.334,-0.931 3.807,-0.7969 6.54,0.5951 1.975,1.0062 2.551,1.4643 3.971,3.1611 3.047,3.6419 4.302,6.8494 4.39,11.22 l 0.05,2.406 h -6.879 c -3.784,0 -9.419,-0.032 -12.524,-0.072 z m 6.306,-2.9534 c 0,-1.6162 -0.06,-1.8547 -0.542,-2.0062 -0.71,-0.2253 -1.208,0.2175 -1.996,1.7733 -0.355,0.7004 -0.705,1.2734 -0.777,1.2734 -0.227,0 0.658,-1.9472 1.262,-2.7781 0.541,-0.7446 0.505,-0.7324 -0.585,0.1984 -0.639,0.5458 -1.259,0.9922 -1.378,0.9922 -0.435,0 -0.197,-0.4451 0.709,-1.3229 0.509,-0.4936 0.926,-1.0423 0.926,-1.2193 0,-0.3812 -1.572,-0.6863 -3.079,-0.5974 -0.768,0.045 -1.416,-0.1382 -2.285,-0.6475 -0.667,-0.3909 -1.271,-0.7108 -1.342,-0.7108 -0.298,0 -1.255,3.4744 -1.408,5.1109 l -0.165,1.7683 h 5.33 5.33 z m 5.292,1.5382 c 0,-0.1629 -0.414,-0.9666 -0.92,-1.786 -1.523,-2.4644 -1.329,-2.2989 -2.1,-1.7935 -0.619,0.4057 -0.684,0.6108 -0.684,2.1619 v 1.7137 h 1.852 c 1.19,0 1.852,-0.1059 1.852,-0.2961 z m 6.763,-0.8945 c -0.08,-0.6549 -0.218,-1.7562 -0.303,-2.4474 -0.09,-0.6913 -0.373,-1.7565 -0.64,-2.3673 l -0.486,-1.1104 -1.44,0.7796 c -1.316,0.713 -2.276,0.9674 -2.968,0.7864 -0.146,-0.038 -0.596,-0.055 -1.001,-0.038 -1.212,0.052 -1.199,0.7622 0.03,1.9358 1.316,1.2519 1.556,2.2312 0.285,1.1618 -0.859,-0.7228 -1.466,-0.9112 -1.141,-0.3543 0.106,0.1819 0.66,0.8963 1.231,1.5875 l 1.038,1.2568 h 2.77 2.769 z m -8.964,-4.4195 c 0.287,-0.371 0.326,-1.8433 0.05,-1.7331 -0.09,0.037 -0.392,-0.1252 -0.662,-0.3603 -1.204,-1.0489 -2.939,-0.7021 -3.303,0.66 -0.169,0.6347 -0.08,0.8884 0.557,1.5213 0.74,0.7404 0.745,1.0882 0,0.429 -0.314,-0.2798 -0.319,-0.2619 -0.03,0.1165 0.68,0.9027 2.457,0.5707 3.389,-0.6334 z m -2.122,0.4662 c -0.254,-0.6602 -0.208,-0.8719 0.09,-0.4124 0.207,0.3193 0.258,0.2775 0.261,-0.214 0,-0.3392 0.122,-0.5382 0.269,-0.4474 0.354,0.2191 0.333,0.4662 -0.09,1.0449 -0.331,0.4523 -0.366,0.4542 -0.529,0.029 z m -1.815,-0.6083 c -0.393,-0.4728 -0.564,-0.2323 -0.34,0.4755 0.141,0.4442 0.238,0.4986 0.406,0.2273 0.127,-0.2049 0.1,-0.5042 -0.07,-0.7028 z m -1.668,-0.5987 c -0.09,-0.1461 -0.54,-0.1993 -1,-0.1183 -1.239,0.2183 -1.219,0.3838 0.05,0.3838 0.681,0 1.054,-0.1039 0.954,-0.2655 z m 10.568,-0.1398 c 0.283,-0.2137 0.395,-0.3885 0.249,-0.3885 -0.145,0 -0.495,0.1748 -0.778,0.3885 -0.282,0.2136 -0.394,0.3884 -0.249,0.3884 0.146,0 0.496,-0.1748 0.778,-0.3884 z m -13.809,-0.034 c -0.181,-0.073 -0.479,-0.073 -0.661,0 -0.182,0.073 -0.03,0.1334 0.331,0.1334 0.364,0 0.512,-0.06 0.33,-0.1334 z m 13.428,-0.617 c 0.573,0 1.226,-0.2438 1.712,-0.6327 l 0.785,-0.6285 -0.727,-1.0238 c -0.401,-0.5631 -1.076,-1.4297 -1.502,-1.9256 l -0.773,-0.9018 -1.269,1.4006 c -1.846,2.0386 -2.07,2.5313 -1.525,3.3624 0.38,0.5812 0.573,0.6514 1.407,0.5134 0.531,-0.088 1.383,-0.1616 1.892,-0.164 z m -10.038,-0.6976 c 0.171,-0.464 -0.09,-0.8812 -1.491,-2.357 -1.651,-1.7435 -1.713,-1.7801 -2.218,-1.323 -0.286,0.2586 -0.958,1.1074 -1.495,1.8863 -1.429,2.0747 -0.927,2.4515 3.174,2.3864 1.605,-0.025 1.848,-0.096 2.03,-0.5927 z m 4.713,-1.1826 c -0.661,-0.4182 -0.85,-0.2468 -0.345,0.3114 0.321,0.355 0.534,0.4378 0.602,0.234 0.06,-0.1735 -0.06,-0.4189 -0.257,-0.5454 z m 1.436,-1.1172 c -0.08,-0.1279 -0.382,0.01 -0.673,0.2966 -0.311,0.3114 -0.446,0.6639 -0.327,0.8565 0.146,0.2366 0.333,0.1544 0.673,-0.2967 0.259,-0.3431 0.406,-0.7285 0.327,-0.8564 z m -5.957,0.2984 c -0.212,-0.3195 -0.554,-0.6335 -0.76,-0.6978 -0.206,-0.064 -0.08,0.1971 0.267,0.5808 0.781,0.8488 1.016,0.9047 0.493,0.117 z m 1.336,-0.6893 c -0.837,-0.8968 -0.845,-0.9221 -0.148,-0.4883 0.405,0.2516 0.851,0.3859 0.993,0.2985 0.141,-0.087 0.257,-1.2314 0.257,-2.5423 0,-2.6775 0.04,-2.6469 -2.117,-1.5408 -2.125,1.089 -2.111,1.0212 -0.678,3.1379 1.274,1.8816 1.916,2.4887 2.349,2.2212 0.125,-0.077 -0.17,-0.566 -0.656,-1.0862 z m 2.425,0.7409 c 0,-0.1455 -0.119,-0.2646 -0.265,-0.2646 -0.145,0 -0.265,0.1191 -0.265,0.2646 0,0.1455 0.12,0.2646 0.265,0.2646 0.146,0 0.265,-0.1191 0.265,-0.2646 z m 2.743,-1.9071 c 1.704,-1.9129 1.682,-2.0059 -0.759,-3.1617 -2.38,-1.1267 -2.353,-1.1472 -2.171,1.6548 0.122,1.8896 0.258,2.4849 0.634,2.7698 0.263,0.1995 0.558,0.3666 0.656,0.3712 0.1,0 0.836,-0.7307 1.64,-1.6341 z m 1.755,-0.7949 c 0,-0.4605 -0.504,-0.1603 -1.148,0.685 -0.375,0.4913 -0.598,0.9774 -0.495,1.0802 0.188,0.1878 1.643,-1.3756 1.643,-1.7652 z m -9.661,0.05 c -0.422,-0.8162 -0.444,-0.8243 -0.964,-0.3536 -0.53,0.4792 -0.528,0.4856 0.349,1.2685 0.716,0.6403 0.896,0.7062 0.964,0.3536 0.05,-0.2383 -0.111,-0.8091 -0.349,-1.2685 z m 5.163,40.0903 v -6.4822 h -0.794 -0.794 v 6.4822 6.4823 h 0.794 0.794 z m 10.449,-4.2211 c 0.108,-5.8869 0.11,-12.7033 0,-15.1474 l -0.19,-4.444 -4.43,0.078 -4.43,0.078 -0.173,3.9991 c -0.248,5.7285 -0.214,9.1498 0.09,9.3389 0.145,0.09 0.264,0.8709 0.264,1.7354 0,0.8715 -0.118,1.5719 -0.264,1.5719 -0.298,0 -0.384,13.022 -0.09,13.3173 0.1,0.097 2.166,0.1764 4.598,0.1764 h 4.421 z m 22.624,-0.057 c 0,-9.6465 -0.05,-10.8111 -0.439,-11.2453 -0.411,-0.4544 -0.378,-0.612 0.529,-2.5461 l 0.968,-2.0618 v -43.3076 -43.3076 l -3.605,-2.6728 c -1.982,-1.4701 -3.769,-2.736 -3.97,-2.8131 -0.31,-0.119 -0.363,8.8511 -0.351,59.2875 l 0.01,59.4277 h 3.427 3.427 z m 11.906,-0.071 c 0,-5.9577 -0.09,-10.8691 -0.199,-10.914 -0.109,-0.045 -2.49,-0.045 -5.291,4e-4 l -5.094,0.082 v 10.8319 10.8318 h 5.292 5.292 z m -45.328,-4.2985 c -0.08,-0.2111 -0.147,-0.1484 -0.16,0.1598 -0.01,0.2789 0.05,0.4352 0.139,0.3473 0.09,-0.088 0.1,-0.3161 0.02,-0.5071 z m -41.191,-8.8982 c 0,-0.1191 -0.183,-0.8335 -0.407,-1.5875 l -0.407,-1.371 h -3.273 -3.273 l -0.536,1.5875 -0.536,1.5875 h 4.216 c 2.319,0 4.216,-0.097 4.216,-0.2165 z m 6.35,-0.1332 c 0,-0.1924 -0.19,-0.9067 -0.422,-1.5875 l -0.421,-1.2378 h -2.357 c -1.49,0 -2.356,0.1036 -2.356,0.2817 0,0.1549 0.253,0.8693 0.562,1.5875 l 0.561,1.3058 h 2.217 c 1.661,0 2.216,-0.088 2.216,-0.3497 z m 79.591,0.1513 c -0.05,-0.1091 -0.327,-0.8235 -0.613,-1.5875 l -0.521,-1.3891 h -3.726 -3.726 l -0.445,1.4124 c -0.245,0.7767 -0.445,1.4911 -0.445,1.5875 0,0.096 2.153,0.1751 4.784,0.1751 2.632,0 4.743,-0.089 4.692,-0.1984 z m -86.735,-45.4274 v -40.8634 l -2.676,1.6969 c -1.472,0.9333 -2.888,1.764 -3.146,1.8461 -0.259,0.082 -0.513,0.3536 -0.565,0.6034 -0.05,0.2499 -0.06,17.8077 -0.02,39.0173 l 0.07,38.563 h 3.169 3.17 z m 6.284,40.4525 c 0.263,-0.081 0.331,-8.858 0.331,-42.73 0,-23.4455 -0.1,-42.5886 -0.215,-42.5401 -0.118,0.049 -1.309,0.7964 -2.646,1.6619 l -2.431,1.5737 v 41.0463 c 0,22.5754 0.08,41.1208 0.166,41.2118 0.162,0.1623 4.144,-0.023 4.795,-0.2236 z m 79.376,-38.7627 0.07,-39.0413 -2.845,-1.9513 c -1.565,-1.0732 -3.351,-2.3606 -3.97,-2.8609 l -1.124,-0.9096 v 41.9754 41.9754 l 3.902,-0.073 3.903,-0.073 z m -18.657,-63.6171 -0.195,-5.5562 h -0.662 -0.661 v 44.0531 44.0531 l 0.793,2.3813 0.794,2.3812 0.06,-40.8781 c 0.03,-22.483 -0.02,-43.3785 -0.133,-46.4344 z m -47.327,79.1535 c 3.784,-5.6876 9.563,-10.1279 15.695,-12.0606 1.191,-0.3753 2.174,-0.7718 2.183,-0.8809 0,-0.1092 0.02,-3.9489 0.02,-8.5328 v -8.3344 h -5.563 -5.563 l 0.07,-3.9026 0.07,-3.9026 5.483,-0.072 5.483,-0.072 0.07,-4.0295 0.07,-4.0296 4.168,-0.073 4.167,-0.073 v 4.1077 4.1078 h 5.821 5.82 v 3.9688 3.9687 h -5.793 -5.793 l -0.177,3.7703 c -0.1,2.0737 -0.14,5.9595 -0.09,8.6352 l 0.08,4.8648 1.371,0.3509 c 1.757,0.4491 5.136,2.1182 7.565,3.7359 2.333,1.5535 6.006,5.1534 7.704,7.5486 0.696,0.9823 1.314,1.786 1.374,1.786 0.06,0 0.109,-19.2888 0.109,-42.864 v -42.8639 l -23.614,0.068 -23.614,0.068 -0.06,45.376 -0.06,45.376 0.753,-1.9058 c 0.414,-1.0482 1.42,-2.9096 2.237,-4.1365 z m 19.723,-56.9268 c -1.609,-0.5168 -3.474,-2.1977 -4.319,-3.893 -0.528,-1.0585 -0.683,-1.7681 -0.681,-3.106 0,-4.1749 3.113,-7.1579 7.455,-7.1579 2.025,0 3.591,0.7479 5.114,2.4419 2.65,2.9474 2.508,6.7965 -0.363,9.8175 -1.893,1.9924 -4.65,2.7183 -7.206,1.8975 z m 1.083,-4.6319 v -2.1167 h -1.853 c -1.105,0 -1.852,0.1109 -1.852,0.2752 0,0.3302 0.911,2.0737 1.384,2.6474 0.476,0.5793 1.583,1.3108 1.983,1.3108 0.246,0 0.338,-0.5755 0.338,-2.1167 z m 4.055,1.0741 c 0.948,-1.0494 1.765,-2.3982 1.765,-2.913 0,-0.1675 -0.735,-0.2778 -1.852,-0.2778 h -1.852 v 2.1167 c 0,1.8967 0.05,2.1167 0.499,2.1167 0.274,0 0.922,-0.4692 1.44,-1.0426 z m -4.055,-6.7783 c 0,-1.1022 -0.08,-1.4228 -0.331,-1.2795 -1.025,0.5927 -1.829,1.2738 -2.323,1.9671 l -0.557,0.7833 h 1.605 1.606 z m 5.291,1.2145 c 0,-0.3608 -2.353,-2.3895 -2.772,-2.3895 -0.304,0 -0.403,0.3083 -0.403,1.261 v 1.261 l 1.588,0.037 c 0.873,0.02 1.587,-0.056 1.587,-0.169 z m -2.381,43.3835 v -9.7896 h 5.821 5.821 v -1.3891 -1.3891 h -5.755 -5.755 l -0.07,-4.1796 -0.07,-4.1796 -1.646,0.079 -1.647,0.079 -0.07,4.0013 -0.07,4.0014 -0.986,0.1629 c -0.542,0.09 -2.979,0.1642 -5.417,0.1658 h -4.432 v 1.323 1.3229 h 5.424 5.424 v 9.6132 c 0,5.2872 0.08,9.6925 0.177,9.7895 0.1,0.097 0.871,0.1764 1.72,0.1764 h 1.543 z m 85.724,-0.6098 c 0.2,-0.7417 0.244,-1.3594 0.106,-1.4829 -0.131,-0.1163 -1.726,-1.1614 -3.545,-2.3224 -6.181,-3.9451 -15.979,-10.3546 -26.581,-17.3882 -7.327,-4.861 -10.637,-6.9169 -10.778,-6.695 -0.247,0.3891 -0.243,2.5306 0,3.1454 0.186,0.4608 15.407,10.4872 32.855,21.6428 1.965,1.256 4.402,2.8409 5.415,3.5219 1.014,0.681 1.919,1.1507 2.012,1.0439 0.09,-0.1069 0.322,-0.7664 0.51,-1.4655 z m -177.522,0.3391 c 2.901,-1.48 35.012,-22.714 38.915,-25.7335 0.313,-0.2421 0.46,-0.891 0.534,-2.3683 l 0.103,-2.0349 -0.666,0.4272 c -0.366,0.235 -2.69,1.8188 -5.164,3.5196 -6.073,4.1754 -16.11,10.8451 -27.065,17.9864 l -9.074,5.9145 0.178,0.8168 c 0.281,1.2958 0.603,2.0074 0.908,2.0074 0.155,0 0.753,-0.2408 1.331,-0.5352 z m 178.991,-4.2855 c 0.167,-0.7607 0.08,-0.9443 -0.81,-1.7136 -0.548,-0.4739 -3.331,-2.3763 -6.185,-4.2276 -2.854,-1.8513 -11.38,-7.4675 -18.947,-12.4805 -14.797,-9.8024 -16.206,-10.7002 -16.347,-10.414 -0.05,0.1026 -0.124,0.633 -0.161,1.1786 l -0.07,0.9919 12.919,8.5432 c 7.105,4.6988 14.644,9.6698 16.753,11.0467 2.109,1.3768 5.681,3.7225 7.938,5.2125 2.256,1.4901 4.242,2.7105 4.412,2.712 0.17,0 0.394,-0.3806 0.497,-0.8492 z m -174.852,-4.3425 c 9.492,-6.139 31.353,-20.689 33.745,-22.4594 1.763,-1.3056 2.092,-1.8879 1.549,-2.7453 -0.288,-0.4548 0.09,-0.6829 -10.077,6.0234 -4.293,2.8306 -9.472,6.2397 -11.509,7.5757 -2.037,1.336 -7.098,4.6668 -11.245,7.4018 -4.147,2.7351 -8.285,5.4434 -9.194,6.0186 -0.91,0.5752 -1.654,1.1365 -1.654,1.2473 0,0.2952 0.566,1.8678 0.672,1.8678 0.05,0 3.521,-2.2185 7.713,-4.9299 z m 178.675,1.821 c 0,-0.6503 -0.478,-1.0366 -4.487,-3.638 -9.203,-5.9713 -33.341,-21.8774 -36.765,-24.2268 -3.309,-2.2706 -3.573,-2.4027 -3.902,-1.9521 -0.48,0.6554 -0.444,1.1765 0.109,1.6238 0.443,0.3575 14.942,10.0215 19.646,13.0939 1.237,0.8079 5.285,3.4678 8.995,5.9108 11.533,7.5927 15.268,9.8954 16.074,9.91 0.186,0 0.33,-0.3121 0.33,-0.7216 z m -188.372,-0.3362 c 1.475,-0.7526 8.748,-5.4563 24.066,-15.5653 3.42,-2.2567 9.016,-5.9409 12.436,-8.187 7.024,-4.6132 7.404,-4.9097 7.215,-5.6293 -0.268,-1.0269 0.513,-1.4959 -19.386,11.6445 -8.076,5.3333 -16.859,11.1127 -19.516,12.8429 -5.816,3.7871 -6.513,4.3395 -6.271,4.9659 0.222,0.5738 0.188,0.5755 1.456,-0.072 z m 51.873,-28.5121 c 11.951,-7.5904 16.643,-10.7494 16.643,-11.2044 0,-0.3034 -0.749,0.1319 -4.63,2.6909 -1.455,0.9595 -4.908,3.2125 -7.673,5.0068 -7.678,4.9829 -8.301,5.4081 -8.449,5.7705 -0.18,0.4406 0.05,0.3119 4.109,-2.2638 z m 87.142,1.2368 c -0.575,-0.5979 -3.843,-3.0871 -7.263,-5.5317 -3.42,-2.4446 -6.864,-4.9312 -7.653,-5.526 -1.512,-1.14 -2.276,-1.2588 -0.936,-0.1457 1.608,1.3352 5.669,4.3618 9.515,7.09 2.183,1.5486 4.623,3.3441 5.424,3.99 1.835,1.4812 2.277,1.5409 0.913,0.1234 z m -90.822,-1.4522 c 0.45,-0.2324 3.807,-2.4093 7.462,-4.8374 3.654,-2.4281 8.043,-5.2943 9.753,-6.3694 l 3.108,-1.9546 v -2.7644 -2.7644 l -0.957,0.7303 c -0.884,0.6742 -3.529,2.4835 -16.722,11.4393 -2.666,1.8097 -4.795,3.4276 -4.731,3.5954 0.06,0.1678 0.339,0.9888 0.613,1.8245 0.274,0.8357 0.534,1.5203 0.578,1.5214 0.04,0 0.447,-0.1883 0.896,-0.4207 z m 92.783,-1.5853 c 0.311,-0.8133 0.565,-1.6389 0.565,-1.8347 0,-0.4136 -1.59,-1.5726 -10.34,-7.5345 -5.947,-4.0525 -8.286,-5.5562 -8.643,-5.5562 -0.35,0 0.199,3.7954 0.615,4.2557 0.244,0.2691 2.728,2.0888 5.52,4.0439 2.793,1.9551 6.492,4.5785 8.221,5.8297 1.729,1.2511 3.223,2.2748 3.319,2.2748 0.1,0 0.431,-0.6654 0.743,-1.4787 z m -82.646,-12.0865 c 3.056,-2.047 6.598,-4.4852 7.871,-5.4182 1.995,-1.4615 2.315,-1.8034 2.315,-2.469 0,-0.4249 -0.105,-0.7726 -0.235,-0.7726 -0.129,0 -3.195,1.9574 -6.813,4.3498 -3.618,2.3924 -8.943,5.875 -11.835,7.7391 -2.891,1.8641 -5.311,3.5273 -5.377,3.6961 -0.07,0.1688 0.07,0.6685 0.296,1.1104 l 0.416,0.8036 3.903,-2.6587 c 2.146,-1.4623 6.403,-4.3336 9.459,-6.3805 z m 85.272,7.3516 c -0.05,-0.3533 -1.746,-1.6638 -5.103,-3.9462 -2.765,-1.8795 -7.154,-4.9015 -9.754,-6.7156 -2.6,-1.814 -4.951,-3.357 -5.225,-3.4287 -0.405,-0.1058 -0.499,0.015 -0.499,0.6381 0,1.0286 0.621,1.5229 9.921,7.8887 4.221,2.8886 8.209,5.6434 8.864,6.1218 1.095,0.7997 1.218,0.8336 1.531,0.4203 0.188,-0.2472 0.307,-0.6875 0.265,-0.9784 z m -21.375,-22.2291 v -0.926 h -26.723 -26.723 v 0.926 0.9261 h 26.723 26.723 z m 1.313,-3.0253 c 0.151,-0.2815 0.274,-0.8172 0.274,-1.1906 v -0.6789 h -28.575 -28.575 v 0.6512 c 0,0.3581 0.261,0.8939 0.579,1.1906 0.575,0.5358 0.769,0.5395 28.301,0.5395 27.138,0 27.728,-0.011 27.996,-0.5118 z m -4.753,-6.1028 v -1.3229 h -22.291 c -12.26,0 -23.095,0.078 -24.077,0.1705 l -1.786,0.1687 v 1.1524 1.1523 h 24.077 24.077 z m -42.472,-3.7703 c 0.08,-0.3274 0.171,-6.5484 0.213,-13.8245 0.08,-13.1446 0.08,-13.24 0.699,-14.9194 0.669,-1.8155 2.492,-4.682 3.283,-5.1605 0.409,-0.248 0.643,-0.1142 1.527,0.8721 1.37,1.5296 2.477,3.907 2.994,6.4305 0.347,1.6895 0.419,4.1747 0.419,14.4859 v 12.4466 h 1.28 1.28 l 0.183,-17.3963 c 0.14,-13.3139 0.27,-17.8102 0.553,-19.1598 0.667,-3.1726 2.855,-6.8473 5.097,-8.5592 1.127,-0.8604 1.226,-0.8872 1.927,-0.5245 1.658,0.8574 4.114,4.5492 5.192,7.8044 0.441,1.3325 0.493,2.9837 0.621,19.5792 l 0.139,18.1239 1.124,0.081 1.125,0.081 v -12.5167 c 0,-6.8843 0.123,-13.3502 0.267,-14.3689 0.329,-2.3206 1.488,-4.7351 3.132,-6.5231 0.972,-1.0565 1.353,-1.3112 1.683,-1.1254 0.637,0.3579 2.288,2.6124 2.859,3.9033 1.269,2.8694 1.314,3.4604 1.314,17.4268 v 13.1736 h 2.514 2.513 l 0.05,-16.2719 c 0.03,-8.9495 0.06,-16.5336 0.07,-16.8535 0.01,-0.4613 -0.884,-1.2081 -4.346,-3.6076 -6.277,-4.3504 -14.612,-10.2307 -17.023,-12.0085 -1.14,-0.8411 -2.189,-1.5293 -2.332,-1.5293 -0.142,0 -2.483,1.5923 -5.202,3.5384 -2.719,1.9461 -7.921,5.6234 -11.559,8.1717 l -6.614,4.6334 -0.07,16.7652 c -0.04,9.2209 -0.01,16.9141 0.06,17.096 0.09,0.2307 0.847,0.3307 2.511,0.3307 2.256,0 2.392,-0.032 2.52,-0.5953 z m 2.785,-11.052 v -11.3828 l 0.696,-1.0527 c 0.817,-1.2344 1.485,-1.3394 2.142,-0.337 0.426,0.6494 0.481,1.7939 0.601,12.3693 0.13,11.4331 0.143,11.6536 0.662,11.6536 0.522,0 0.529,-0.1764 0.529,-12.9646 0,-11.7767 -0.04,-13.11 -0.481,-14.552 -0.554,-1.8252 -2.018,-4.4144 -2.421,-4.2809 -0.348,0.1153 -1.584,2.559 -2.165,4.2809 -0.389,1.1522 -0.46,3.0208 -0.552,14.4859 -0.105,13.1624 -0.105,13.163 0.442,13.163 0.544,0 0.547,-0.054 0.547,-11.3827 z m 0,-12.6347 c 0,-0.4522 0.117,-0.8947 0.26,-0.9832 0.163,-0.1007 0.199,0.1664 0.09,0.7119 -0.223,1.1698 -0.355,1.2708 -0.355,0.2713 z m 3.196,-0.9205 c -0.01,-0.2552 -0.259,-0.9083 -0.55,-1.4513 -0.291,-0.543 -0.53,-1.1607 -0.53,-1.3725 0,-0.5635 -0.774,0.5172 -0.785,1.0956 0,0.4524 -0.99,1.1667 -1.248,0.9084 -0.271,-0.2706 1.518,-4.6694 1.899,-4.6694 0.178,0 1.088,2.0796 1.463,3.3421 0.234,0.789 0.247,1.3044 0.05,1.8521 -0.168,0.4616 -0.285,0.5771 -0.297,0.295 z m 8.801,22.7551 c 0.09,-1.2005 0.171,-9.0888 0.172,-17.5295 0,-14.3103 0.04,-15.466 0.507,-17.114 0.592,-2.0688 2.325,-5.493 2.891,-5.71 0.546,-0.2096 1.394,0.9266 2.887,3.8697 l 1.257,2.4762 0.08,18.0952 c 0.07,17.7722 0.08,18.0952 0.595,18.0952 0.51,0 0.519,-0.289 0.514,-17.1318 0,-13.8294 -0.08,-17.4757 -0.383,-18.9163 -0.435,-2.0566 -2.116,-5.4498 -3.497,-7.0643 l -0.951,-1.1109 -1.146,1.1246 c -1.245,1.2217 -2.684,3.7543 -3.442,6.0571 -0.439,1.3341 -0.486,2.936 -0.568,19.2484 -0.09,17.3478 -0.08,17.7932 0.414,17.7932 0.441,0 0.525,-0.2727 0.673,-2.1828 z m 15.568,-9.1281 c 0.08,-11.2109 0.09,-11.321 0.691,-12.4483 0.75,-1.4042 1.248,-1.6231 1.994,-0.8766 0.569,0.5684 0.574,0.6686 0.648,12.4721 0.07,11.638 0.09,11.8991 0.595,11.8991 0.508,0 0.523,-0.2475 0.587,-9.7234 0.114,-16.6585 0.1,-17.5806 -0.303,-18.587 -0.587,-1.4681 -1.901,-3.4396 -2.293,-3.4396 -0.418,0 -1.55,1.8454 -2.232,3.6394 -0.433,1.1415 -0.482,2.468 -0.533,14.6169 -0.03,7.3488 -0.04,13.4507 -0.03,13.5599 0.02,0.1091 0.2,0.1984 0.409,0.1984 0.322,0 0.391,-1.7081 0.463,-11.3109 z m -0.03,-12.9205 c 0.01,-0.3082 0.08,-0.3709 0.16,-0.1599 0.08,0.191 0.07,0.4192 -0.02,0.5072 -0.09,0.088 -0.15,-0.068 -0.139,-0.3473 z m 0.105,-2.4142 c 0.101,-0.5396 0.538,-1.76 0.972,-2.712 0.755,-1.6568 0.806,-1.7083 1.197,-1.2018 0.765,0.9897 1.669,3.1721 1.672,4.0349 0,1.3548 -0.667,1.0548 -1.184,-0.5291 -0.708,-2.1728 -0.838,-2.2961 -1.167,-1.11 -0.378,1.3633 -0.38,1.3563 0.236,1.5174 0.292,0.076 0.528,0.2983 0.526,0.4938 0,0.29 -0.05,0.288 -0.236,-0.01 -0.194,-0.3066 -0.332,-0.2959 -0.849,0.066 -1.04,0.7283 -1.377,0.5695 -1.167,-0.549 z m -11.223,8.7201 c 0,-9.7135 0.1,-18.1099 0.199,-18.6586 0.125,-0.6806 0.419,-1.1525 0.927,-1.4849 l 0.745,-0.4872 -0.822,-0.1643 c -0.476,-0.095 -1.05,-0.027 -1.365,0.162 -0.468,0.2813 -0.599,0.2442 -0.947,-0.2691 -0.429,-0.6319 -0.996,-0.8214 -0.792,-0.2646 0.07,0.1819 -0.182,0.6569 -0.554,1.0556 -0.646,0.694 -0.641,1.4257 0,0.7789 0.583,-0.5829 1.192,-0.3539 1.365,0.5137 0.09,0.4548 0.166,8.8487 0.166,18.6531 0,17.6499 0,17.8263 0.529,17.8263 0.523,0 0.529,-0.1814 0.544,-17.6609 z m -21.976,-19.7419 c 3.685,-2.4818 19.522,-13.5198 20.412,-14.2263 l 0.699,-0.5553 4.592,3.288 c 2.526,1.8084 7.45,5.2568 10.942,7.6631 9.574,6.5963 10.187,6.9202 10.187,5.3858 0,-0.5126 -0.735,-1.1234 -4.035,-3.3544 -2.219,-1.5002 -6.714,-4.5427 -9.988,-6.7611 -8.016,-5.431 -10.575,-7.0221 -11.46,-7.1251 -0.882,-0.1027 -0.1,-0.5897 -14.564,9.0367 -9.653,6.4239 -11.039,7.4286 -10.909,7.9116 0.08,0.3044 0.15,0.7064 0.152,0.8934 0,0.4533 0.486,0.1921 3.972,-2.1564 z m 23.724,0.03 c -0.07,-0.1819 -0.134,-0.033 -0.134,0.3308 0,0.3638 0.06,0.5126 0.134,0.3307 0.07,-0.1819 0.07,-0.4796 0,-0.6615 z m 24.175,-1.2736 c 0.388,-0.7243 0.221,-0.9041 -2.882,-3.1131 -4.776,-3.4003 -23.317,-15.92 -23.577,-15.92 -0.141,0 -4.518,2.8777 -9.724,6.395 -13.562,9.1613 -16.743,11.3664 -16.743,11.606 0,0.1166 0.07,0.3981 0.159,0.6256 0.127,0.3305 0.269,0.3548 0.706,0.1208 0.887,-0.4745 20.765,-13.6484 23.132,-15.3301 l 2.169,-1.5408 7.224,4.8404 c 3.973,2.6622 9.898,6.6453 13.165,8.8513 3.268,2.206 5.973,4.0109 6.01,4.0109 0.04,0 0.2,-0.2457 0.361,-0.546 z m -24.88,-0.4967 c 0,-0.1369 -0.119,-0.3225 -0.264,-0.4125 -0.146,-0.09 -0.265,0.022 -0.265,0.249 0,0.2269 0.119,0.4125 0.265,0.4125 0.145,0 0.264,-0.112 0.264,-0.249 z m 17.072,-15.0219 c -0.819,-3.0244 -2.309,-8.4159 -3.311,-11.9812 -1.003,-3.5653 -2.359,-8.4468 -3.014,-10.8479 -2.186,-8.0056 -6.733,-24.4196 -7.99,-28.8396 -0.683,-2.4011 -1.482,-5.2288 -1.777,-6.2838 -0.294,-1.0551 -0.612,-1.9183 -0.707,-1.9183 -0.201,0 0.109,3.154 0.504,5.1177 0.151,0.7505 0.522,2.8529 0.825,4.6719 0.304,1.819 0.852,4.8551 1.22,6.7469 0.368,1.8918 1.301,7.071 2.074,11.5094 1.782,10.2306 4.705,26.0444 5.501,29.7598 l 0.61,2.8504 3.691,2.6082 c 2.03,1.4344 3.729,2.495 3.776,2.3568 0.05,-0.1383 -0.584,-2.7259 -1.402,-5.7503 z m -37.286,5.0107 c 0.744,-0.53 5.85,-3.8467 6.367,-4.1356 0.118,-0.066 2.66,-11.3596 4.293,-19.074 2.136,-10.0897 4.229,-21.1646 5.326,-28.1781 0.421,-2.6922 0.951,-5.9664 1.176,-7.2761 0.582,-3.373 0.877,-6.0011 0.645,-5.761 -0.349,0.3615 -6.632,21.0367 -10.556,34.7329 -0.896,3.1287 -2.268,7.8317 -3.047,10.451 -2.429,8.1614 -5.686,19.4588 -5.686,19.7234 0,0.4195 0.398,0.2902 1.482,-0.4825 z m 28.802,-7.6002 c -0.313,-1.5837 -2.066,-11.3033 -5.441,-30.1615 -0.443,-2.4738 -1.388,-7.6152 -2.1,-11.4253 -0.712,-3.8101 -1.433,-8.007 -1.602,-9.3266 -0.169,-1.3195 -0.385,-2.3991 -0.479,-2.3991 -0.09,0 -0.628,2.9468 -1.185,6.5484 -2.182,14.1097 -3.679,21.9587 -8.064,42.2672 -0.722,3.347 -1.281,6.118 -1.241,6.1578 0.04,0.04 1.726,-1.0557 3.747,-2.4345 2.022,-1.3788 4.123,-2.8093 4.668,-3.1788 0.778,-0.5267 0.993,-0.8437 0.993,-1.468 0,-0.7084 -0.09,-0.7963 -0.794,-0.7963 -0.944,0 -1.112,-0.7118 -0.199,-0.8415 0.43,-0.061 0.619,-0.2911 0.681,-0.8279 0.07,-0.6335 0.19,-0.7312 0.794,-0.6614 0.533,0.062 0.704,0.2242 0.689,0.6566 -0.01,0.4472 0.177,0.6113 0.86,0.7396 1.227,0.2302 1.179,0.9346 -0.06,0.9346 -0.904,0 -0.939,0.035 -0.86,0.8599 0.08,0.7956 0.447,1.1026 4.949,4.1078 2.676,1.7864 4.899,3.2147 4.94,3.1741 0.04,-0.041 -0.09,-0.9069 -0.292,-1.9251 z m -9.247,-67.6662 c 0.1,-1.055 0.138,-3.3139 0.09,-5.0198 l -0.09,-3.1016 3.172,-0.073 c 2.776,-0.064 3.182,-0.1312 3.26,-0.5364 0.08,-0.4146 -0.173,-0.463 -2.411,-0.463 -1.375,0 -2.872,-0.075 -3.327,-0.1654 l -0.827,-0.1654 v -3.5388 c 0,-2.9692 -0.06,-3.5388 -0.396,-3.5388 -0.323,0 -0.398,0.4347 -0.4,2.3151 0,1.2733 -0.08,2.9402 -0.169,3.7042 l -0.167,1.3891 h -3.402 c -3.227,0 -3.403,0.027 -3.403,0.5291 0,0.5026 0.176,0.5292 3.506,0.5293 h 3.505 l 0.03,1.5213 c 0.01,0.8367 0.04,3.0989 0.07,5.027 0.03,2.827 0.112,3.5058 0.414,3.5058 0.272,0 0.424,-0.5256 0.554,-1.9183 z" id="path14" /></g></svg>