<?xml version="1.0" standalone="no"?>
<!DOCTYPE svg PUBLIC "-//W3C//DTD SVG 20010904//EN"
 "http://www.w3.org/TR/2001/REC-SVG-20010904/DTD/svg10.dtd">
<svg version="1.0" xmlns="http://www.w3.org/2000/svg"
 width="612.000000pt" height="407.000000pt" viewBox="0 0 612.000000 407.000000"
 preserveAspectRatio="xMidYMid meet">

<g transform="translate(0.000000,407.000000) scale(0.100000,-0.100000)"
fill="#000000" stroke="none">
<path d="M2630 3750 c-270 -25 -493 -66 -593 -109 -54 -23 -107 -68 -107 -90
0 -21 73 -125 207 -294 135 -170 554 -682 657 -802 47 -55 107 -131 133 -169
l48 -69 0 -656 c0 -734 5 -683 -73 -753 -29 -26 -55 -39 -94 -46 -29 -5 -96
-17 -148 -27 -221 -39 -360 -115 -360 -196 0 -36 49 -93 104 -121 293 -149
1019 -149 1312 0 86 44 125 118 89 170 -52 73 -245 143 -462 167 -80 9 -143
48 -175 107 l-23 43 0 656 0 657 47 68 c26 38 96 125 154 194 59 69 204 244
323 390 410 501 524 651 519 684 -11 73 -216 140 -558 182 -156 19 -839 28
-1000 14z m875 -31 c214 -17 411 -50 530 -89 167 -55 168 -112 3 -169 -49 -17
-58 -17 -88 -5 -51 22 -260 61 -400 76 -170 18 -824 18 -985 0 -142 -16 -286
-43 -370 -70 -59 -18 -63 -18 -114 -1 -29 10 -68 28 -87 40 -158 98 256 209
866 233 129 5 499 -4 645 -15z m15 -199 c138 -13 320 -44 386 -67 66 -22 39
-28 -39 -9 -34 8 -82 18 -107 21 -44 5 -44 5 -10 -6 19 -5 52 -15 73 -20 20
-5 37 -13 37 -18 0 -23 -538 -71 -802 -71 -87 0 -89 1 -211 60 -68 33 -129 60
-136 60 -7 0 -9 5 -6 10 4 6 -6 10 -22 10 -16 0 -38 7 -49 15 -18 14 -17 14
16 16 19 1 87 5 150 9 144 10 568 4 720 -10z m-990 -19 c0 -12 -53 -21 -119
-20 l-56 2 70 12 c89 16 105 17 105 6z m57 -7 c-3 -3 -12 -4 -19 -1 -8 3 -5 6
6 6 11 1 17 -2 13 -5z m53 -25 c0 -6 -13 -30 -30 -54 -29 -42 -31 -43 -72 -38
-24 3 -45 7 -47 9 -1 1 7 21 20 43 17 31 29 41 53 44 61 8 76 7 76 -4z m-140
-14 c0 -4 -7 -19 -15 -35 -12 -24 -22 -30 -47 -30 -44 0 -160 21 -153 28 5 6
168 40 198 41 9 1 17 -1 17 -4z m311 -50 l94 -45 -143 4 c-79 2 -146 7 -149
10 -7 7 24 56 46 73 21 17 40 12 152 -42z m1267 23 c-17 -25 -39 -30 -45 -11
-3 8 27 26 56 32 2 1 -3 -9 -11 -21z m-53 -28 c28 -31 5 -43 -27 -15 -26 22
-27 35 -3 35 7 0 20 -9 30 -20z m-1682 -26 c59 -9 107 -20 107 -24 0 -4 -7
-24 -15 -43 l-15 -36 -38 13 c-58 21 -154 71 -182 96 l-25 21 30 -4 c17 -3 78
-13 138 -23z m1617 -25 c6 -10 10 -22 10 -27 0 -22 -244 -73 -445 -91 -92 -8
-102 -8 -121 10 -27 25 -47 24 -136 -6 -56 -19 -94 -25 -162 -25 -80 0 -87 2
-81 18 14 32 17 70 6 76 -32 20 2 26 155 26 185 0 467 22 619 49 88 15 103 15
123 3 13 -8 27 -23 32 -33z m-1390 -11 c0 -7 -9 -32 -19 -55 l-19 -41 -42 10
c-50 13 -57 26 -35 67 14 28 20 31 65 31 34 0 50 -4 50 -12z m295 -8 c102 0
118 -9 87 -47 -38 -48 -60 -97 -82 -183 -23 -92 -49 -151 -50 -115 -1 56 31
197 55 244 26 52 28 70 6 56 -24 -15 -52 -90 -67 -182 -20 -117 -34 -141 -34
-56 0 43 -5 67 -18 82 l-17 22 -48 -21 -48 -21 -46 22 -46 22 -34 -39 c-42
-50 -45 -24 -6 46 24 43 33 50 73 58 38 8 40 10 14 11 -17 0 -33 4 -36 7 -3 3
2 28 10 56 l17 51 95 -7 c52 -3 131 -6 175 -6z m1095 -45 c0 -14 -98 -58 -166
-75 -79 -19 -338 -45 -355 -34 -5 3 -9 12 -9 20 0 10 12 14 39 14 64 0 331 39
406 59 79 22 85 23 85 16z m-960 -16 c0 -16 -102 -200 -108 -194 -8 8 48 153
70 180 21 26 38 33 38 14z m325 -39 c-3 -5 -16 -10 -28 -10 -18 0 -19 2 -7 10
20 13 43 13 35 0z m-815 -30 c0 -6 -9 -28 -20 -50 -11 -22 -20 -46 -20 -55 0
-19 -13 -19 -50 0 -20 11 -30 23 -30 39 0 28 17 44 67 62 47 16 53 17 53 4z
m630 -7 c0 -5 -41 -33 -91 -63 -51 -30 -98 -61 -105 -68 -10 -10 -6 -31 23
-115 19 -56 54 -158 78 -227 43 -123 44 -125 73 -124 17 1 103 31 193 68 89
36 164 65 165 63 1 -1 -44 -63 -102 -137 -70 -91 -114 -140 -136 -150 -24 -10
-73 -14 -173 -15 -175 0 -226 14 -280 81 -21 25 -35 47 -33 49 2 2 24 -3 48
-12 54 -19 248 -29 305 -15 37 9 34 10 -40 11 -197 4 -381 69 -424 150 -9 16
-6 16 47 -2 40 -14 91 -20 172 -23 112 -3 113 -3 34 6 -45 5 -101 14 -125 20
-56 15 -151 65 -177 93 -22 25 -174 279 -169 283 2 2 54 -19 115 -47 148 -66
248 -101 275 -97 22 3 52 48 141 211 l37 67 74 0 c41 0 75 -3 75 -7z m120 -1
c0 -19 -272 -168 -289 -158 -18 12 -13 20 32 48 133 84 257 137 257 110z m148
-17 c17 -37 16 -43 -21 -89 -18 -23 -44 -56 -57 -75 -21 -30 -21 -33 -4 -27
35 11 58 -21 43 -61 -10 -27 -11 -27 34 -8 46 19 63 12 88 -36 24 -48 30 -49
23 -6 -5 30 -4 29 15 -12 12 -23 19 -47 16 -51 -3 -5 -24 -11 -47 -15 -75 -13
-318 -101 -318 -116 0 -16 26 -10 102 25 80 37 195 72 204 63 3 -3 -19 -13
-48 -22 -29 -10 -98 -40 -154 -66 -55 -27 -110 -49 -121 -49 -23 0 -24 3 -80
170 -34 103 -43 77 -13 -40 23 -91 20 -124 -4 -39 -8 30 -29 102 -45 162 -17
59 -31 111 -31 116 0 5 47 34 105 65 58 30 131 73 162 95 73 50 133 56 151 16z
m422 -11 c0 -3 -14 -24 -31 -45 -32 -41 -79 -60 -182 -74 -79 -11 -48 -15 39
-6 43 5 80 9 81 8 1 -2 -154 -196 -172 -215 -3 -3 -115 309 -115 320 0 4 71 9
158 11 86 1 172 4 190 5 17 1 32 -1 32 -4z m-1249 -114 l51 -20 33 20 c29 18
65 27 65 16 0 -2 3 -11 6 -20 4 -10 -2 -19 -17 -26 -13 -5 -31 -15 -40 -22
-13 -9 -31 -4 -93 25 -71 34 -90 47 -66 47 5 0 32 -9 61 -20z m509 -820 c13
-8 15 -94 18 -654 2 -636 2 -646 -18 -666 -24 -24 -30 -24 -56 -6 -18 14 -19
33 -19 666 0 567 2 652 15 660 19 12 41 12 60 0z m10 -1406 c54 6 57 5 68 -19
16 -36 15 -81 -3 -99 -8 -8 -15 -17 -15 -20 0 -12 67 18 86 39 12 13 24 22 27
19 3 -3 49 -12 103 -20 268 -39 423 -110 400 -182 -21 -65 -234 -136 -526
-173 -156 -20 -457 -16 -572 9 -162 34 -298 112 -298 170 0 44 67 95 175 132
83 29 111 25 45 -6 -114 -53 -146 -99 -99 -142 22 -22 129 -57 199 -67 44 -6
44 -5 -25 25 -120 52 -143 97 -72 141 38 23 47 24 47 5 0 -31 98 -82 190 -101
32 -6 30 -3 -25 30 -69 43 -105 73 -105 91 0 15 42 31 101 38 40 4 49 2 69
-19 24 -26 60 -40 125 -49 38 -5 39 -5 10 6 -75 27 -96 89 -55 168 19 38 20
38 57 28 20 -5 62 -7 93 -4z"/>
<path d="M2793 3493 c26 -2 68 -2 95 0 26 2 4 3 -48 3 -52 0 -74 -1 -47 -3z"/>
<path d="M3678 3473 c6 -2 18 -2 25 0 6 3 1 5 -13 5 -14 0 -19 -2 -12 -5z"/>
<path d="M3158 2543 c7 -3 16 -2 19 1 4 3 -2 6 -13 5 -11 0 -14 -3 -6 -6z"/>
</g>
</svg>
