<?xml version="1.0" standalone="no"?>
<!DOCTYPE svg PUBLIC "-//W3C//DTD SVG 20010904//EN"
 "http://www.w3.org/TR/2001/REC-SVG-20010904/DTD/svg10.dtd">
<svg version="1.0" xmlns="http://www.w3.org/2000/svg"
 width="249.000000pt" height="266.000000pt" viewBox="0 0 249.000000 266.000000"
 preserveAspectRatio="xMidYMid meet">
<metadata>
Created by potrace 1.10, written by Peter Selinger 2001-2011
</metadata>
<g transform="translate(0.000000,266.000000) scale(0.100000,-0.100000)"
fill="#000000" stroke="none">
<path d="M1236 2483 c-12 -94 -26 -279 -26 -350 l0 -73 -35 0 c-44 0 -81 -18
-119 -59 -17 -17 -40 -31 -52 -31 -72 0 -279 -81 -342 -135 -34 -28 -35 -28
-51 33 -11 39 -31 58 -31 29 0 -23 -77 -135 -102 -148 -13 -7 -36 -16 -53 -20
-23 -5 -25 -7 -8 -8 12 -1 34 -6 48 -11 l27 -10 -47 -52 c-171 -190 -243 -487
-186 -765 23 -111 58 -193 127 -298 129 -197 313 -335 544 -410 70 -23 108
-29 215 -33 151 -5 265 12 386 59 78 30 219 118 276 172 37 35 44 32 52 -20
l6 -38 27 55 c15 31 40 67 55 82 34 31 101 68 125 68 33 0 18 15 -30 30 -57
18 -57 21 -9 145 57 144 70 232 65 414 -5 134 -9 167 -32 234 -93 276 -292
483 -559 583 -56 21 -104 43 -106 48 -2 6 -18 25 -35 42 -24 24 -43 32 -85 37
-29 4 -55 8 -56 9 -1 2 1 39 6 83 4 44 12 136 19 205 6 69 13 137 16 153 4 20
2 27 -9 27 -10 0 -17 -15 -21 -47z m121 -476 c15 -14 25 -29 22 -32 -3 -3 -32
0 -65 6 -34 7 -101 9 -158 5 l-100 -5 21 20 c29 29 74 39 171 35 75 -2 86 -5
109 -29z m-22 -49 c1 -2 5 -18 8 -35 l6 -32 -112 6 c-62 3 -113 6 -113 7 -1 1
1 16 4 35 l5 34 100 -6 c55 -4 101 -8 102 -9z m-229 -14 c-3 -9 -6 -21 -6 -28
0 -9 -25 -15 -77 -19 -43 -3 -93 -9 -110 -13 -35 -7 -41 1 -20 29 13 18 117
44 181 46 31 1 37 -2 32 -15z m345 -14 c38 -12 69 -25 69 -31 0 -6 5 -7 10 -4
12 8 127 -53 185 -98 22 -17 41 -32 43 -33 6 -4 33 -116 29 -120 -2 -2 -49 8
-103 22 l-100 26 -15 69 c-12 55 -13 69 -3 65 30 -11 96 -27 100 -23 2 2 -25
14 -61 26 -43 15 -65 29 -66 40 -1 14 -2 14 -6 0 -3 -13 -11 -14 -81 0 -42 8
-78 15 -78 16 -1 0 -5 15 -9 33 -8 39 -6 39 86 12z m-585 -37 c-4 -12 -31 -28
-72 -43 -69 -26 -67 -37 4 -21 23 5 42 7 42 6 0 -2 -9 -41 -20 -87 -30 -124
-23 -138 10 -19 16 57 34 107 41 111 14 9 147 30 189 30 28 0 29 -2 23 -32
-17 -89 -9 -82 -116 -89 -58 -3 -102 -11 -110 -18 -10 -10 9 -12 96 -9 104 3
108 2 103 -17 -2 -11 -10 -58 -17 -104 -10 -68 -17 -85 -33 -91 -19 -8 -19 -9
-2 -9 16 -1 18 -6 12 -38 -3 -21 -9 -71 -13 -110 l-6 -73 -135 0 c-112 0 -133
2 -129 14 3 8 9 42 13 75 3 34 11 61 15 61 5 0 9 -8 9 -17 1 -11 9 -2 21 20
11 21 36 48 56 59 l35 21 -25 13 c-13 7 -32 32 -41 54 l-16 42 -33 -49 c-20
-29 -41 -49 -54 -51 -21 -3 -33 -22 -15 -22 4 0 15 -7 25 -15 18 -13 18 -20 6
-107 -7 -51 -13 -94 -15 -96 -1 -1 -43 -5 -94 -9 l-92 -5 5 28 c3 16 9 52 12
79 10 84 10 83 78 92 l62 8 -61 5 -61 5 13 45 c18 62 75 125 143 160 56 28 56
32 0 44 -31 7 -82 52 -77 68 7 21 214 125 226 113 2 -2 1 -12 -2 -22z m482
-89 l3 -62 -128 5 c-70 3 -129 7 -131 8 -2 2 12 72 23 110 1 6 45 8 116 5
l114 -5 3 -61z m-745 27 c7 -34 59 -97 88 -106 27 -9 24 -18 -12 -34 -17 -7
-48 -35 -69 -62 l-39 -50 -11 39 c-12 47 -43 88 -71 97 -19 6 -17 10 18 40 22
18 47 52 57 74 21 45 31 46 39 2z m860 15 c37 -7 70 -15 73 -18 5 -5 33 -112
34 -129 0 -3 -44 4 -97 15 l-98 21 -3 63 c-3 70 -9 67 91 48z m473 -350 l20
-107 -36 6 c-63 11 -70 15 -70 43 -1 15 -7 54 -15 87 -20 81 -19 87 8 81 17
-4 16 -3 -4 6 -19 8 -31 25 -43 63 -9 28 -16 56 -16 61 1 5 31 -23 68 -62 l67
-71 21 -107z m-632 218 l46 -7 0 -105 0 -104 -30 5 c-16 4 -84 9 -150 13 -117
7 -121 8 -116 28 2 12 10 56 17 99 l12 77 87 0 c48 0 108 -3 134 -6z m224 -35
l49 -10 13 -100 c7 -55 11 -102 8 -104 -2 -2 -53 4 -113 13 l-110 17 -3 104
-3 104 55 -7 c31 -3 78 -11 104 -17z m-991 -46 c18 -47 22 -114 10 -147 -4 -9
-18 -16 -34 -16 -16 0 -44 -4 -62 -10 -19 -5 -36 -8 -38 -6 -5 5 57 178 73
204 21 32 30 28 51 -25z m1138 17 c127 -28 121 -23 135 -93 7 -34 16 -79 20
-100 l8 -39 -36 7 c-21 4 -68 13 -106 19 l-70 12 -12 75 c-7 41 -16 89 -19
107 -5 29 -4 33 12 28 10 -3 41 -10 68 -16z m-1254 -124 c-21 -60 -34 -82 -51
-88 -38 -14 -40 -6 -12 50 27 52 81 127 87 120 2 -2 -9 -39 -24 -82z m389 40
c0 -7 9 -21 20 -31 19 -17 18 -18 -17 -51 l-36 -35 -28 27 -27 26 34 34 c19
19 34 39 34 45 0 6 5 7 10 4 6 -3 10 -12 10 -19z m1190 -111 c22 -44 49 -116
61 -159 19 -71 21 -97 16 -250 -5 -189 -22 -277 -78 -396 l-30 -65 -20 25
c-42 54 -42 58 -2 66 65 11 74 26 12 19 l-56 -6 -8 43 -8 43 -7 -34 c-13 -54
-31 -81 -56 -81 -21 0 -22 1 -9 48 8 26 19 72 25 103 l11 56 52 7 c92 11 86
15 70 -61 -18 -88 -12 -126 9 -53 8 30 20 75 26 100 15 65 8 339 -12 435 -17
83 -52 232 -62 262 -12 39 28 -23 66 -102z m-680 17 l35 -8 3 -105 3 -105 -68
7 c-37 5 -106 8 -153 9 -136 1 -129 -6 -113 108 8 53 15 102 17 107 4 11 211
1 276 -13z m195 -22 c49 -6 90 -12 91 -13 5 -5 8 -207 4 -208 -3 -1 -55 4
-117 11 l-112 13 -3 101 c-2 55 -2 104 0 109 2 4 13 5 25 2 12 -2 62 -9 112
-15z m-979 -7 c-7 -16 -25 -140 -26 -170 0 -7 -12 -13 -27 -13 -16 0 -45 -5
-66 -11 -22 -6 -41 -8 -45 -5 -5 6 25 176 33 184 6 6 98 30 119 31 13 1 16 -4
12 -16z m1224 -26 l75 -13 7 -49 c3 -28 7 -76 7 -109 1 -55 0 -58 -21 -53 -13
3 -60 11 -105 17 l-83 12 0 48 c0 26 -3 75 -6 109 l-7 61 29 -5 c16 -4 63 -12
104 -18z m-1375 -16 c-19 -62 -36 -173 -41 -283 l-7 -128 -26 5 -26 5 27 -12
c23 -10 28 -19 33 -67 8 -80 35 -233 50 -292 19 -70 -2 -51 -49 47 -95 194
-112 444 -45 666 16 52 25 68 42 71 44 9 48 7 42 -12z m1567 -30 c10 -9 42
-200 35 -207 -3 -3 -31 0 -61 7 l-56 12 0 62 c0 34 -3 83 -6 108 l-7 46 44
-11 c24 -6 47 -14 51 -17z m-966 -182 c-3 -34 -6 -111 -6 -172 l0 -110 -87 6
c-49 4 -109 10 -136 13 l-47 7 6 136 c10 195 -2 181 150 181 l127 0 -7 -61z
m312 45 l62 -6 2 -71 2 -72 3 73 4 73 57 -6 c31 -4 86 -9 122 -13 l65 -7 6
-40 c4 -25 7 -31 8 -15 3 51 9 53 121 39 l103 -12 -7 -96 c-4 -53 -9 -120 -13
-148 l-6 -53 -103 0 -104 0 -1 53 -1 52 -10 -52 -10 -53 -119 0 -119 0 -1 68
-2 67 -8 -64 c-4 -35 -10 -65 -12 -67 -2 -2 -61 1 -133 6 -71 5 -148 10 -172
10 l-43 0 5 58 c3 31 8 109 12 173 l6 115 111 -3 c62 -2 140 -6 175 -9z m-591
-61 c-4 -38 -7 -107 -7 -154 l0 -86 -82 13 c-46 6 -122 20 -170 29 l-88 18 0
112 0 112 46 7 c26 3 60 6 75 6 l29 0 2 -122 2 -123 6 120 c6 138 1 132 124
134 l69 1 -6 -67z m1244 -18 l37 -7 6 -71 c3 -40 2 -97 -2 -127 l-7 -55 -65
-6 c-36 -3 -66 -5 -67 -4 -2 1 2 39 7 86 5 46 10 110 10 143 0 55 1 58 23 53
12 -3 38 -9 58 -12z m-1466 -216 c96 -19 280 -44 410 -55 l80 -6 -2 -107 -1
-106 10 105 c5 58 11 106 12 107 1 2 80 -3 174 -9 149 -10 172 -13 168 -27 -2
-9 -7 -47 -11 -86 -3 -38 -8 -89 -12 -112 l-5 -43 -147 0 c-122 0 -397 22
-408 33 -1 2 -7 28 -13 57 -14 73 -24 78 -17 8 6 -67 13 -64 -98 -40 l-80 18
-7 103 c-9 138 -21 144 -16 8 l4 -108 -41 5 -40 5 39 -13 c43 -14 50 -25 61
-105 l7 -54 -28 6 -29 6 30 -13 c25 -12 33 -24 46 -76 l17 -62 -74 73 c-46 45
-80 89 -89 114 -17 45 -50 236 -60 339 -5 63 -4 68 12 61 10 -4 59 -15 108
-26z m1334 -86 c0 -10 -8 -58 -18 -108 l-17 -90 -51 -11 c-28 -6 -71 -14 -96
-18 l-45 -7 8 43 c5 24 11 78 15 120 l7 77 87 4 c47 1 92 4 99 5 6 1 12 -6 11
-15z m-225 -55 c-7 -72 -22 -179 -26 -183 -2 -2 -56 -7 -121 -11 l-118 -7 5
24 c5 23 26 206 26 229 0 6 44 10 120 10 l120 0 -6 -62z m342 -197 c19 -22 50
-46 69 -52 41 -15 44 -25 10 -33 -34 -9 -102 -71 -125 -115 l-18 -36 -16 38
c-23 53 -81 114 -122 127 l-36 12 64 32 c52 25 68 40 93 82 l30 52 8 -33 c5
-18 24 -51 43 -74z m-1268 27 c49 -10 64 -17 67 -33 11 -52 25 -139 22 -142
-2 -1 -44 11 -94 28 l-91 30 -7 42 c-3 23 -9 55 -12 71 -5 27 -4 28 23 23 16
-4 57 -12 92 -19z m1143 -2 c-12 -13 -51 -37 -86 -52 -36 -16 -65 -31 -65 -34
0 -3 21 -11 46 -18 43 -12 46 -14 39 -40 -4 -15 -8 -28 -10 -30 -7 -8 -158
-43 -162 -38 -3 2 1 45 8 95 l13 90 55 12 c31 6 79 17 106 24 75 20 82 19 56
-9z m-946 -31 c28 -3 64 -8 80 -10 l31 -5 2 -91 c2 -83 1 -90 -15 -85 -10 2
-54 12 -98 22 -44 9 -83 19 -87 23 -3 3 -9 41 -13 85 l-8 78 29 -6 c16 -3 52
-8 79 -11z m700 -27 c-3 -18 -9 -62 -15 -97 -5 -35 -11 -65 -12 -66 -4 -4
-230 -26 -233 -23 -3 3 24 191 28 194 1 0 52 6 112 11 61 5 114 10 118 11 4 1
5 -13 2 -30z m-259 -20 c-3 -15 -8 -57 -12 -94 -5 -43 -12 -68 -21 -71 -15 -6
-261 11 -268 18 -2 3 -7 44 -11 92 l-7 87 162 -3 162 -2 -5 -27z m514 -109
l19 -25 -55 -43 c-30 -24 -57 -41 -60 -38 -3 3 1 29 10 58 8 30 17 67 21 83 6
28 6 28 27 10 11 -11 28 -31 38 -45z m-1042 -79 c8 -34 12 -63 10 -65 -6 -7
-141 39 -164 55 -22 15 -44 75 -44 117 0 21 1 21 92 -12 l92 -33 14 -62z m947
48 c-4 -13 -15 -41 -25 -64 -17 -39 -19 -41 -95 -57 -43 -10 -79 -16 -81 -15
-1 2 7 30 18 63 l19 61 67 16 c97 23 105 22 97 -4z m-824 -14 l89 -17 0 -63
c0 -60 -1 -64 -22 -64 -44 1 -151 28 -158 41 -5 7 -11 32 -15 57 -4 24 -9 52
-13 60 -4 12 -1 14 12 9 9 -4 57 -14 107 -23z m637 -16 c-3 -7 -13 -36 -22
-64 l-17 -51 -105 -13 c-58 -7 -107 -10 -109 -8 -3 2 0 32 6 66 l11 62 52 1
c28 0 74 4 101 9 77 11 88 11 83 -2z m-355 -14 l99 -6 -7 -47 c-12 -91 -2 -85
-138 -77 -66 3 -122 8 -125 10 -2 3 -7 34 -9 70 l-6 66 44 -5 c24 -2 88 -7
142 -11z m-406 -90 c18 -8 33 -19 33 -24 0 -14 -6 -13 -48 10 -56 29 -73 43
-43 34 13 -3 39 -13 58 -20z m883 11 c0 -6 -126 -70 -157 -79 -20 -6 -21 -5
-10 19 7 14 23 28 37 31 14 4 45 12 70 19 52 16 60 17 60 10z m-732 -48 c69
-11 72 -13 72 -39 0 -34 -5 -34 -100 1 -51 19 -76 33 -79 46 -2 14 1 16 15 11
11 -4 52 -13 92 -19z m562 1 c-1 -39 -51 -59 -202 -81 -40 -6 -44 -1 -29 38 7
16 26 23 112 36 57 9 107 17 112 18 4 0 7 -5 7 -11z m-240 -33 c0 -5 -3 -20
-6 -32 -6 -21 -12 -23 -83 -23 -42 0 -93 3 -113 6 -34 6 -38 10 -38 35 l0 28
120 -2 c72 -1 120 -6 120 -12z"/>
<path d="M652 2078 c-7 -26 -11 -62 -11 -80 1 -23 6 -12 15 37 16 81 13 112
-4 43z"/>
<path d="M440 2064 c0 -13 52 -92 75 -114 38 -35 30 -15 -21 56 -42 60 -54 73
-54 58z"/>
<path d="M347 1860 c16 -17 102 -24 133 -11 22 8 19 10 -26 10 -28 1 -67 4
-85 7 -27 5 -32 4 -22 -6z"/>
</g>
</svg>
