<?xml version="1.0" standalone="no"?>
<!DOCTYPE svg PUBLIC "-//W3C//DTD SVG 20010904//EN"
 "http://www.w3.org/TR/2001/REC-SVG-20010904/DTD/svg10.dtd">
<svg version="1.0" xmlns="http://www.w3.org/2000/svg"
 width="300.000000pt" height="269.000000pt" viewBox="0 0 300.000000 269.000000"
 preserveAspectRatio="xMidYMid meet">
<metadata>
Created by potrace 1.10, written by Peter Selinger 2001-2011
</metadata>
<g transform="translate(0.000000,269.000000) scale(0.100000,-0.100000)"
fill="#000000" stroke="none">
<path d="M757 2444 c-3 -19 -3 -45 1 -57 12 -35 -4 -495 -19 -539 -9 -28 -10
-41 -2 -46 16 -10 1 -241 -16 -252 -26 -15 1 -30 54 -30 58 0 78 14 49 34 -15
11 -18 29 -18 102 -1 49 -5 95 -9 101 -5 8 -1 25 9 43 14 23 16 34 7 52 -11
21 -28 427 -24 541 3 83 -21 121 -32 51z m32 -501 c1 -50 -3 -83 -9 -83 -6 0
-9 76 -8 213 1 209 2 210 9 82 3 -71 7 -167 8 -212z m7 -125 c-11 -18 -13 -51
-10 -141 2 -65 6 -122 9 -126 5 -10 -18 -21 -41 -21 -9 0 -12 5 -8 11 4 6 8
60 9 119 2 60 5 113 9 118 3 5 -1 18 -9 28 -22 29 -18 34 20 34 34 0 35 -1 21
-22z"/>
<path d="M1937 2473 c-3 -5 -6 -142 -6 -307 -1 -247 -4 -301 -16 -313 -19 -19
-19 -37 1 -54 10 -8 13 -20 9 -33 -4 -12 -8 -57 -10 -101 -4 -113 -4 -115 -12
-115 -5 0 -8 30 -8 67 l0 68 -70 0 -70 0 2 -65 c2 -55 7 -68 28 -87 21 -19 25
-31 25 -78 0 -54 -1 -55 -29 -55 -28 0 -60 -24 -44 -33 4 -3 29 -8 56 -12 45
-7 60 -19 35 -28 -9 -3 -7 -13 10 -35 12 -17 22 -35 22 -39 0 -14 50 -83 61
-83 24 0 18 33 -13 78 -19 26 -38 60 -41 74 -6 24 -4 28 18 34 34 9 31 30 -5
38 -29 5 -30 7 -30 66 0 41 4 60 13 61 6 1 41 2 77 3 l65 1 -3 -47 c-3 -36 -8
-49 -23 -53 -30 -10 -22 -22 19 -29 84 -14 113 -2 89 35 -19 30 -29 225 -13
251 7 12 7 24 -1 40 -18 35 -23 122 -24 385 -1 223 -7 286 -24 234 -3 -11 -5
-44 -5 -73 3 -153 -14 -533 -25 -555 -11 -22 -13 -20 -18 29 -5 40 -3 56 9 69
11 13 13 22 6 36 -9 16 -19 194 -27 488 -2 55 -4 110 -4 123 -1 21 -15 30 -24
15z m18 -611 c-12 -12 -13 12 -6 188 l6 185 3 -184 c1 -101 0 -186 -3 -189z
m80 -130 c-15 -15 -17 28 -9 235 l9 228 3 -229 c1 -126 0 -231 -3 -234z m-55
99 c0 -6 -4 -13 -10 -16 -11 -7 -7 -240 5 -267 6 -15 2 -18 -28 -18 -35 0 -35
0 -27 33 14 49 21 247 10 247 -6 0 -10 7 -10 15 0 10 10 15 30 15 17 0 30 -4
30 -9z m90 -129 c0 -7 -7 -15 -16 -19 -10 -4 -13 -14 -9 -32 3 -14 7 -74 10
-133 l4 -108 -31 0 c-24 0 -28 3 -20 13 12 14 22 217 11 217 -11 0 -22 -38
-15 -49 8 -12 -4 -42 -13 -37 -4 3 -8 32 -9 65 -1 48 2 61 13 61 8 0 15 -7 15
-15 0 -8 5 -15 10 -15 14 0 12 13 -5 36 -21 28 -19 33 20 31 21 -1 35 -7 35
-15z m-186 -61 c-1 -6 -2 -27 -2 -46 -1 -21 -10 -42 -22 -52 -17 -15 -20 -30
-20 -90 0 -71 0 -72 28 -76 15 -2 -4 -5 -41 -6 -43 0 -66 3 -62 9 3 6 17 10
31 10 23 0 24 2 24 69 0 57 -3 72 -19 83 -12 8 -21 31 -25 64 l-7 51 58 -3
c34 -1 58 -7 57 -13z m22 -413 c8 -16 13 -32 11 -34 -5 -5 -47 58 -47 70 0 14
21 -6 36 -36z"/>
<path d="M1404 2452 c-35 -28 -45 -56 -35 -99 5 -21 9 -30 10 -19 1 10 15 34
31 53 17 18 30 45 30 58 0 29 -7 31 -36 7z"/>
<path d="M1566 2442 c-9 -17 -16 -41 -16 -54 0 -13 -4 -29 -9 -37 -7 -11 -10
-11 -17 1 -5 8 -21 17 -36 20 -22 4 -36 -3 -72 -37 l-44 -41 -11 23 c-6 13
-11 30 -11 37 0 22 -40 56 -65 56 -14 0 -25 -3 -25 -8 0 -16 33 -53 61 -67 16
-9 29 -21 29 -28 0 -7 9 -20 20 -30 11 -9 20 -23 20 -31 0 -8 14 -22 32 -30
26 -14 36 -14 60 -4 26 12 33 24 29 54 -1 7 8 14 20 17 17 5 20 11 15 29 -4
18 1 29 24 48 35 30 46 68 27 94 -14 19 -15 19 -31 -12z m-48 -113 c10 -16 10
-23 -3 -35 -8 -9 -15 -23 -15 -32 0 -20 -36 -38 -67 -34 -13 2 -23 10 -23 19
0 13 3 13 15 3 12 -10 20 -9 40 4 28 19 49 52 40 66 -12 19 -44 10 -70 -21
-21 -26 -29 -29 -38 -19 -9 10 -9 14 2 18 7 2 25 17 39 32 28 30 61 30 80 -1z
m-28 -21 c0 -16 -31 -48 -47 -48 -7 0 -13 5 -13 10 0 6 9 10 20 10 11 0 20 5
20 11 0 5 -6 7 -12 3 -9 -5 -9 -2 1 9 16 20 31 22 31 5z"/>
<path d="M1631 2346 c-6 -8 -9 -20 -6 -29 8 -20 45 -10 45 13 0 23 -25 33 -39
16z"/>
<path d="M1233 2325 c-12 -13 -12 -52 0 -47 4 1 14 2 22 2 18 0 20 34 3 48 -9
7 -17 6 -25 -3z"/>
<path d="M1659 2259 c-12 -31 -12 -36 16 -101 5 -13 3 -18 -9 -18 -21 0 -42
-76 -26 -95 8 -9 8 -15 0 -20 -17 -10 -12 -55 8 -62 9 -4 23 -13 30 -20 7 -7
17 -13 21 -13 15 0 62 51 58 63 -2 6 6 19 17 28 18 15 19 21 9 63 l-10 47 38
19 c29 15 41 29 50 60 7 22 9 43 6 47 -11 10 -48 -29 -64 -66 -8 -19 -20 -39
-26 -45 -11 -10 -93 -19 -83 -8 3 2 1 13 -4 22 -6 12 -6 29 1 49 11 32 5 81
-10 81 -5 0 -14 -14 -22 -31z m101 -155 c0 -8 5 -23 12 -34 10 -16 9 -23 -10
-43 -12 -13 -22 -31 -22 -40 0 -9 -6 -17 -14 -17 -8 0 -17 -6 -20 -12 -3 -10
-8 -9 -18 3 -7 8 -21 18 -32 22 -17 7 -17 9 -3 31 14 21 14 25 -1 40 -10 10
-12 16 -4 16 7 0 12 11 12 25 0 15 6 25 14 25 18 0 27 -23 15 -41 -5 -8 -9
-29 -9 -47 0 -43 26 -54 52 -23 31 39 18 108 -18 94 -14 -5 -19 8 -9 19 11 10
55 -5 55 -18z m-21 -36 c-1 -17 -2 -19 -6 -5 -2 9 -9 17 -15 17 -6 0 -8 -10
-4 -25 4 -17 2 -25 -6 -26 -10 0 -10 -2 0 -6 6 -2 10 -9 6 -14 -11 -18 -24 3
-18 29 10 47 13 52 29 52 9 0 15 -8 14 -22z"/>
<path d="M1273 2261 c-13 -11 -23 -27 -23 -36 0 -19 23 -45 41 -45 10 0 10 -3
1 -12 -10 -10 -15 -10 -22 2 -11 18 -22 8 -14 -14 9 -23 30 -20 48 6 31 43 12
90 -22 56 -6 -6 -15 -8 -19 -5 -4 4 4 18 16 30 16 15 25 18 28 10 3 -7 10 -13
17 -13 8 0 12 -14 12 -38 -1 -44 -29 -76 -69 -78 -27 -2 -33 9 -29 58 1 12 -3
15 -13 11 -11 -4 -14 -14 -9 -38 5 -28 2 -34 -16 -40 -14 -4 -20 -14 -19 -28
1 -12 -1 -35 -6 -51 -5 -17 -4 -31 3 -35 5 -3 12 -17 13 -31 3 -18 9 -24 22
-22 10 2 24 -2 31 -8 14 -11 46 -4 46 11 0 4 -7 6 -15 2 -9 -3 -22 2 -29 12
-8 11 -18 15 -26 10 -10 -6 -12 -1 -8 19 4 18 1 26 -8 26 -17 0 -17 5 -1 30
10 17 9 22 -3 30 -22 14 -7 21 48 24 32 2 60 10 80 25 28 20 31 26 28 67 -3
33 -10 49 -29 64 -30 24 -27 24 -54 1z"/>
<path d="M1566 2259 c-11 -10 -14 -19 -8 -19 7 0 12 -6 12 -13 0 -23 43 -12
52 13 10 26 10 26 -17 33 -12 3 -27 -2 -39 -14z"/>
<path d="M1137 2263 c-4 -3 -7 -23 -7 -43 0 -26 7 -43 25 -60 l25 -23 0 29 c0
37 -19 104 -29 104 -4 0 -11 -3 -14 -7z"/>
<path d="M1740 2239 c-13 -24 -13 -24 16 -33 17 -5 23 -2 27 15 11 42 -23 56
-43 18z"/>
<path d="M1418 2172 c-20 -4 -20 -39 0 -47 7 -3 19 1 27 8 16 17 -2 44 -27 39z"/>
<path d="M1508 2152 c-7 -10 -21 -21 -32 -25 -14 -5 -17 -13 -12 -32 8 -31
-19 -35 -29 -5 -6 18 -14 21 -58 18 -46 -3 -52 -6 -69 -37 -10 -18 -17 -38
-15 -45 2 -6 0 -19 -5 -29 -6 -12 -5 -19 7 -23 8 -3 15 -15 15 -26 0 -18 4
-19 36 -13 32 5 35 4 30 -12 -3 -11 2 -58 13 -106 13 -65 25 -95 45 -116 21
-22 26 -37 26 -78 0 -49 -1 -52 -30 -58 -36 -8 -64 -46 -55 -74 4 -13 23 -25
60 -35 51 -15 64 -15 110 4 11 4 35 13 53 20 36 14 44 47 16 74 -13 14 -70 23
-99 16 -34 -8 -38 -4 -40 48 -1 28 2 52 7 52 18 0 7 27 -16 38 -22 10 -55 77
-43 88 2 3 36 4 75 2 l70 -3 -13 -40 c-8 -21 -24 -47 -36 -56 -14 -11 -18 -18
-10 -23 6 -4 11 -25 11 -47 0 -21 5 -39 10 -39 9 0 7 38 -4 80 0 3 9 15 21 27
21 21 43 80 43 115 0 13 -7 15 -40 11 -34 -5 -39 -3 -34 10 3 9 17 23 30 32
29 19 31 45 5 67 -10 8 -20 21 -22 27 -5 13 -31 15 -71 6 l-26 -7 21 44 22 44
48 -9 c45 -8 50 -6 73 19 17 17 23 32 18 43 -4 9 -6 24 -5 33 1 12 -7 19 -26
24 -15 3 -35 8 -45 10 -9 3 -22 -4 -30 -14z m63 -12 c10 0 19 -4 19 -10 0 -5
-14 -10 -31 -10 -17 0 -39 -5 -50 -11 -11 -6 -25 -8 -32 -6 -7 3 -4 8 8 13 11
4 24 14 28 21 5 8 16 12 24 9 8 -3 23 -6 34 -6z m-151 -56 c0 -7 9 -18 21 -24
19 -11 19 -13 5 -35 -9 -14 -16 -31 -16 -39 0 -20 -16 -29 -61 -31 -32 -2 -39
1 -39 16 0 9 -8 19 -17 22 -17 4 -17 4 0 12 12 5 24 2 37 -10 14 -13 23 -14
39 -6 24 13 40 41 34 59 -6 16 -48 15 -62 -2 -14 -16 -51 -28 -51 -16 0 5 5
12 10 15 6 3 10 15 10 25 0 21 8 25 55 26 22 0 35 -4 35 -12z m165 -14 c-19
-21 -45 -27 -45 -10 0 6 6 10 14 10 7 0 19 7 26 15 7 9 15 13 18 10 3 -3 -3
-14 -13 -25z m-175 -34 c0 -18 -26 -39 -42 -33 -8 4 -7 6 5 6 9 1 17 6 17 12
0 5 -6 7 -12 3 -9 -5 -9 -2 1 9 16 21 31 22 31 3z m110 -101 c5 -14 14 -25 20
-25 18 0 11 -22 -16 -46 -14 -13 -36 -24 -49 -24 -13 0 -27 -4 -30 -10 -10
-15 -35 -12 -35 5 0 8 -5 15 -11 15 -5 0 -7 5 -3 11 4 8 9 8 17 0 18 -18 54
-12 84 13 24 21 26 26 13 40 -16 21 -55 14 -86 -15 -19 -17 -22 -18 -34 -4
-10 12 -9 16 6 22 11 3 23 12 27 20 5 8 17 11 31 7 13 -3 27 -1 30 5 12 18 26
12 36 -14z m-21 -42 c0 -11 -3 -13 -6 -5 -7 18 -24 15 -21 -5 4 -21 -29 -30
-46 -13 -8 9 -4 10 19 5 21 -5 26 -4 16 3 -17 12 -6 32 20 32 12 0 19 -7 18
-17z m96 -353 c22 -18 18 -39 -7 -49 -19 -7 -25 -4 -35 20 -7 16 -17 29 -23
29 -13 0 -13 -17 0 -25 6 -3 10 -15 10 -25 0 -14 -10 -21 -36 -26 -49 -9 -64
7 -42 46 9 17 13 30 7 30 -5 0 -18 -13 -27 -30 -17 -30 -36 -38 -46 -21 -10
15 5 41 31 54 30 16 148 14 168 -3z"/>
<path d="M1082 2124 c-12 -8 -27 -24 -32 -35 -16 -29 21 -25 58 6 38 32 59 33
27 0 -29 -28 -37 -109 -11 -99 26 10 50 104 33 132 -11 17 -48 15 -75 -4z"/>
<path d="M1800 2123 c8 -3 29 -21 46 -39 52 -55 89 -38 43 20 -16 21 -28 26
-62 25 -23 0 -35 -3 -27 -6z"/>
<path d="M1800 2035 c0 -3 5 -15 10 -25 8 -15 6 -21 -10 -30 -12 -6 -20 -21
-20 -36 0 -19 -4 -25 -15 -20 -9 3 -19 -3 -26 -15 -8 -16 -13 -18 -25 -8 -11
9 -14 8 -14 -4 0 -17 18 -26 38 -20 6 3 12 11 12 19 0 9 5 12 10 9 15 -9 40
14 40 35 0 10 7 21 16 24 18 7 16 67 -3 74 -7 2 -13 1 -13 -3z"/>
<path d="M1497 2016 c-7 -18 1 -26 25 -26 19 0 23 8 10 25 -11 15 -30 16 -35
1z"/>
<path d="M1571 2007 c-18 -18 -13 -43 9 -43 11 0 20 3 20 7 0 4 3 14 6 22 7
18 -20 29 -35 14z"/>
<path d="M1590 1918 c0 -4 5 -8 10 -8 6 0 10 -11 10 -25 0 -14 5 -25 10 -25 6
0 10 5 10 12 0 9 3 9 12 0 9 -9 9 -15 0 -24 -14 -14 -16 -48 -3 -48 5 0 12 6
15 13 9 18 0 -45 -9 -65 -5 -13 -3 -18 10 -18 14 0 16 -6 10 -40 -6 -34 -4
-40 10 -40 15 0 17 7 11 49 -6 46 -5 49 14 44 27 -7 25 9 -5 35 -31 27 -34 63
-5 55 32 -8 24 17 -10 30 -30 12 -49 39 -31 45 25 8 8 21 -24 20 -19 -1 -35
-5 -35 -10z"/>
<path d="M1313 1898 c-35 -21 -43 -38 -18 -38 19 0 20 -24 1 -39 -17 -14 -27
-49 -16 -56 5 -3 13 3 19 12 17 30 14 -9 -4 -43 -16 -31 -3 -62 15 -34 6 9 8
-3 7 -35 -1 -33 2 -49 12 -53 11 -4 13 5 8 48 -5 45 -4 50 8 40 24 -20 19 13
-5 35 -25 22 -29 65 -5 45 25 -21 30 -2 7 23 -26 28 -32 67 -7 47 22 -18 32
-4 12 17 -11 13 -13 23 -6 36 12 20 12 21 -28 -5z"/>
<path d="M933 1713 c-22 -8 -17 -129 5 -151 13 -13 21 -40 24 -80 6 -60 6 -61
-20 -64 -16 -2 -27 -9 -27 -18 0 -12 16 -16 70 -18 72 -2 108 9 90 27 -6 6
-22 12 -35 14 -23 4 -25 9 -28 65 -2 36 1 62 7 62 5 0 17 7 25 16 23 22 23
139 0 148 -18 7 -93 7 -111 -1z m111 -80 c-4 -31 -14 -54 -28 -65 -18 -14 -21
-27 -21 -85 l0 -68 35 -5 35 -6 -34 -7 c-48 -10 -91 -9 -91 3 0 6 9 10 20 10
18 0 20 7 20 71 0 58 -4 74 -19 87 -12 10 -23 36 -27 65 l-6 47 61 0 62 0 -7
-47z"/>
<path d="M1113 1701 c-3 -11 -15 -22 -27 -24 -21 -4 -21 -4 2 -6 19 -1 22 -7
22 -40 0 -24 8 -48 22 -66 16 -21 23 -46 26 -92 4 -58 3 -63 -16 -63 -26 0
-39 -19 -21 -31 16 -10 100 -12 123 -3 13 5 14 9 5 20 -6 8 -19 14 -28 14 -24
0 -23 119 1 144 21 20 31 67 26 121 l-3 40 -63 3 c-56 3 -64 1 -69 -17z m117
-60 c0 -33 -6 -56 -20 -74 -28 -35 -30 -167 -2 -167 12 0 14 -2 4 -8 -7 -5
-27 -6 -45 -3 -19 3 -25 6 -14 9 14 3 17 15 17 81 0 65 -3 81 -20 96 -15 13
-20 31 -20 65 l0 47 50 2 50 1 0 -49z"/>
<path d="M2125 1680 c-3 -5 11 -12 32 -16 73 -12 273 -64 337 -87 125 -46 196
-105 196 -163 0 -72 -277 -199 -556 -254 -54 -11 -165 -25 -247 -32 -81 -6
-144 -15 -140 -19 14 -13 296 11 419 36 211 43 429 130 496 199 l33 34 1 -112
c2 -144 24 -257 81 -414 36 -102 47 -147 54 -227 4 -55 14 -130 20 -168 12
-65 11 -68 -10 -91 -14 -14 -41 -28 -64 -32 -23 -3 -51 -12 -62 -20 -29 -19
-188 -54 -246 -54 -29 0 -63 7 -79 16 -26 16 -30 16 -71 -3 -25 -12 -89 -26
-147 -33 -93 -11 -108 -11 -149 5 -38 15 -51 16 -82 6 -91 -30 -831 -29 -924
0 -31 10 -45 9 -91 -6 -51 -18 -60 -18 -158 -3 -56 9 -105 14 -107 12 -10 -9
12 -17 81 -30 95 -18 138 -18 189 3 35 14 47 14 73 4 65 -27 912 -29 938 -3
16 16 48 15 91 -3 20 -8 53 -15 74 -15 52 0 169 24 220 45 41 16 43 16 72 -4
38 -27 56 -27 197 8 247 62 290 86 285 166 -1 25 -8 66 -16 92 -8 27 -15 80
-15 118 0 53 -8 91 -31 155 -76 208 -97 315 -108 534 l-7 139 -51 47 c-46 42
-68 53 -191 93 -76 25 -176 53 -223 62 -46 9 -89 18 -96 20 -7 2 -15 0 -18 -5z"/>
<path d="M830 1660 c-11 -7 -2 -10 33 -10 26 0 47 5 47 10 0 13 -60 13 -80 0z"/>
<path d="M675 1643 c-16 -2 -72 -13 -123 -24 -73 -16 -106 -30 -154 -62 -76
-52 -99 -82 -109 -144 -4 -26 -15 -79 -23 -118 -22 -102 -30 -175 -20 -175 5
0 18 53 28 118 10 64 22 126 26 137 8 20 8 20 16 0 28 -70 257 -171 487 -216
56 -11 172 -27 257 -35 193 -19 646 -31 637 -17 -4 6 -111 12 -259 16 -480 12
-786 68 -1009 184 -114 59 -143 112 -94 171 61 72 156 116 313 142 39 6 72 16
72 21 0 5 -3 8 -7 8 -5 -1 -21 -4 -38 -6z"/>
<path d="M2324 1530 c-117 -16 -184 -72 -134 -112 34 -27 97 -41 190 -41 164
-1 284 49 250 104 -6 8 -9 5 -12 -11 -9 -66 -225 -100 -371 -59 -76 21 -52 68
48 94 87 22 180 19 289 -10 19 -5 27 -4 23 2 -17 27 -186 46 -283 33z"/>
<path d="M515 1475 c-50 -13 -88 -47 -83 -73 10 -48 119 -76 273 -70 124 5
185 30 185 77 0 38 -15 49 -96 66 -85 18 -212 18 -279 0z m289 -19 c32 -8 62
-20 67 -27 25 -41 -66 -83 -180 -84 -159 0 -255 31 -231 75 24 45 220 65 344
36z"/>
<path d="M591 1450 c-46 -10 -81 -34 -67 -47 4 -4 11 -2 15 6 18 28 159 41
220 20 76 -27 -8 -54 -139 -45 -57 4 -80 3 -70 -4 20 -13 216 -13 241 0 25 14
24 36 -3 54 -29 19 -140 28 -197 16z"/>
<path d="M2303 1475 c-37 -16 -41 -26 -16 -46 21 -18 218 -18 236 0 8 8 -8 10
-65 5 -79 -7 -168 1 -168 16 0 4 31 13 70 20 72 12 158 2 187 -22 15 -12 28
-5 19 11 -19 31 -204 42 -263 16z"/>
<path d="M1200 1260 c-44 -88 -48 -101 -33 -107 9 -4 18 -2 20 3 2 6 21 46 43
88 39 77 50 116 30 116 -5 0 -32 -45 -60 -100z"/>
<path d="M1482 1350 c-145 -20 -232 -66 -232 -122 0 -69 108 -96 316 -80 152
12 225 36 249 83 14 26 13 30 -11 58 -44 52 -188 79 -322 61z m240 -31 c21 -5
50 -20 65 -33 26 -23 26 -24 10 -49 -29 -44 -114 -68 -264 -74 -177 -8 -263
15 -263 68 0 79 276 133 452 88z"/>
<path d="M1436 1294 c-85 -21 -121 -61 -82 -93 35 -29 273 -19 339 15 26 14
38 44 17 44 -5 0 -10 -7 -10 -15 0 -20 -59 -34 -181 -41 -123 -8 -159 -2 -159
25 0 44 155 70 295 48 30 -4 45 -4 40 2 -11 10 -138 32 -177 30 -13 0 -50 -7
-82 -15z"/>
<path d="M2593 1230 c11 -29 27 -41 27 -19 0 16 -20 49 -29 49 -5 0 -4 -13 2
-30z"/>
<path d="M414 1215 c-4 -8 -3 -26 0 -40 9 -36 -10 -224 -40 -395 -29 -165 -82
-389 -96 -407 -5 -7 -5 -14 1 -18 13 -7 20 10 59 140 16 55 32 134 35 175 3
41 15 111 27 155 15 58 23 125 27 243 6 148 2 187 -13 147z"/>
<path d="M2614 1115 c4 -27 11 -133 15 -235 10 -219 18 -245 101 -350 33 -41
65 -90 71 -107 12 -37 34 -46 23 -10 -12 39 -36 81 -73 127 -82 101 -89 124
-101 341 -12 204 -18 260 -32 274 -7 7 -8 -6 -4 -40z"/>
<path d="M240 1090 c0 -58 -47 -356 -71 -449 -16 -62 -29 -130 -29 -150 0 -20
-8 -58 -17 -84 -22 -60 -13 -77 48 -92 24 -7 54 -17 65 -23 24 -12 236 -62
267 -62 11 0 35 10 54 21 30 19 38 20 59 9 34 -19 41 -5 9 16 -25 16 -28 16
-61 1 -19 -10 -56 -17 -82 -17 -57 1 -195 31 -237 52 -16 8 -47 18 -68 22 -47
9 -52 20 -32 75 8 24 15 60 15 80 0 20 11 74 24 121 13 47 29 126 36 175 29
210 37 300 29 310 -6 5 -9 3 -9 -5z"/>
<path d="M1083 1083 c-11 -29 -8 -80 7 -108 16 -30 58 -55 90 -55 12 0 36 -7
53 -15 21 -9 72 -16 147 -17 80 -2 106 -5 85 -11 -76 -20 -222 -80 -252 -103
-37 -28 -43 -58 -14 -74 34 -17 63 -11 120 26 90 58 174 105 178 100 3 -2 -11
-22 -31 -43 -22 -25 -39 -57 -46 -87 -15 -68 -33 -99 -74 -127 -54 -36 -69
-75 -60 -159 7 -74 -9 -120 -41 -120 -8 0 -15 -4 -15 -10 0 -19 32 -10 60 18
22 23 29 41 34 88 10 97 25 147 58 187 16 21 41 65 53 98 13 33 35 73 49 90
14 17 26 37 26 44 0 16 34 38 44 28 3 -3 6 -24 6 -45 0 -33 6 -45 39 -75 42
-37 50 -59 87 -252 15 -80 26 -97 88 -142 40 -30 66 -37 66 -19 0 6 -6 10 -12
10 -20 0 -86 95 -107 153 -10 29 -26 70 -35 92 -8 22 -15 66 -16 98 0 43 -5
62 -20 77 -11 11 -25 20 -30 20 -10 0 -50 81 -50 101 0 18 20 8 70 -33 89 -76
114 -95 155 -117 45 -24 75 -27 93 -9 40 40 -26 111 -144 154 -41 15 -74 27
-74 28 0 1 35 1 78 2 56 0 90 6 122 20 25 12 62 24 83 28 79 15 134 108 89
149 -44 40 -225 -4 -339 -81 -89 -60 -118 -73 -132 -59 -6 6 -27 10 -46 8 -25
-2 -56 9 -118 43 -46 25 -90 46 -98 46 -8 0 -45 16 -83 35 -77 39 -133 46
-143 18z m115 -37 c31 -13 74 -29 95 -36 20 -6 60 -27 88 -46 27 -19 60 -39
72 -43 13 -5 -19 -8 -83 -9 -84 0 -111 4 -135 18 -16 10 -47 21 -67 24 -44 8
-68 37 -68 83 0 41 17 43 98 9z m820 -13 c4 -25 -5 -32 -113 -88 -88 -46 -90
-46 -188 -47 -54 0 -101 3 -104 6 -4 3 0 6 8 6 29 0 116 48 148 82 31 33 86
55 176 71 35 6 70 -8 73 -30z m-473 -142 c3 -5 -4 -13 -16 -16 -23 -8 -34 -1
-24 14 8 13 32 14 40 2z m-74 -55 c-6 -8 -34 -23 -62 -35 -27 -12 -71 -35 -96
-51 -50 -32 -103 -40 -103 -16 0 30 108 85 169 87 14 0 42 6 61 13 19 8 37 14
39 15 2 0 -2 -5 -8 -13z m256 -11 c91 -28 151 -70 140 -98 -16 -42 -103 2
-236 119 -10 9 18 3 96 -21z"/>
<path d="M1045 1073 c-10 -24 -22 -284 -13 -289 4 -2 9 15 12 38 6 45 14 268
10 268 -1 0 -5 -8 -9 -17z"/>
<path d="M2264 905 c4 -162 10 -211 36 -333 16 -78 30 -161 30 -182 0 -23 5
-40 11 -40 17 0 6 113 -26 250 -20 88 -27 154 -32 285 -3 94 -10 179 -15 190
-5 12 -6 -58 -4 -170z"/>
<path d="M1965 800 c0 -60 3 -111 6 -114 9 -10 20 146 13 183 -13 61 -19 38
-19 -69z"/>
<path d="M706 813 c-3 -16 -14 -85 -26 -154 -11 -70 -26 -144 -34 -165 -7 -22
-16 -64 -20 -94 -4 -30 -12 -60 -18 -67 -13 -16 -2 -31 12 -17 9 9 54 208 84
374 10 52 20 107 22 123 3 15 1 27 -4 27 -6 0 -13 -12 -16 -27z"/>
<path d="M1017 693 c-4 -38 -7 -102 -7 -143 0 -41 -4 -91 -9 -110 -13 -50 -21
-160 -11 -160 4 0 11 26 15 58 3 31 10 75 15 97 12 53 20 325 11 325 -5 0 -11
-30 -14 -67z"/>
<path d="M1964 508 c4 -141 12 -198 28 -198 6 0 7 10 4 23 -4 12 -10 86 -13
165 -3 78 -10 142 -14 142 -5 0 -7 -60 -5 -132z"/>
</g>
</svg>
