<svg xmlns="http://www.w3.org/2000/svg" width="834px" height="834px" viewBox="0 0 833.9730006 833.9730006" version="1.1" id="svg5" xml:space="preserve" data-square-offset-x="123.33403529999998" data-square-offset-y="200.3787103"><defs id="defs2"/><g id="layer1"><path style="fill:#000000;stroke-width:1" d="m 206.1552353000003 632.8667102999993 c -14.4068,-1.957 -25.5279,-5.92 -35.9877,-12.822 -4.4711,-2.951 -11.8212,-9.789 -14.7535,-13.726 -2.4135,-3.24 -10.2237,-18.583 -11.6518,-22.889 l -1.0668,-3.219 -0.3374,-63.506 c -0.208,-39.476 -0.5134,-64.188 -0.804,-65.306 -0.6588,-2.529 -1.6562,-3.449 -6.062,-5.594 -6.6073,-3.216 -10.2637,-8.347 -11.7279,-16.46 -1.2854,-7.125 0.3987,-17.467 3.8738,-23.793 3.683,-6.702 3.9564,-7.341 3.9564,-9.268 0,-5.903 2.3482,-11.833 6.4366,-16.248 l 2.6283,-2.839 -0.4174,-12.085 -0.416,-12.087 -3.5284,-1.935 c -3.9844,-2.187 -5.3125,-3.789 -6.1286,-7.399 -0.8308,-3.676 -1.2375,-50.232 -0.4841,-55.387 1.0561,-7.217 2.9697,-10.645 7.6888,-13.779 3.5257,-2.34 6.61,-3.192 23.1504,-6.4 21.3488,-4.142 22.9957,-4.39 27.7548,-4.184 5.4433,0.236 8.2849,1.485 9.7024,4.261 0.9134,1.791 0.9614,2.871 0.208,4.652 -0.296,0.702 -0.08,0.714 2.4096,0.134 3.1643,-0.74 38.7039,-6.412 46.7181,-7.454 5.7992,-0.755 35.9117,-5.748 37.2798,-6.181 0.8748,-0.277 0.9601,0.157 0.412,2.116 -0.308,1.103 -0.684,1.191 -12.3012,2.878 -6.5914,0.957 -13.2534,2.02 -14.8069,2.363 l -2.8216,0.622 4.8152,0.59 c 5.4179,0.663 10.129,1.885 16.1923,4.199 6.522,2.488 7.6674,3.568 8.6982,8.203 0.5174,2.33 0.5481,1.953 0.3027,-3.789 -0.1493,-3.509 -0.12,-7.425 0.08,-8.704 l 0.3494,-2.324 0.9788,1.881 c 1.1334,2.178 2.1788,7.019 2.2028,10.204 0,1.214 0.2121,2.327 0.4508,2.474 0.3827,0.237 0.732,-2.075 1.0974,-7.268 l 0.12,-1.646 0.7868,1.176 c 0.5027,0.753 0.9681,3.023 1.2934,6.315 0.2974,3.01 0.8041,5.593 1.2242,6.233 1.4174,2.164 1.7188,1.292 1.5574,-4.506 -0.14,-4.99 -0.08,-5.555 0.5868,-5.201 1.4575,0.783 1.7802,1.696 2.0669,5.869 0.4987,7.234 0.5013,7.242 2.8682,8.287 1.1508,0.51 2.3029,0.798 2.5576,0.639 0.2627,-0.161 0.4654,-2.635 0.4654,-5.683 0,-4.431 0.1334,-5.447 0.7268,-5.675 0.3987,-0.154 0.8747,-0.134 1.0574,0.05 0.1827,0.182 0.5441,3.011 0.8028,6.286 0.5227,6.607 0.5467,6.647 4.4697,7.366 l 1.6469,0.301 -0.027,-6.922 -0.027,-6.923 -3.9711,-0.824 c -12.6133,-2.617 -22.5756,-10.197 -22.5276,-17.142 0.04,-6.219 3.995,-10.605 12.896,-14.31 12.8266,-5.34 36.4357,-7.499 51.8813,-4.743 2.2482,0.4 2.6269,0.335 4.1857,-0.723 2.1122,-1.432 5.2312,-2.386 10.7478,-3.285 2.3296,-0.38 4.3938,-0.692 4.5871,-0.692 0.1947,0 0.3534,-0.628 0.3534,-1.392 0,-3.722 1.7482,-4.98 9.8037,-7.054 8.9902,-2.315 9.609,-2.206 15.5469,2.756 2.783,2.324 3.6177,2.788 4.6618,2.585 0.6987,-0.134 8.7316,-1.468 17.8525,-2.963 9.1196,-1.493 16.7111,-2.844 16.8684,-3.003 0.1573,-0.157 0.5987,-1.937 0.9801,-3.955 0.38,-2.017 0.9401,-3.825 1.2415,-4.019 0.3027,-0.192 1.3161,-0.352 2.2522,-0.356 0.9374,0 4.1391,-0.43 7.1141,-0.946 l 5.4112,-0.941 3.3897,1.963 c 2.8816,1.668 3.7537,1.952 5.8232,1.894 2.0669,-0.05 22.129,-3.028 37.1158,-5.494 2.3989,-0.395 13.8868,-2.204 25.5306,-4.023 11.6426,-1.819 28.895,-4.565 38.3386,-6.103 9.4437,-1.538 20.4515,-3.119 24.4612,-3.513 4.0111,-0.395 9.3036,-1.033 11.7612,-1.421 5.1925,-0.818 13.0187,-0.908 19.0513,-0.219 4.9298,0.563 19.314,3.76 22.3143,4.961 1.1321,0.453 4.3017,2.621 7.0434,4.817 4.5658,3.659 8.1101,6.102 17.2137,11.871 4.2751,2.708 6.738,4.988 9.689,8.969 4.4845,6.047 4.4018,5.574 4.5658,26.161 l 0.1454,17.991 1.2668,0.28 c 10.0183,2.214 13.7894,4.536 16.195,9.975 1.2054,2.724 1.6655,10.035 0.8454,13.452 -0.6988,2.916 -0.7694,2.739 3.467,8.726 5.4366,7.679 9.3303,16.66 9.9984,23.06 0.2506,2.388 0.156,2.8 -0.9228,4.045 -1.1748,1.357 -1.2295,1.37 -2.5069,0.605 -1.2695,-0.759 -1.3628,-0.742 -3.2644,0.624 -5.6659,4.069 -10.9878,2.285 -20.054,-6.72 l -5.5073,-5.471 -0.2346,1.94 c -0.2147,1.772 -0.7921,56.283 -1.6669,157.415 -0.304,35.154 -0.4134,39.053 -1.1628,41.396 -3.1043,9.716 -10.7184,15.188 -28.0988,20.201 -4.5952,1.325 -20.8835,5.091 -33.7435,7.799 -10.9331,2.305 -13.2814,3.682 -19.4993,11.443 -9.2783,11.58 -18.6513,18.895 -34.2182,26.707 -16.683,8.371 -32.8354,12.005 -50.2958,11.315 -10.6851,-0.421 -17.7912,-1.766 -27.9896,-5.3 -2.5869,-0.897 -7.5621,-2.355 -11.0544,-3.24 -7.9048,-2.003 -11.5759,-3.258 -18.4686,-6.309 -2.9856,-1.322 -5.9593,-2.402 -6.61,-2.402 -0.6494,0 -3.371,0.516 -6.0459,1.147 -6.4834,1.53 -18.5033,4.127 -113.2943,24.475 -2.9763,0.638 -14.9362,3.181 -26.5787,5.651 -43.2098,9.164 -44.8073,9.53 -57.6206,13.232 -13.2494,3.827 -23.9051,4.791 -35.5223,3.212 z m 20.7995,-3.265 c 2.791,-0.39 8.1422,-1.435 11.8945,-2.323 25.588,-6.061 23.5585,-5.616 90.0853,-19.8 22.5089,-4.799 45.6887,-9.765 51.5106,-11.035 5.8219,-1.27 16.9737,-3.693 24.7825,-5.384 7.8075,-1.692 18.8926,-4.136 24.6305,-5.434 5.7393,-1.296 10.9412,-2.357 11.5586,-2.357 0.6174,0 1.1241,-0.172 1.1241,-0.382 0,-0.632 -5.6513,-5.105 -9.373,-7.422 -1.9148,-1.192 -4.8351,-3.203 -6.4873,-4.471 -1.6535,-1.267 -3.5364,-2.436 -4.1844,-2.599 -2.0723,-0.52 -6.5807,0.258 -26.2921,4.531 -10.6077,2.301 -28.1775,6.112 -39.0453,8.469 -39.1907,8.505 -102.7759,21.956 -113.3769,23.984 -14.7002,2.814 -28.0216,3.756 -40.7189,2.882 -15.7803,-1.087 -25.888,-4.337 -34.0715,-10.956 l -3.2923,-2.663 -1.3495,1.369 c -1.6228,1.647 -2.7189,1.709 -5.4899,0.311 -1.5495,-0.781 -2.4349,-1.673 -3.3817,-3.41 -1.1667,-2.14 -1.2828,-2.233 -1.2934,-1.03 -0.027,3.316 1.1068,8.247 2.5042,10.89 0.8161,1.542 3.203,4.611 5.3059,6.821 9.785,10.284 24.2958,17.54 39.9388,19.97 5.7739,0.897 18.7299,0.917 25.0212,0.04 z m 4.5405,-24.676 c 9.2236,-1.411 15.1562,-2.634 83.5619,-17.237 15.1348,-3.231 31.3298,-6.704 35.9863,-7.719 4.6578,-1.015 14.9242,-3.238 22.8157,-4.941 7.8915,-1.703 20.4874,-4.451 27.9895,-6.108 7.5034,-1.658 14.7309,-3.154 16.0617,-3.325 l 2.4189,-0.31 -3.0177,-3.769 c -3.447,-4.304 -3.1723,-4.071 -10.9758,-9.338 -24.8345,-16.76 -38.5519,-44.422 -38.7053,-78.048 -0.093,-20.519 4.7565,-39.779 14.8096,-58.802 8.2875,-15.683 16.6177,-25.973 32.558,-40.22 3.4123,-3.051 4.0244,-3.791 3.2323,-3.907 -0.5387,-0.08 -5.2912,0.605 -10.5611,1.519 -16.3163,2.829 -46.1994,8.172 -58.0366,10.379 -6.21,1.156 -17.9485,3.279 -26.0867,4.717 -8.1368,1.437 -14.8735,2.692 -14.9695,2.788 -0.093,0.09 0.1333,0.776 0.5054,1.512 0.5227,1.027 0.7334,4.201 0.9094,13.672 l 0.228,12.336 1.7655,1.955 c 2.6616,2.946 3.6951,5.673 3.7364,9.849 0.027,3.096 -0.1627,3.945 -1.5108,6.685 -2.4909,5.059 -7.2647,8.441 -12.84,9.095 -7.7941,0.916 -14.5801,-5.216 -14.6268,-13.217 -0.027,-4.687 1.1548,-7.479 4.6298,-10.937 l 2.9856,-2.97 v -12.949 c 0,-12.109 -0.053,-12.935 -0.824,-12.716 -0.4521,0.133 -7.7022,1.425 -16.111,2.883 -8.4089,1.457 -20.5808,3.578 -27.0495,4.711 -24.7145,4.334 -31.3085,5.074 -44.9246,5.045 -9.8476,-0.03 -13.08,-0.276 -22.8156,-1.803 -3.9618,-0.622 -12.1093,-2.54 -14.2175,-3.35 -0.38,-0.147 -0.1467,0.94 0.6414,2.995 2.7096,7.066 3.1217,9.322 3.171,17.338 0.053,8.541 -0.4867,11.364 -3.2577,17.031 -1.7482,3.578 -5.3739,7.939 -7.8874,9.492 -1.4589,0.9 -3.8151,1.58 -7.5715,2.182 l -1.8388,0.296 0.3333,38.186 c 0.3681,42.371 1.0401,78.788 1.4748,79.92 0.2494,0.652 0.4388,0.659 1.6295,0.07 1.9176,-0.957 3.4897,-0.391 5.6113,2.02 3.1523,3.582 5.6819,11.685 5.6819,18.206 0,2.662 0.1573,3.192 1.2935,4.385 6.1673,6.462 16.9777,11.158 29.519,12.821 2.0695,0.275 4.3978,0.588 5.1752,0.697 0.7761,0.107 6.1739,0.12 11.9945,0.04 7.7475,-0.12 12.3346,-0.425 17.1085,-1.156 z m 51.1025,-53.454 c -10.8091,-2.868 -17.5698,-11.886 -17.6018,-23.478 -0.013,-4.974 0.6881,-8.184 2.7803,-12.701 2.0429,-4.41 3.9204,-6.853 7.0314,-9.152 2.2162,-1.636 2.6963,-2.275 3.3017,-4.379 0.7961,-2.766 1.4735,-11.049 1.9335,-23.632 0.3947,-10.837 1.2388,-13.176 5.5486,-15.375 3.9697,-2.027 9.2729,-1.889 12.6213,0.326 2.2469,1.486 3.0603,2.749 4.6484,7.212 0.7054,1.982 1.6122,4.479 2.0149,5.55 0.5214,1.388 0.8521,4.957 1.1495,12.397 l 0.416,10.449 3.7884,3.598 c 6.7007,6.362 8.2795,10.005 8.2888,19.122 0,5.375 -0.144,6.57 -1.2454,9.879 -3.3777,10.155 -11.1558,17.68 -20.8662,20.187 -3.5763,0.923 -10.325,0.923 -13.8094,0 z m 12.4666,-2.544 c 2.0229,-0.517 4.8019,-1.455 6.1753,-2.084 2.487,-1.138 7.2314,-5.121 7.2314,-6.07 0,-0.274 -0.688,0.168 -1.5294,0.983 -0.8401,0.814 -2.9043,2.1 -4.5858,2.857 -7.8088,3.518 -14.9496,3.167 -21.2929,-1.043 -5.5406,-3.677 -8.2715,-9.73 -7.7461,-17.171 0.3093,-4.385 1.6655,-8.114 4.4124,-12.126 2.2643,-3.307 2.3296,-4.259 0.3814,-5.535 -1.0668,-0.699 -1.2508,-0.698 -2.3336,0.01 -2.7376,1.794 -5.9432,7.386 -7.3207,12.772 -2.5003,9.778 0.7054,19.328 8.1368,24.235 5.8153,3.841 11.8212,4.872 18.4712,3.17 z m 3.015,-5.595 c 5.7646,-1.795 11.1652,-6.545 13.8254,-12.159 1.3828,-2.92 1.5055,-3.563 1.5029,-7.883 0,-3.931 -0.1867,-5.11 -1.1162,-7.172 -1.3534,-3.004 -4.0124,-6.828 -4.4458,-6.395 -0.8107,0.812 -0.2453,4.504 1.0962,7.142 1.1347,2.234 1.4108,3.371 1.4108,5.809 0,8.17 -4.5352,14.632 -11.8732,16.916 -3.3244,1.035 -5.5726,1.096 -8.4542,0.228 -5.7046,-1.716 -9.1143,-6.273 -9.0276,-12.06 0.04,-3.023 0.8921,-5.447 3.3976,-9.734 0.7935,-1.359 0.9348,-3.471 1.4602,-21.876 0.3187,-11.204 0.7841,-21.455 1.0348,-22.781 0.5987,-3.175 3.0216,-6.072 5.6766,-6.787 2.4282,-0.655 3.9124,-0.288 6.1926,1.527 2.3162,1.844 1.6095,0.269 -0.8468,-1.888 -5.7539,-5.052 -14.5148,-1.405 -16.179,6.735 -0.4467,2.185 -0.9467,9.217 -1.8548,26.109 l -0.3681,6.821 1.4815,1.881 c 2.3176,2.943 2.667,3.818 1.9736,4.929 -0.3267,0.524 -0.7428,0.952 -0.9255,0.952 -0.8187,0 -4.2524,5.639 -5.0951,8.37 -4.3498,14.08 7.142,25.671 21.1341,21.316 z m 0.168,-6.436 c 4.5925,-1.565 8.3489,-6.386 9.2276,-11.842 0.5161,-3.207 0.2947,-4.39 -1.4761,-7.88 -1.0188,-2.01 -1.2335,-3.207 -1.4722,-8.232 -0.6907,-14.559 -1.7375,-29.861 -2.0628,-30.188 -0.1961,-0.196 -1.6015,0.271 -3.1217,1.038 -3.099,1.564 -5.5272,1.769 -8.1142,0.689 -0.928,-0.388 -1.7441,-0.705 -1.8108,-0.705 -0.4014,0 -0.8628,9.296 -1.1308,22.814 l -0.308,15.524 -1.9416,2.946 c -3.1723,4.815 -3.1763,9.525 0,13.129 2.863,3.262 7.5488,4.3 12.2226,2.707 z m 15.7363,-25.276 c -1.1188,-2.442 -4.4684,-6.702 -4.9178,-6.253 -0.12,0.12 1.1228,2.229 2.7576,4.692 1.6335,2.463 3.051,4.396 3.1496,4.298 0.093,-0.09 -0.3467,-1.331 -0.9894,-2.737 z m -16.8364,-35.906 c 0.5361,-0.683 0.9748,-1.712 0.9748,-2.289 0,-1.619 -1.7469,-3.53 -3.2097,-3.513 -3.2216,0.04 -4.8965,4.043 -2.6362,6.302 1.2014,1.202 3.7363,0.942 4.8711,-0.5 z m 40.3482,29.45 c -8.0235,-2.028 -13.4508,-8.005 -15.2416,-16.785 -1.8095,-8.874 2.8563,-20.095 10.5451,-25.355 4.0617,-2.781 7.6061,-4.006 12.4212,-4.297 9.2477,-0.557 16.2057,3.316 19.8154,11.032 1.8535,3.962 2.3242,10.373 1.1148,15.192 -1.7122,6.814 -6.8394,14.28 -11.8119,17.194 -4.6485,2.723 -12.4679,4.126 -16.843,3.019 z m 9.3236,-3.194 c 0.7787,-0.463 0.6094,-0.507 -1.0361,-0.264 -1.3628,0.2 -2.9817,-0.01 -5.2579,-0.709 -4.3444,-1.32 -7.8181,-4.399 -9.7237,-8.618 -2.3429,-5.189 -1.5815,-12.268 1.9109,-17.778 2.819,-4.445 8.1915,-7.988 13.6281,-8.985 6.2313,-1.143 12.6159,1.915 16.795,8.045 0.6787,0.994 0.6561,0.726 -0.1507,-1.737 -1.7481,-5.341 -6.6153,-9.27 -13.0373,-10.522 -6.1566,-1.2 -13.7014,1.453 -18.5312,6.518 -11.0905,11.627 -8.3609,29.19 5.3072,34.158 2.3882,0.868 8.5649,0.802 10.0957,-0.106 z m 2.8136,-3.596 c 1.3948,-0.639 1.3788,-0.647 -1.3081,-0.684 -7.0274,-0.09 -11.1999,-4.771 -10.7718,-12.062 0.12,-2.021 1.0948,-3.221 2.3069,-2.836 0.8654,0.275 0.9934,0.754 1.1401,4.254 0.144,3.427 0.32,4.111 1.3415,5.219 3.1696,3.434 8.6089,3.371 12.7213,-0.149 3.7217,-3.186 4.8085,-7.962 2.7696,-12.175 -1.4415,-2.976 -3.6297,-4.154 -7.4754,-4.021 -3.3844,0.12 -6.6047,-0.273 -6.6047,-0.798 0,-0.553 6.2833,-2.403 8.1675,-2.403 3.415,0 6.9594,2.674 8.7302,6.586 l 0.9575,2.116 v -1.778 c 0,-0.979 -0.2907,-2.501 -0.6588,-3.382 -0.9147,-2.188 -4.1684,-5.625 -6.2886,-6.641 -7.1128,-3.407 -16.299,0.286 -20.2568,8.142 -2.8136,5.584 -2.8696,10.78 -0.1653,15.185 1.3668,2.228 4.8365,4.883 7.3234,5.603 2.2242,0.645 6.47,0.552 8.0608,-0.176 z m -5.8606,-16.998 c -4.3551,-1.171 -5.1792,-2.848 -2.5669,-5.226 l 1.1401,-1.037 1.8868,1.849 c 1.7029,1.668 2.8137,3.535 2.8137,4.726 0,0.547 -0.12,0.535 -3.2737,-0.312 z m 178.1769,118.099 c 16.9324,-1.114 38.5733,-10.149 53.4842,-22.329 3.9804,-3.251 14.1907,-13.716 19.0806,-19.557 6.4913,-7.751 10.333,-14.395 17.5258,-30.302 5.1072,-11.29 6.6086,-17.291 7.3501,-29.353 1.2281,-19.977 -4.2165,-39.727 -14.6935,-53.307 -3.151,-4.084 -10.4345,-10.893 -14.6789,-13.723 -14.6962,-9.797 -31.3979,-13.517 -49.8291,-11.102 -46.5021,6.096 -88.0783,48.042 -94.8817,95.726 -0.7387,5.181 -0.7294,19.403 0.013,24.226 1.3775,8.91 3.7977,16.46 7.5928,23.693 10.025,19.106 25.5306,31.07 45.518,35.12 4.3618,0.884 13.2093,1.599 16.7857,1.356 1.2935,-0.09 4.3218,-0.289 6.7287,-0.448 z m -20.6061,-4.457 c -36.8051,-6.515 -58.5767,-40.289 -52.4574,-81.376 1.4748,-9.909 4.6992,-19.789 9.8224,-30.103 14.1187,-28.427 40.8481,-50.523 70.0285,-57.89 19.1086,-4.823 36.369,-3.47 51.4332,4.034 15.847,7.894 27.1615,21.467 32.65,39.166 3.9165,12.632 3.9831,30.46 0.1734,46.171 -3.643,15.014 -11.7759,31.029 -21.8796,43.08 -4.9418,5.894 -13.4293,14.031 -18.7379,17.963 -13.6321,10.098 -29.5097,16.812 -45.3953,19.195 -6.6687,1 -19.302,0.882 -25.6373,-0.24 z m 26.5787,-2.511 c 25.5266,-4.68 47.9903,-18.741 64.1933,-40.184 14.0547,-18.596 21.8515,-42.081 21.0408,-63.374 -0.4414,-11.573 -2.1109,-18.671 -6.6474,-28.251 -8.8022,-18.594 -24.3958,-30.627 -44.5512,-34.384 -3.0443,-0.566 -6.7914,-0.821 -12.1612,-0.822 -6.9674,0 -8.4969,0.152 -14.9296,1.517 -16.1283,3.425 -29.1936,9.556 -43.1444,20.245 -6.6593,5.103 -16.375,15.049 -21.0608,21.563 -9.601,13.347 -16.035,28.517 -19.01,44.829 -1.1694,6.407 -1.1707,20.673 0,27.048 1.8602,10.157 6.4194,21.17 11.6852,28.226 3.3977,4.551 9.8651,10.83 14.0481,13.638 8.3622,5.613 18.726,9.323 30.0778,10.764 3.1963,0.407 16.7484,-0.133 20.4634,-0.815 z m -21.6395,-20.126 c -13.8801,-1.762 -26.9028,-9.695 -34.5529,-21.046 -9.2863,-13.779 -11.3598,-32.746 -5.6259,-51.474 1.7548,-5.729 8.1595,-19.662 10.5144,-22.869 0.9654,-1.315 1.5148,-2.391 1.2228,-2.391 -0.2934,0 -0.8934,0.633 -1.3348,1.408 -0.4401,0.775 -0.9401,1.409 -1.1095,1.412 -0.5173,0 -4.6311,-4.763 -4.6311,-5.369 0,-1.222 1.2295,-2.276 2.2709,-1.946 0.5627,0.178 1.0228,0.496 1.0228,0.706 0,0.21 0.3133,1.131 0.696,2.047 l 0.6961,1.667 1.6735,-1.675 c 1.4975,-1.496 1.7349,-1.592 2.2442,-0.901 0.5001,0.676 0.8615,0.41 2.9217,-2.144 3.5203,-4.362 9.4076,-10.112 13.8747,-13.551 2.1843,-1.682 5.0366,-4.019 6.3394,-5.194 4.3111,-3.89 8.6448,-6.489 14.4628,-8.672 l 2.2162,-0.832 -0.7414,-1.472 c -0.4081,-0.809 -1.2641,-2.029 -1.9015,-2.712 l -1.1602,-1.242 1.5669,-1.169 c 1.5615,-1.168 4.9698,-2.51 5.3658,-2.114 0.1201,0.12 -0.1066,1.115 -0.5027,2.223 -0.3907,1.108 -0.7094,2.854 -0.7094,3.878 v 1.864 l 1.9922,-0.336 c 1.0961,-0.185 2.843,-0.639 3.8818,-1.007 5.4739,-1.942 20.8128,-2.661 27.9442,-1.308 7.9341,1.504 16.0563,4.99 20.4767,8.787 5.2472,4.508 10.7104,13.666 13.8788,23.267 4.1591,12.602 4.4231,28.095 0.6974,40.951 -5.7806,19.947 -18.3952,37.275 -35.4303,48.665 -15.1002,10.097 -32.3167,14.575 -48.2596,12.549 z m 16.927,-11.41 c 19.062,-4.974 35.241,-16.686 46.5848,-33.726 11.2025,-16.827 14.6735,-35.321 9.793,-52.171 -2.0055,-6.919 -6.0126,-14.567 -9.873,-18.841 -1.8895,-2.09 -7.1474,-6.319 -7.4648,-6.003 -0.1066,0.107 0.9268,1.676 2.2936,3.493 5.1565,6.855 9.4836,17.043 10.8705,25.596 0.9347,5.768 0.9307,15.962 0,21.39 -3.3524,19.326 -17.8965,39.669 -35.721,49.959 -10.1117,5.838 -23.2037,8.74 -34.5942,7.665 -7.5075,-0.708 -13.1174,-2.404 -21.6369,-6.54 l -2.1002,-1.021 1.6468,1.465 c 4.7311,4.205 12.5053,8.256 18.4659,9.625 4.7818,1.096 15.8669,0.642 21.7462,-0.891 z m -3.1683,-7.101 c 18.4966,-4.059 33.4914,-15.279 43.3138,-32.41 6.9114,-12.052 10.105,-26.712 8.5409,-39.192 -2.7563,-21.978 -17.1405,-37.725 -36.4478,-39.899 -1.5521,-0.174 -2.7163,-0.213 -2.5869,-0.08 0.1333,0.134 2.2456,1.007 4.7045,1.953 10.4717,4.031 18.5245,11.178 23.7437,21.076 11.6319,22.059 4.0111,52.99 -17.4577,70.862 -7.3835,6.145 -14.8416,10.091 -23.6918,12.532 -6.0846,1.679 -15.7523,2.099 -21.8449,0.95 -8.2169,-1.551 -15.1722,-5.006 -20.8755,-10.372 -4.0111,-3.774 -6.7953,-7.487 -9.2809,-12.381 -0.9575,-1.883 -1.8176,-3.345 -1.9136,-3.249 -0.4893,0.488 1.5095,6.176 3.247,9.241 2.3136,4.081 8.2329,10.543 12.3,13.428 5.5512,3.938 12.1145,6.709 18.9579,8.005 4.5098,0.855 14.3775,0.619 19.2913,-0.459 z m -6.5607,-6.59 c 23.8945,-3.396 45.0327,-24.114 49.6985,-48.71 0.9694,-5.107 0.9601,-15.362 -0.013,-20.108 -2.2176,-10.771 -8.2422,-20.367 -16.4924,-26.269 -3.543,-2.534 -10.7278,-5.987 -14.5001,-6.97 -6.0633,-1.579 -15.3123,-0.481 -20.5021,2.434 -2.2803,1.28 -3.131,2.316 -1.5042,1.829 5.3219,-1.593 16.2617,-1.512 22.1463,0.164 22.7183,6.474 33.9794,28.311 27.5908,53.5 -2.2936,9.037 -7.4888,17.871 -14.7602,25.099 -7.4794,7.433 -15.8029,12.169 -25.76,14.659 -5.9859,1.496 -15.6976,1.492 -21.3301,-0.01 -16.011,-4.27 -25.9667,-16.173 -28.991,-34.663 l -0.8468,-5.173 -0.56,2.352 c -0.9374,3.943 -0.7841,10.049 0.3453,13.709 3.2604,10.565 10.0744,18.966 19.162,23.624 9.0649,4.646 16.5084,5.929 26.3214,4.534 z m 6.33,-7.238 c 18.83,-4.982 34.1115,-21.27 38.2253,-40.744 1.0241,-4.845 1.0654,-13.89 0.08,-18.414 -3.6977,-17.078 -16.6351,-28.404 -34.2849,-30.018 -5.6419,-0.516 -15.8829,1.346 -20.6261,3.749 -5.3485,2.711 -15.2109,12.097 -20.9981,19.986 -8.2662,11.268 -10.5064,17.3 -10.5064,28.287 0,6.164 0.9134,11.01 3.0909,16.384 2.1043,5.196 4.3045,8.469 8.3289,12.389 2.6256,2.559 4.3298,3.707 8.5155,5.742 2.8777,1.399 6.714,2.867 8.5249,3.26 4.6071,1.005 14.7082,0.685 19.6433,-0.621 z m -18.4672,-3.108 c -10.5811,-2.384 -18.2152,-8.276 -22.5556,-17.409 -2.947,-6.196 -3.5271,-8.939 -3.5351,-16.699 0,-10.179 1.9896,-17.34 7.3088,-26.16 4.5324,-7.515 10.9571,-13.31 19.0166,-17.15 15.1482,-7.216 29.1056,-6.487 40.5548,2.121 5.0419,3.789 9.8277,11.37 11.7479,18.608 1.1468,4.325 1.1441,14.416 0,19.758 -3.6204,16.831 -17.0218,31.049 -33.9502,36.019 -5.3218,1.561 -13.8414,1.98 -18.5819,0.912 z m 15.4002,-2.866 c 7.6942,-1.701 14.9136,-5.683 21.2102,-11.7 8.8263,-8.431 13.5681,-18.755 14.0535,-30.596 0.5867,-14.323 -5.4193,-25.545 -16.6751,-31.157 -2.3922,-1.193 -4.4631,-2.055 -4.6018,-1.916 -0.1387,0.139 1.2015,1.116 2.979,2.172 8.3675,4.971 14.3948,15.289 15.0162,25.704 1.2561,21.044 -13.9948,40.75 -34.2729,44.285 -10.633,1.853 -20.2167,-1.174 -27.5334,-8.697 -1.5442,-1.588 -3.5351,-4.067 -4.4232,-5.51 -0.8894,-1.443 -1.9962,-3.079 -2.4615,-3.638 -0.8415,-1.01 -0.8441,-1.006 -0.5628,0.631 0.156,0.905 1.1468,3.427 2.2003,5.605 5.8526,12.084 20.1367,18.119 35.0715,14.817 z m -1.2521,-6.04 c 8.6796,-1.841 17.8578,-8.397 23.4424,-16.746 6.7034,-10.021 8.7436,-21.774 5.5112,-31.742 -1.1334,-3.498 -2.9416,-7.153 -3.3403,-6.754 -0.093,0.09 0.3534,1.971 0.9961,4.17 5.7499,19.674 -5.6006,41.396 -25.0772,47.99 -4.3151,1.46 -5.0579,1.568 -11.0678,1.601 -3.5444,0.03 -6.2967,0.176 -6.1167,0.348 0.1801,0.172 1.3869,0.634 2.6803,1.026 2.9857,0.904 8.9743,0.953 12.972,0.107 z m 0.2,-5.422 c 9.5477,-3.013 18.914,-12.074 22.7264,-21.987 2.0802,-5.407 2.6149,-8.811 2.2975,-14.633 -0.3627,-6.695 -1.5668,-10.317 -5.1872,-15.6 -1.6295,-2.378 -4.5058,-5.664 -4.9591,-5.664 -0.1667,0 -0.2307,1.641 -0.1427,3.646 0.4094,9.413 -4.1831,20.127 -12.2799,28.652 -8.0662,8.491 -17.5058,13.576 -29.4311,15.854 l -5.3378,1.019 2.9643,2.507 c 3.335,2.82 8.2075,5.462 12.4146,6.731 3.9457,1.192 12.3172,0.932 16.935,-0.525 z m -27.6628,-36.033 c 6.2766,-2.349 12.1973,-7.378 16.571,-14.078 2.5856,-3.962 4.8925,-8.553 5.4139,-10.778 0.3147,-1.346 0.3001,-1.356 -1.4255,-1.076 -4.8431,0.785 -13.56,6.547 -19.454,12.858 -2.5295,2.709 -3.9404,4.777 -5.6912,8.346 -2.9616,6.037 -2.991,6.59 -0.328,6.149 1.0987,-0.183 3.311,-0.823 4.9138,-1.421 z m 31.4446,-50.044 c -0.1707,-0.276 -0.5348,-0.503 -0.8095,-0.503 -0.312,0 -0.2773,0.271 0.093,0.717 0.6454,0.778 1.2215,0.605 0.7148,-0.214 z m 77.8359,37.401 c 0,-0.107 1.2642,-0.971 2.811,-1.91 3.7524,-2.278 3.9364,-2.711 0.9934,-2.32 -1.3175,0.175 -2.3936,0.202 -2.3936,0.07 0,-0.265 3.4844,-1.444 5.7473,-1.943 1.0774,-0.238 1.3935,-0.07 2.0002,1.111 1.1668,2.256 0.9228,2.67 -2.3429,3.976 -2.6056,1.045 -6.8154,1.677 -6.8154,1.026 z m -116.5506,-8.324 c -1.8908,-1.21 -2.3709,-2.828 -1.3174,-4.437 1.2454,-1.899 2.8109,-2.397 4.7044,-1.494 2.2269,1.062 2.4763,2.282 0.9841,4.826 -1.3801,2.358 -2.1228,2.546 -4.3711,1.105 z m 2.6923,-1.794 c 0.7014,-1.31 0.6001,-2.238 -0.2787,-2.575 -1.5828,-0.608 -2.7456,1.668 -1.4921,2.92 0.788,0.789 1.2067,0.708 1.7708,-0.345 z m 112.9169,1.654 c 0,-0.365 0.5827,-1.1 1.2935,-1.63 l 1.2934,-0.966 -2.3522,-0.03 c -2.2962,-0.03 -4.0311,-0.595 -3.2257,-1.067 0.2227,-0.133 2.0122,-0.61 3.9778,-1.069 3.9444,-0.919 5.7766,-0.708 6.5593,0.753 0.6894,1.29 -0.053,2.155 -3.0776,3.563 -2.6763,1.247 -4.4685,1.423 -4.4685,0.439 z m -106.9456,-8.738 c -1.8495,-2.199 -2.0002,-3.231 -0.6641,-4.567 0.7948,-0.795 1.5615,-1.108 2.4496,-1.001 l 1.2921,0.156 -1.0187,1.288 c -1.0081,1.277 -0.9535,2.243 0.1333,2.236 0.308,0 0.9401,-0.672 1.4055,-1.489 0.7654,-1.345 0.9161,-1.417 1.5775,-0.755 0.4627,0.462 0.6147,1.097 0.4147,1.727 -0.4921,1.552 -2.5949,3.813 -3.543,3.813 -0.4721,0 -1.3909,-0.633 -2.0429,-1.408 z m 101.3117,-0.301 c -1.5962,-1.343 -1.7495,-2.782 -0.3854,-3.637 0.6267,-0.393 1.0441,-0.276 1.9122,0.541 1.2241,1.149 3.1657,1.402 3.1657,0.412 0,-0.347 -0.5814,-0.895 -1.2922,-1.219 l -1.2921,-0.588 1.1095,-0.899 c 1.4241,-1.152 1.5894,-1.136 3.3203,0.32 1.3495,1.135 1.9869,3.016 1.0214,3.016 -0.2333,0 -1.3121,0.74 -2.3962,1.646 -2.3603,1.972 -3.223,2.04 -5.1632,0.408 z m -5.9713,-5.621 c -0.1573,-0.409 0.1667,-1.549 0.7201,-2.533 0.5534,-0.984 1.0068,-1.921 1.0068,-2.079 0,-0.456 -1.6829,-0.339 -3.9898,0.278 -1.5868,0.425 -2.2562,0.433 -2.6563,0.03 -0.72,-0.718 1.7829,-2.258 5.2339,-3.22 1.4228,-0.397 3.0443,-0.908 3.6004,-1.136 0.7507,-0.307 1.2094,-0.199 1.7642,0.415 1.0534,1.164 0.9694,1.572 -0.9348,4.55 -2.6816,4.191 -4.1231,5.313 -4.7445,3.695 z m -87.0716,-1.349 c -1.7148,-1.583 -1.7402,-1.655 -1.0374,-2.939 0.9067,-1.659 3.279,-2.151 3.279,-0.68 0,0.514 0.6347,1.571 1.4108,2.347 1.5908,1.592 1.7455,2.196 0.6667,2.609 -1.5161,0.583 -2.6069,0.244 -4.3191,-1.337 z m 71.182,-10.099 c -0.1467,-0.236 -0.053,-1.006 0.22,-1.71 0.6547,-1.722 0.252,-1.989 -0.7321,-0.486 -1.2534,1.915 -2.2349,1.592 -2.0188,-0.665 0.093,-1.035 0.093,-1.882 0,-1.882 -0.1067,0 -0.9268,0.652 -1.8336,1.448 -2.1829,1.915 -3.1083,1.221 -1.7535,-1.317 1.2441,-2.332 4.2525,-5.45 5.0139,-5.199 0.3387,0.106 0.7214,1.001 0.8507,1.976 l 0.2347,1.775 1.2508,-0.988 c 1.3161,-1.039 2.5643,-1.239 3.6097,-0.576 0.4921,0.312 0.2147,1.218 -1.2988,4.227 -1.7615,3.503 -2.8349,4.535 -3.5364,3.397 z m -41.1869,-5.415 c 0,-1.729 0.2467,-2.8 0.7654,-3.317 1.2041,-1.206 2.5736,-0.702 3.175,1.166 0.7134,2.221 1.3215,2.073 1.9375,-0.469 0.4347,-1.796 0.7068,-2.14 1.7869,-2.267 1.2614,-0.147 1.2734,-0.12 1.2734,2.706 0,2.227 -0.2066,3.06 -0.9401,3.795 -1.3454,1.344 -3.5523,1.229 -4.5124,-0.236 -0.4241,-0.647 -0.9348,-1.176 -1.1361,-1.176 -0.2014,0 -0.4987,0.529 -0.6601,1.176 -0.1627,0.646 -0.6094,1.176 -0.9921,1.176 -0.5294,0 -0.6974,-0.612 -0.6974,-2.554 z m 21.8942,0.704 c -0.284,-0.461 1.8562,-6.564 2.5443,-7.252 0.5121,-0.513 3.3163,0.09 3.3163,0.708 0,0.257 -0.856,1.933 -1.9015,3.725 -1.2948,2.217 -2.1882,3.258 -2.7949,3.258 -0.4908,0 -1.0148,-0.197 -1.1642,-0.439 z m -8.4795,-0.492 c -0.3654,-0.591 0.5721,-4.163 1.4535,-5.538 0.516,-0.806 1.1228,-1.058 2.5482,-1.058 1.0295,0 1.8709,0.09 1.8709,0.198 0,0.107 -0.7614,1.696 -1.6922,3.529 -1.3708,2.697 -1.9002,3.329 -2.7936,3.329 -0.6067,0 -1.2308,-0.206 -1.3868,-0.46 z m -378.7148,159.033 c 1.6295,-3.154 1.2735,-10.928 -0.7494,-16.337 -1.1961,-3.196 -3.4643,-6.284 -4.6151,-6.284 -1.2388,0 -1.7469,0.964 -0.7908,1.498 2.2229,1.244 5.0352,10.156 5.0845,16.114 0.027,3.302 -0.093,3.832 -1.0027,4.574 -1.1481,0.929 -0.9228,1.804 0.4627,1.804 0.52,0 1.2014,-0.58 1.6108,-1.369 z m -11.5238,-6.408 c -0.6788,-9.334 -1.2388,-11.973 -3.5177,-16.57 l -2.0402,-4.113 -0.04,5.851 c -0.04,7.063 0.6547,10.253 3.619,16.616 1.1761,2.526 2.2016,4.53 2.2789,4.454 0.08,-0.08 -0.067,-2.884 -0.3054,-6.238 z m 7.5394,1.074 c 0,-5.606 -2.3736,-13.524 -4.0337,-13.524 -0.8921,0 -0.8761,4.333 0.04,8.624 0.7627,3.602 2.7523,8.311 3.511,8.311 0.3027,0 0.4934,-1.327 0.4894,-3.411 z m 309.0317,1.785 c -0.1067,-0.12 -4.0258,-4.086 -8.7076,-8.819 -12.0252,-12.158 -17.4071,-19.762 -21.8529,-30.88 -8.6622,-21.662 -7.8715,-47.571 2.2069,-72.282 14.2414,-34.913 46.9635,-63.066 81.471,-70.096 8.0942,-1.648 16.671,-2.243 23.4331,-1.624 16.5497,1.514 28.3802,6.34 42.3883,17.291 4.7952,3.749 9.6383,7.153 10.1784,7.153 0.4574,0 -1.6309,-3.682 -3.7364,-6.587 -2.0162,-2.78 -6.7967,-7.459 -10.3237,-10.106 -1.5522,-1.164 -5.5739,-3.491 -8.9383,-5.168 -16.1003,-8.035 -33.7648,-10.077 -53.0201,-6.136 -34.4195,7.048 -67.0322,33.718 -83.4192,68.218 -7.8274,16.482 -11.1771,30.902 -11.2011,48.217 -0.027,16.006 2.8349,28.285 9.637,41.445 4.9578,9.592 13.632,19.859 20.5194,24.284 3.395,2.182 12.3933,6.212 11.3652,5.09 z m -29.235,-18.715 c -13.2454,-19.734 -18.0072,-43.246 -14.0508,-69.387 5.4019,-35.68 29.507,-69.915 62.8691,-89.289 21.8996,-12.718 47.6382,-17.546 68.8951,-12.926 5.1538,1.122 12.7773,3.57 15.6882,5.04 1.2548,0.633 2.3763,1.056 2.4909,0.941 0.6641,-0.664 -8.2821,-6.333 -13.5533,-8.589 -21.8809,-9.369 -45.6394,-8.877 -70.3046,1.456 -21.4648,8.993 -41.6002,26.12 -55.7483,47.418 -4.6445,6.993 -11.9853,21.763 -14.3042,28.778 -8.0235,24.285 -8.7982,47.717 -2.2562,68.211 2.3736,7.435 7.4434,17.519 11.1531,22.186 2.7523,3.462 10.9798,10.796 11.5145,10.261 0.1201,-0.12 -0.9587,-1.964 -2.3935,-4.1 z m -288.6936,-62.897 c -0.292,-32.198 -0.5787,-58.588 -0.6361,-58.642 -0.053,-0.05 -1.0387,-0.168 -2.1815,-0.25 l -2.0762,-0.148 0.1066,11.514 c 0.5161,57.739 1.0748,94.679 1.4615,96.589 0.2547,1.257 1.1428,4.433 1.9736,7.057 1.0774,3.407 1.5641,4.437 1.7001,3.597 0.1067,-0.647 -0.053,-27.519 -0.344,-59.717 z m 277.6538,57.392 c -2.4056,-3.007 -3.5057,-3.56 -1.2828,-0.645 1.5095,1.979 2.8989,3.44 3.271,3.44 0.1373,0 -0.7574,-1.257 -1.9882,-2.795 z m 22.1929,-1.321 c -3.7257,-7.704 -5.7299,-14.4 -7.0714,-23.624 -1.0681,-7.349 -0.7507,-21.931 0.6468,-29.651 5.1791,-28.626 23.017,-56.003 48.3142,-74.154 18.7393,-13.446 39.3787,-20.489 60.2022,-20.544 8.6502,-0.03 15.0949,1.007 22.8957,3.654 2.5429,0.864 4.6231,1.511 4.6231,1.438 0,-0.447 -6.646,-4.322 -10.8198,-6.309 -20.4674,-9.74 -45.7806,-8.564 -69.8564,3.246 -10.9812,5.385 -19.8621,11.739 -29.5644,21.154 -20.4768,19.867 -32.7367,45.418 -34.7169,72.346 -1.2108,16.472 2.7003,34.307 10.2731,46.847 1.6868,2.794 6.614,9.713 6.9153,9.713 0.08,0 -0.7467,-1.852 -1.8415,-4.116 z m -29.6257,-9.056 c -0.16,-0.258 -0.4894,-0.47 -0.7334,-0.47 -0.244,0 -0.4427,0.212 -0.4427,0.47 0,0.259 0.3294,0.471 0.7334,0.471 0.4027,0 0.6027,-0.212 0.4427,-0.471 z m 199.9271,-6.124 c 25.4507,-5.489 31.654,-7.24 40.0868,-11.312 7.8155,-3.775 12.3306,-8.756 14.4375,-15.931 0.7561,-2.575 0.9774,-7.776 0.4614,-10.892 l -0.2787,-1.685 -2.2909,2.23 c -2.615,2.549 -10.6464,6.734 -16.6631,8.685 -4.7591,1.543 -15.0655,4.038 -23.2863,5.638 -8.0115,1.56 -13.4401,2.919 -15.1163,3.786 -2.6242,1.357 -4.4831,3.922 -6.9873,9.644 -1.3668,3.12 -3.5151,7.387 -4.7739,9.481 -1.2588,2.094 -2.2882,3.873 -2.2882,3.953 0,0.08 0.264,0.05 0.5881,-0.05 0.3227,-0.106 7.5741,-1.704 16.1109,-3.545 z m -209.0254,-0.344 c -0.2,-0.452 -1.1254,-2.43 -2.0548,-4.393 -2.1576,-4.555 -4.3045,-11.26 -5.5046,-17.186 -1.6082,-7.944 -2.0602,-14.556 -1.8335,-26.828 0.12,-6.676 0.04,-11.201 -0.1974,-10.775 -0.6107,1.092 -1.1228,0.896 -1.7748,-0.679 -0.6214,-1.499 -1.3375,-1.767 -2.2576,-0.847 -0.6907,0.692 -0.7067,0.203 -0.067,-2.092 0.6507,-2.346 1.6015,-2.243 3.1683,0.337 0.7014,1.156 1.4148,2.108 1.5855,2.118 0.1707,0.01 0.5561,-1.52 0.8561,-3.397 0.8148,-5.092 2.675,-12.896 4.0058,-16.809 0.648,-1.906 1.1787,-3.617 1.1787,-3.801 0,-0.608 -6.1312,-2.967 -6.5446,-2.517 -1.2762,1.389 -4.8752,16.937 -5.7606,24.892 -2.1882,19.658 2.4922,42.741 11.5878,57.155 0.7348,1.165 1.8349,2.911 2.4443,3.882 1.1561,1.841 1.7988,2.357 1.1708,0.94 z m -13.5107,-55.369 c -0.7614,-1.163 -0.568,-3.08 0.3107,-3.08 0.2494,0 0.6454,0.476 0.8801,1.059 0.3254,0.81 0.4321,0.865 0.4547,0.234 0.04,-0.961 1.3588,-1.114 1.7095,-0.198 0.1334,0.344 0.027,1.191 -0.2373,1.881 -0.6081,1.599 -2.1056,1.65 -3.1177,0.107 z m 1.6695,-14.017 c -1.5361,-2.52 -0.9147,-3.945 0.6681,-1.53 0.4787,0.731 1.2121,1.176 1.9362,1.176 1.2735,0 1.4748,0.443 0.6001,1.318 -0.9881,0.988 -2.2429,0.611 -3.2044,-0.964 z m 2.5763,-1.742 c -1.5268,-0.62 -2.1429,-1.679 -2.2429,-3.864 l -0.093,-2.039 1.6455,0.133 c 0.9068,0.08 2.0495,0.535 2.5403,1.026 0.812,0.808 0.8387,1.088 0.292,3.041 -0.6401,2.285 -0.6627,2.303 -2.1429,1.703 z m 0.4547,-2.792 c 0.1414,-0.229 -0.067,-0.685 -0.4627,-1.015 -0.5601,-0.465 -0.8468,-0.472 -1.2855,-0.03 -0.4374,0.439 -0.408,0.663 0.1387,1.008 0.8828,0.559 1.2828,0.568 1.6095,0.04 z m -0.3507,-6.846 c -0.7267,-0.551 -0.7654,-0.792 -0.2547,-1.608 0.7441,-1.192 1.8135,-0.504 1.8135,1.167 0,1.27 -0.3387,1.366 -1.5588,0.441 z m 14.9549,79.372 c -0.9335,-2.232 -2.0202,-3.428 -3.119,-3.428 -1.3215,0 -1.0561,0.759 1.0734,3.068 2.3629,2.564 3.0137,2.679 2.0456,0.36 z m -15.9417,-7.579 c -2.1082,-4.187 -4.7565,-11.812 -6.1726,-17.769 -3.3737,-14.2 -3.443,-32.95 -0.1773,-48.021 3.8203,-17.634 10.4344,-33.743 19.5433,-47.603 14.3975,-21.905 31.8259,-37.112 55.735,-48.631 3.4631,-1.669 6.9847,-3.303 7.8262,-3.632 1.4774,-0.579 1.8135,-0.983 1.2694,-1.528 -0.144,-0.143 -2.5589,0.88 -5.3685,2.273 -5.0765,2.518 -6.7407,2.983 -7.3208,2.043 -0.5627,-0.909 0.7388,-1.767 5.7433,-3.777 3.3657,-1.353 5.0552,-2.282 5.2072,-2.866 0.312,-1.192 0.5587,-1.124 3.8377,1.065 1.8082,1.207 3.175,1.817 3.6604,1.631 0.436,-0.168 0.5854,-0.454 0.3414,-0.66 -0.2374,-0.2 -1.9136,-1.632 -3.7244,-3.181 -1.8109,-1.55 -4.1751,-3.501 -5.2526,-4.334 l -1.9588,-1.515 -5.3326,1.836 c -7.5701,2.608 -9.785,3.531 -16.0936,6.703 -27.8602,14.01 -49.9678,38.699 -61.8717,69.096 -11.6985,29.873 -11.7679,61.781 -0.188,84.867 1.1801,2.352 2.7909,5.23 3.579,6.394 2.0149,2.978 7.9195,10.82 8.1462,10.82 0.1067,0 -0.5387,-1.446 -1.4282,-3.211 z m 67.9497,-171.063 c -1.0881,-1.158 -0.9175,-1.467 1.3361,-2.41 2.1869,-0.916 2.4029,-0.865 4.4658,1.051 2.1895,2.035 1.7988,2.48 -2.1349,2.424 -2.1389,-0.03 -2.903,-0.252 -3.667,-1.065 z m 3.7483,-0.958 c 0.7508,-0.904 -0.013,-0.913 -1.2041,-0.01 -0.7667,0.581 -0.7907,0.694 -0.148,0.706 0.4214,0.01 1.0294,-0.301 1.3521,-0.69 z m -58.3433,170.881 c -0.013,-0.931 -1.8602,-4.76 -2.4829,-5.156 -0.6681,-0.424 -3.151,-0.496 -3.151,-0.09 0,1.082 1.8282,3.733 3.2337,4.687 1.9015,1.291 2.4162,1.411 2.4002,0.559 z m -21.0168,-2.353 c -0.2067,-0.324 -1.1414,-1.752 -2.0775,-3.175 -6.1007,-9.274 -10.6531,-22.918 -12.1653,-36.458 -0.6934,-6.201 -0.584,-19.822 0.212,-26.636 2.855,-24.399 13.0894,-47.673 29.4831,-67.046 4.4244,-5.228 14.5055,-14.923 19.798,-19.038 16.2083,-12.602 32.586,-20.138 52.5774,-24.191 15.8669,-3.217 27.3708,-3.343 38.8093,-0.426 2.2922,0.586 -2.815,-1.737 -7.1074,-3.231 -16.9857,-5.912 -36.181,-5.71 -56.8778,0.599 -12.5813,3.835 -28.835,12.705 -39.2721,21.434 -4.9138,4.11 -15.1948,14.727 -18.8952,19.513 -7.9675,10.305 -16.2083,25.402 -20.1581,36.928 -12.4813,36.43 -7.6314,73.884 12.8067,98.904 2.4869,3.045 3.8964,4.433 2.8669,2.823 z m 18.8086,-8.703 c -0.6627,-4.203 -1.2895,-5.485 -3.2097,-6.574 -2.7682,-1.567 -3.0683,-1.439 -2.7322,1.165 0.4573,3.534 1.3108,5.131 3.303,6.182 2.6242,1.384 2.9629,1.286 2.6389,-0.773 z m 217.9063,-3.931 c 27.5242,-5.425 38.8933,-10.039 42.3977,-17.201 l 1.3228,-2.703 0.3414,-19.306 c 1.1934,-67.389 1.6921,-159.256 0.8641,-159.256 -0.2587,0 -1.4749,0.721 -2.7056,1.603 -8.5583,6.137 -16.5004,8.174 -64.3306,16.507 -36.8491,6.419 -39.2201,6.837 -62.5651,11.013 -14.3441,2.566 -17.8432,3.028 -20.3808,2.694 l -2.2002,-0.29 2.4776,1.37 c 1.3628,0.753 3.9031,2.489 5.6446,3.859 1.7415,1.368 8.3515,5.958 14.6881,10.2 6.3367,4.24 12.7934,8.723 14.3482,9.962 3.8804,3.09 10.6717,10.233 14.3535,15.099 1.6815,2.223 4.7511,5.542 6.8207,7.377 4.3097,3.821 5.4072,5.103 11.5625,13.513 4.9018,6.699 6.3406,8.938 9.3743,14.584 1.1121,2.07 3.555,5.986 5.4272,8.702 12.4759,18.103 17.1684,37.216 14.3921,58.63 -0.9441,7.273 -3.879,20.181 -5.4379,23.913 -1.0254,2.454 -0.9547,2.759 0.5508,2.377 0.712,-0.18 6.586,-1.371 13.0546,-2.647 z m -219.1037,-9.673 c -0.2774,-3.455 -0.8201,-4.161 -4.2271,-5.501 l -1.7642,-0.695 v 2.939 c 0,3.183 0.5347,4.035 3.527,5.613 2.5296,1.333 2.7443,1.128 2.4643,-2.356 z m 0.308,-8.897 c 0.1573,-0.408 0.2867,-1.886 0.2867,-3.281 v -2.537 l -2.939,-1.87 c -3.315,-2.107 -3.2737,-2.129 -3.8537,2.099 -0.3694,2.69 -0.12,3.049 3.499,5.115 2.4963,1.423 2.6349,1.446 3.007,0.474 z m 1.3815,-10.899 c 0.12,-0.193 0.356,-1.645 0.536,-3.225 l 0.3267,-2.874 -2.0095,-0.805 c -1.1068,-0.442 -2.591,-1.216 -3.299,-1.722 -0.7081,-0.504 -1.3828,-0.753 -1.4975,-0.555 -0.12,0.199 -0.352,1.738 -0.5254,3.419 l -0.316,3.058 2.7269,1.518 c 2.783,1.548 3.6857,1.813 4.0578,1.186 z m 3.1776,-14.088 c 0.4774,-2.019 0.8761,-3.841 0.8854,-4.052 0,-0.21 -1.5174,-1.092 -3.391,-1.96 -2.3829,-1.104 -3.507,-1.417 -3.7404,-1.038 -0.68,1.1 -1.9041,6.404 -1.6388,7.097 0.264,0.685 6.4833,4.128 6.842,3.787 0.093,-0.09 0.5641,-1.816 1.0428,-3.834 z m 4.6285,-13.205 c 1.0548,-2.658 1.9175,-4.918 1.9175,-5.025 0,-0.106 -1.7228,-1.072 -3.8297,-2.145 -2.8563,-1.455 -3.9217,-1.802 -4.1938,-1.363 -0.2,0.324 -1.0694,2.694 -1.9322,5.266 l -1.5695,4.678 1.1068,0.769 c 2.1576,1.5 5.954,3.306 6.266,2.98 0.1747,-0.181 1.1801,-2.503 2.2349,-5.16 z m -11.2532,-5.262 c 0,-0.248 0.9308,-2.628 2.0696,-5.293 1.1388,-2.662 1.9909,-4.972 1.8935,-5.131 -0.1853,-0.304 -5.8339,-1.575 -6.4166,-1.444 -0.1841,0.04 -0.2147,-0.24 -0.067,-0.624 0.2053,-0.537 1.1214,-0.7 3.9217,-0.7 h 3.6537 l 2.5603,-4.587 c 3.8724,-6.934 3.895,-6.594 -0.4894,-7.16 -1.4615,-0.188 -2.9657,-0.428 -3.343,-0.53 -0.7201,-0.199 -5.3619,8.567 -7.7515,14.639 -1.4001,3.56 -1.5468,4.701 -0.3027,2.365 l 0.8641,-1.623 -0.12,1.859 c -0.1587,2.48 -1.1281,4.445 -2.1949,4.445 -1.7495,0 -0.7868,1.25 2.0749,2.693 3.2323,1.631 3.6457,1.755 3.6457,1.091 z m -1.8815,-14.181 c 0,-0.286 0.5814,-1.562 1.2935,-2.837 1.7308,-3.1 2.987,-3.025 3.6137,0.216 0.3494,1.812 0.3013,2.358 -0.236,2.698 -0.9628,0.611 -4.6712,0.548 -4.6712,-0.08 z m 24.4759,-2.162 c 3.5497,-5.243 8.3781,-11.611 11.7025,-15.431 l 2.8656,-3.294 -1.2935,-0.926 c -0.712,-0.511 -2.5002,-2.067 -3.9737,-3.459 l -2.6789,-2.53 -2.3776,2.378 c -1.3081,1.306 -2.3776,2.58 -2.3776,2.828 0,0.249 1.3228,1.553 2.9403,2.898 3.3844,2.815 4.5738,4.423 3.8257,5.171 -0.7294,0.729 -2.3575,-0.03 -5.9072,-2.749 l -3.0763,-2.357 -2.9457,4.251 c -1.6201,2.338 -2.7536,4.384 -2.5189,4.548 0.2347,0.163 1.6975,1.175 3.2497,2.247 3.6403,2.513 4.2577,3.242 3.5123,4.141 -0.7081,0.852 -1.6642,0.51 -5.6779,-2.027 l -3.0216,-1.911 -1.3668,2.196 c -0.7521,1.208 -1.1788,2.259 -0.9481,2.337 0.2306,0.08 1.7735,0.932 3.4283,1.901 3.483,2.04 4.2698,2.984 3.3777,4.058 -0.5361,0.647 -1.0228,0.517 -4.3125,-1.136 -2.0402,-1.026 -3.8177,-1.866 -3.9497,-1.866 -0.2694,0 -3.7537,6.627 -3.7697,7.172 0,0.192 1.6842,1.484 3.7537,2.872 l 3.7631,2.524 2.6469,-5.082 c 1.4548,-2.796 3.7644,-6.735 5.1299,-8.754 z m -270.5051,-0.856 c 3.207,-2.232 5.858,-6.47 7.7915,-12.459 1.1428,-3.537 1.2894,-4.703 1.2748,-10.113 -0.027,-8.285 -1.6255,-15.013 -5.3366,-22.399 -1.2294,-2.447 -3.687,-5.121 -4.7071,-5.121 -0.7668,0 -0.4801,0.716 1.8415,4.577 2.6856,4.468 5.2832,11.919 5.5379,15.887 l 0.1827,2.823 -0.7161,-2.823 c -0.7441,-2.933 -2.1522,-6.937 -2.3616,-6.714 -0.067,0.07 0.1694,1.609 0.5214,3.421 0.8868,4.558 0.8628,17.019 -0.04,20.85 -1.1321,4.801 -2.9349,8.001 -6.4673,11.479 l -3.2137,3.163 2.0229,-0.714 c 1.1121,-0.392 2.7643,-1.228 3.6697,-1.857 z m -8.9569,-0.569 c 5.4966,-1.938 8.8302,-5.97 10.7091,-12.955 1.2055,-4.479 1.0588,-14.052 -0.2894,-18.899 -1.3068,-4.696 -4.9231,-12.299 -6.1673,-12.964 -1.2148,-0.65 -1.1854,-0.215 0.1747,2.616 3.5471,7.382 5.0005,13.823 5.0005,22.161 0,9.126 -2.0202,15.583 -5.5205,17.644 -3.8231,2.253 -12.588,2.339 -17.4058,0.172 -3.043,-1.368 -6.422,-4.48 -7.8368,-7.215 -2.1482,-4.157 -2.819,-13.863 -1.4295,-20.698 0.4054,-1.994 1.4775,-5.319 2.3816,-7.389 2.2082,-5.052 2.3002,-5.365 1.1721,-3.999 -4.7912,5.803 -7.8115,19.149 -6.194,27.369 1.7655,8.969 7.0274,14.139 15.727,15.45 3.2256,0.485 5.4912,0.183 9.6783,-1.293 z m 149.0619,-1.01 c 0.4241,-0.269 0,-0.497 -1.3001,-0.705 -2.4883,-0.399 -5.3605,-2.965 -6.4193,-5.736 -0.5721,-1.498 -0.7308,-2.924 -0.5601,-5.048 0.2747,-3.419 1.1308,-5.299 3.6591,-8.044 l 1.8068,-1.96 0.1534,-12.686 c 0.1626,-13.576 0.2653,-14.169 2.6189,-15.241 1.7802,-0.812 3.3737,-0.586 4.6111,0.651 l 1.1548,1.155 v 12.448 c 0,6.847 0.1334,12.784 0.2854,13.193 0.216,0.564 -0.013,0.744 -0.9681,0.744 -4.0058,0 -7.9728,2.324 -9.6797,5.673 -1.2921,2.532 -1.2414,6.534 0.12,9.254 1.4442,2.892 3.203,4.034 6.438,4.178 l 2.631,0.12 -2.3803,-0.324 c -3.0883,-0.423 -4.7791,-1.572 -5.8819,-3.999 -3.3097,-7.292 3.859,-16.063 10.3717,-12.691 2.5816,1.338 3.8391,3.977 3.6564,7.67 -0.196,3.961 -1.4362,6.485 -3.8844,7.905 -1.2321,0.716 -1.4762,0.983 -0.7054,0.773 3.411,-0.926 6.0553,-4.659 6.4553,-9.114 0.3654,-4.068 -0.432,-6.192 -3.2883,-8.761 l -2.4616,-2.212 -0.1574,-12.995 c -0.1506,-12.414 -0.2013,-13.041 -1.1401,-14.052 -1.7001,-1.831 -5.3752,-1.209 -7.6421,1.294 -0.8721,0.963 -0.9574,1.905 -1.1988,13.102 -0.1427,6.636 -0.4267,12.426 -0.6294,12.866 -0.204,0.44 -1.2841,1.549 -2.4016,2.464 -5.6125,4.599 -6.0819,14.016 -0.896,17.971 2.6562,2.027 6.2153,3.009 7.6354,2.108 z m -150.5367,-2.822 c 0.4107,-0.26 -0.3107,-0.58 -2.1176,-0.938 -4.015,-0.796 -7.1754,-2.451 -9.4849,-4.966 -4.0725,-4.435 -5.1886,-9.336 -4.0711,-17.866 0.3934,-2.995 1.2468,-6.878 1.8962,-8.626 1.5135,-4.07 1.4921,-3.967 0.8321,-4.21 -1.6869,-0.621 -5.4766,8.782 -6.21,15.412 -1.2121,10.968 2.1389,18.297 9.4196,20.602 3.0657,0.971 8.6062,1.309 9.7357,0.592 z m 4.9578,-4.035 c 1.4668,-1.582 2.1589,-3.969 2.631,-9.079 0.48,-5.179 -0.053,-12.305 -1.1575,-15.647 -0.8067,-2.427 -1.8602,-3.287 -4.0271,-3.287 -0.8801,0 -0.9107,0.473 -0.9107,14.313 0,13.236 0.067,14.33 0.8227,14.528 1.4482,0.378 1.5562,0.345 2.6416,-0.828 z m 151.7289,-0.05 c 0.7921,-0.665 1.6828,-2.021 1.9802,-3.015 1.4988,-5.005 -3.247,-8.595 -7.0914,-5.36 -2.7296,2.296 -3.5017,5.063 -2.1455,7.686 0.8267,1.599 1.2734,1.815 3.855,1.864 1.4588,0.03 2.3336,-0.275 3.4017,-1.175 z m -158.0162,-13.784 c 0,-15.305 0.08,-14.836 -2.7496,-15.403 l -1.4842,-0.296 v 14.144 c 0,14.085 0,14.149 1.0455,14.878 0.576,0.403 1.5281,0.732 2.1175,0.732 h 1.0708 z m 267.1354,11.913 c 0.148,-0.766 0.067,-0.801 -0.5881,-0.256 -0.9001,0.747 -1.0121,1.619 -0.172,1.339 0.3227,-0.106 0.6654,-0.594 0.7601,-1.083 z m 7.4074,-2.174 c 8.6329,-13.47 20.4648,-25.636 34.4209,-35.397 4.4364,-3.102 4.4337,-3.041 0.1653,-5.772 -3.059,-1.957 -2.7949,-2.032 -9.3703,2.673 -12.3186,8.815 -24.9559,22.562 -32.998,35.895 l -1.0775,1.786 1.1895,-0.299 c 0.9161,-0.229 1.3121,-0.07 1.7282,0.71 0.296,0.553 0.468,1.365 0.3813,1.805 -0.1373,0.693 1.3908,1.658 3.0403,1.918 0.1961,0.03 1.3295,-1.463 2.5203,-3.319 z m -9.0863,0.537 c 0.3587,-1.372 -0.013,-1.124 -0.9067,0.604 -0.6681,1.292 -0.6774,1.435 -0.067,0.925 0.4,-0.332 0.8361,-1.02 0.9694,-1.529 z m -272.5119,-12.893 c 0,-14.019 -0.1773,-15.19 -1.9455,-12.915 -1.7135,2.203 -2.8283,6.933 -3.099,13.145 -0.228,5.21 -0.1493,6.15 0.6721,7.997 0.9881,2.224 3.2283,5.151 3.943,5.151 0.2481,0 0.4294,-5.643 0.4294,-13.378 z m 318.0259,-5.988 c 16.3764,-13.289 35.1116,-21.893 54.7803,-25.154 7.0447,-1.168 20.8301,-1.171 26.8134,0 9.5023,1.851 18.0259,4.66 24.8252,8.182 1.8696,0.968 3.5951,1.846 3.8324,1.948 0.236,0.107 -0.013,-0.44 -0.56,-1.205 -2.0736,-2.911 -12.248,-10.5 -14.0788,-10.5 -0.4734,0 -0.3934,0.467 0.32,1.863 1.1175,2.189 1.1441,2.371 0.3481,2.371 -0.3307,0 -1.9709,-1.392 -3.6458,-3.094 -3.7697,-3.832 -5.3378,-4.655 -12.1879,-6.393 -5.3192,-1.349 -14.1427,-2.899 -14.4961,-2.546 -0.093,0.09 0.5,1.377 1.3268,2.844 1.1641,2.061 1.3788,2.792 0.9441,3.223 -0.5494,0.545 -2.1936,-0.931 -5.5593,-4.991 -0.8614,-1.04 -1.4441,-1.274 -3.1749,-1.274 -2.2256,0 -2.6176,0.412 -1.3749,1.444 1.1082,0.92 3.6191,4.698 3.3204,4.997 -0.7108,0.711 -2.859,-0.62 -5.0859,-3.15 l -2.4816,-2.82 -3.3056,0.01 c -3.3577,0.01 -5.0912,0.501 -4.0404,1.151 0.9547,0.589 4.2617,5.017 4.2617,5.704 0,0.388 -0.472,0.664 -1.1374,0.664 -0.8068,0 -1.9562,-0.905 -3.9364,-3.099 l -2.7963,-3.099 -4.2738,0.823 c -2.3509,0.452 -4.5338,0.983 -4.8525,1.18 -0.4027,0.248 0.2334,1.235 2.0936,3.243 2.8749,3.106 3.075,3.519 1.9255,3.961 -0.5001,0.192 -1.8629,-0.725 -4.1164,-2.767 -1.8535,-1.681 -3.6151,-3.057 -3.9151,-3.059 -0.3,0 -1.7335,0.449 -3.1843,1.004 l -2.6376,1.009 2.8309,2.948 c 2.727,2.839 3.3497,4.066 2.3723,4.67 -0.4067,0.252 -6.5887,-5.034 -6.9887,-5.975 -0.08,-0.203 -0.4547,-0.368 -0.8188,-0.368 -0.9521,0 -6.786,2.39 -6.786,2.779 0,0.18 1.4815,1.728 3.2923,3.44 3.2524,3.075 3.9244,4.13 2.6296,4.13 -0.7574,0 -4.5564,-2.942 -6.574,-5.09 l -1.3575,-1.445 -2.8762,1.441 c -1.5829,0.794 -2.9604,1.518 -3.063,1.612 -0.1067,0.09 1.3268,1.762 3.175,3.709 1.8495,1.947 3.3616,3.749 3.3616,4.008 0,1.05 -1.2348,0.303 -4.7698,-2.884 l -3.719,-3.353 -2.4589,1.642 c -4.8765,3.255 -12.4413,9.606 -17.6299,14.803 -2.9109,2.915 -5.2925,5.506 -5.2925,5.759 0,0.253 1.7469,1.768 3.8817,3.368 2.1336,1.599 3.9524,3.095 4.0418,3.323 0.093,0.228 2.0042,-1.337 4.2564,-3.477 2.2523,-2.142 6.0966,-5.518 8.5422,-7.502 z m -156.8094,4.309 c 0.4227,-0.834 0.5948,-4.122 0.6001,-11.417 0,-9.079 -0.08,-10.281 -0.7667,-10.544 -1.7856,-0.685 -2.0483,0.913 -2.0483,12.447 0,10.161 0.067,10.987 0.8108,10.842 0.4467,-0.09 1.0788,-0.683 1.4041,-1.328 z m -149.2192,-14.407 c -0.4654,-0.708 -1.4775,-1.821 -2.2509,-2.472 -1.9682,-1.655 -2.691,-3.71 -2.691,-7.65 0,-5.696 2.2229,-8.664 7.1767,-9.584 2.683,-0.499 3.8471,0.56 6.3834,5.809 1.2294,2.545 2.4896,4.552 2.8589,4.552 0.3627,0 1.0868,-0.821 1.6082,-1.827 0.9121,-1.759 0.9254,-2.112 0.3614,-9.471 -0.5521,-7.182 -1.0641,-10.815 -1.6029,-11.354 -0.744,-0.744 -11.2078,6.938 -14.7921,10.859 -3.3657,3.683 -4.4818,6.246 -4.7219,10.833 -0.2413,4.654 0.4427,7.357 2.4043,9.485 1.5841,1.719 4.9658,3.216 5.6859,2.518 0.2494,-0.24 0.08,-0.942 -0.42,-1.698 z m 72.6781,-1.504 c 3.751,-0.514 13.5947,-2.119 21.8742,-3.567 8.2795,-1.45 23.6264,-4.126 34.1048,-5.949 48.5783,-8.453 54.3269,-9.482 56.5752,-10.143 0.7774,-0.23 0.7707,-0.322 -0.1067,-1.442 -4.4365,-5.641 1.1561,-13.708 7.3847,-10.654 3.4071,1.67 5.0259,6.326 3.1377,9.022 -0.4147,0.592 -0.6787,1.143 -0.5881,1.225 0.093,0.08 5.3526,-0.78 11.6906,-1.915 6.3393,-1.134 13.8547,-2.472 16.7003,-2.973 29.2657,-5.146 47.9796,-8.617 49.6571,-9.209 1.1188,-0.395 3.7977,-1.679 5.954,-2.855 13.4947,-7.355 21.3555,-10.18 36.121,-12.976 4.8005,-0.909 7.2274,-1.071 16.2283,-1.082 12.1279,-0.01 14.8709,0.319 27.4468,3.34 8.0475,1.933 9.1983,2.1 12.4666,1.808 4.5138,-0.403 16.0404,-2.265 36.2944,-5.864 8.6676,-1.54 30.2378,-5.347 47.9343,-8.46 32.738,-5.76 43.1991,-7.908 49.4637,-10.157 8.3195,-2.989 12.1733,-5.864 14.6802,-10.952 l 1.5281,-3.105 0.3067,-14.358 c 0.1681,-7.899 0.3281,-23.673 0.3547,-35.059 0.04,-17.831 -0.067,-21.235 -0.756,-24.578 -0.4414,-2.135 -0.9721,-3.882 -1.1775,-3.882 -0.2053,0 -0.3734,0.289 -0.3734,0.641 0,1.221 -4.4631,4.846 -7.2474,5.888 -2.6909,1.008 -26.1,5.056 -72.254,12.497 -12.0306,1.94 -31.0832,5.022 -42.3377,6.847 -11.2545,1.827 -25.0146,4.049 -30.5765,4.937 -5.5632,0.888 -16.0416,2.584 -23.2864,3.771 -7.2447,1.185 -22.8036,3.734 -34.5755,5.661 -52.6641,8.623 -48.7183,7.823 -50.4265,10.222 -0.9281,1.303 -1.1174,2.286 -1.3388,6.927 -0.2894,6.082 -0.8201,7.54 -3.5644,9.803 -2.2469,1.852 -4.7605,2.467 -20.6434,5.044 -7.2448,1.176 -36.1397,5.943 -64.2119,10.592 -28.0722,4.65 -56.9672,9.404 -64.2119,10.564 -7.2448,1.16 -14.9709,2.421 -17.1698,2.804 -13.0853,2.272 -22.4623,3.19 -34.8222,3.408 -17.6672,0.312 -27.5162,-0.989 -37.9252,-5.012 -4.8152,-1.86 -12.5533,-6.968 -16.9218,-11.168 -10.2864,-9.89 -11.3305,-19.237 -3.067,-27.438 5.4486,-5.407 16.251,-11.345 27.8176,-15.292 9.0596,-3.089 15.4135,-6.044 18.2445,-8.483 2.3202,-1.999 2.1695,-2.554 -0.9508,-3.505 -3.7217,-1.133 -10.5864,-0.681 -28.1135,1.854 -9.185,1.328 -18.1445,2.714 -19.9114,3.079 -5.9153,1.224 -10.3397,3.882 -12.0532,7.239 -1.8762,3.678 -2.0109,6.242 -1.7949,34.204 0.1867,24.301 0.2841,26.989 1.0601,29.229 0.9588,2.777 3.4151,5.908 5.4633,6.966 l 1.3641,0.706 v -4.599 c 0,-2.53 -0.5454,-11.479 -1.2108,-19.888 -1.2735,-16.092 -1.2601,-20.467 0.08,-28.46 1.6255,-9.646 3.251,-14.123 6.1993,-17.07 3.0857,-3.085 6.8167,-4.132 26.5827,-7.459 6.8941,-1.16 7.9568,-1.241 8.3422,-0.631 1.2535,1.982 0.7348,2.168 -12.4799,4.482 -5.1752,0.905 -10.6224,1.955 -12.1066,2.331 -8.2168,2.083 -12.4386,7.031 -13.6361,15.986 -0.42,3.131 -0.4067,7.239 0.053,17.799 0.3307,7.55 0.6948,23.149 0.8081,34.662 0.1067,11.513 0.3267,22.286 0.4734,23.94 l 0.268,3.005 1.9549,-1.953 1.9549,-1.955 0.3427,-23.222 c 0.2107,-14.337 0.5334,-23.723 0.84,-24.532 1.2575,-3.306 1.5175,-0.17 1.8122,21.818 0.1641,12.16 0.4214,22.233 0.5734,22.385 0.152,0.151 0.9628,-0.07 1.8015,-0.485 1.4709,-0.734 1.6682,-0.707 5.6033,0.749 10.7384,3.975 10.6784,3.895 11.6398,15.77 0.5894,7.295 0.5854,8.467 -0.04,9.953 -1.2294,2.943 -0.9707,3.769 1.5855,5.064 3.8431,1.948 12.2146,3.777 23.5851,5.153 4.3925,0.53 24.9986,-0.151 31.5179,-1.043 z m -30.8125,-14.504 c -6.582,-0.539 -6.8221,-0.608 -6.8221,-1.978 v -1.283 l 4.1165,0.415 c 2.2642,0.228 10.149,0.312 17.5231,0.187 11.8425,-0.2 14.5041,-0.394 22.8157,-1.659 16.867,-2.566 85.2194,-14.007 142.0665,-23.78 15.7816,-2.713 35.5757,-6.108 43.9845,-7.543 12.4826,-2.131 32.4007,-5.565 42.1017,-7.257 l 1.8815,-0.328 0.236,-25.861 c 0.2574,-28.338 0.2227,-28.011 3.071,-29.309 0.6934,-0.316 11.8759,-2.253 24.8505,-4.307 12.9734,-2.053 34.4676,-5.53 47.7649,-7.727 22.2503,-3.677 24.2812,-3.939 25.5013,-3.309 0.8694,0.45 1.5055,1.294 1.8429,2.447 0.3533,1.207 0.4707,9.412 0.3707,26.068 l -0.1454,24.307 -1.1268,1.2 c -0.62,0.66 -1.7841,1.411 -2.5882,1.669 -0.8028,0.258 -15.6416,2.905 -32.9767,5.881 -17.3351,2.976 -37.0225,6.378 -43.7499,7.561 -14.8388,2.608 -60.5502,10.482 -81.8523,14.1 -15.3589,2.608 -28.6363,4.879 -57.862,9.9 -31.0018,5.324 -104.7347,17.597 -112.6648,18.752 -4.5272,0.66 -10.9625,1.416 -14.2988,1.683 -5.5579,0.443 -19.5127,0.543 -24.0398,0.171 z m 275.4295,-44.586 c 2.1989,-0.364 6.4327,-1.092 9.409,-1.619 14.2601,-2.518 55.3723,-9.669 67.8549,-11.803 7.6968,-1.316 14.2908,-2.505 14.6549,-2.645 0.364,-0.139 0.7854,-0.715 0.9361,-1.279 0.152,-0.565 0.2787,-11.744 0.2813,-24.842 0,-19.537 -0.1067,-23.912 -0.6347,-24.348 -0.6547,-0.544 -1.1575,-0.471 -40.9909,6.062 -7.7621,1.272 -22.7916,3.709 -33.3994,5.415 -10.6077,1.705 -19.7687,3.22 -20.3567,3.366 -2.4896,0.614 -2.459,0.265 -2.459,27.31 0,13.784 0.1587,25.059 0.3534,25.054 0.1934,0 2.1522,-0.306 4.3511,-0.671 z m 0.9414,-25.46 c 0,-12.095 0.1787,-19.887 0.4681,-20.429 0.5854,-1.093 0.5881,-1.093 25.8746,-5.176 11.2545,-1.818 23.1091,-3.833 26.3441,-4.48 5.4739,-1.092 13.9681,-2.433 27.4561,-4.335 5.4192,-0.764 5.5993,-0.76 6.2327,0.107 0.528,0.723 0.652,4.304 0.652,18.943 0,11.417 -0.1773,18.384 -0.4827,18.953 -0.6347,1.185 -3.7817,2.052 -12.6893,3.494 -4.0111,0.648 -10.8904,1.817 -15.2896,2.597 -4.3977,0.779 -11.2771,1.954 -15.2882,2.608 -15.0522,2.459 -26.8054,4.493 -33.8701,5.86 -4.0098,0.776 -7.7675,1.411 -8.3502,1.412 h -1.0575 z m 8.0395,14.869 c 6.1953,-1.288 25.0573,-4.624 28.3056,-5.007 l 2.6989,-0.317 v -17.166 -17.166 l -2.4695,0.316 c -2.7763,0.355 -30.4525,4.836 -32.4594,5.254 l -1.2934,0.271 v 17.368 c 0,9.552 0.1787,17.369 0.396,17.369 0.2174,0 2.3869,-0.415 4.8218,-0.922 z m 53.8202,-8.455 c 18.7793,-3.287 19.134,-3.364 18.5312,-4.091 -0.772,-0.93 -1.4348,-0.866 -15.2255,1.483 -16.2177,2.761 -21.4542,3.828 -22.0823,4.5 -0.8907,0.953 7.1408,0.144 18.7766,-1.892 z m -5.8806,-3.763 c 6.0806,-1.016 13.5427,-2.316 16.583,-2.89 l 5.5273,-1.044 0.1067,-9.221 c 0.053,-5.072 0.1066,-11.8 0.12,-14.949 l 0.013,-5.728 -1.1762,0.195 c -4.9845,0.824 -6.766,1.169 -6.9393,1.342 -0.1067,0.106 0.2373,0.798 0.7707,1.53 1.7069,2.341 2.5123,6.645 1.9349,10.343 -1.0508,6.731 -4.9099,11.546 -10.6798,13.328 -3.6777,1.136 -5.8419,1.189 -8.7035,0.214 -4.3778,-1.49 -7.6835,-5.531 -8.2182,-10.041 -0.4454,-3.76 0.8974,-7.354 3.8484,-10.306 2.2442,-2.244 2.3696,-2.474 1.2468,-2.26 -0.6868,0.133 -2.7843,0.493 -4.6605,0.808 l -3.4097,0.572 v 15.201 15.202 l 1.2935,-0.224 c 0.7107,-0.12 6.2686,-1.056 12.3479,-2.072 z m 28.2256,-18.161 c 0,-15.604 -0.04,-16.227 -0.8628,-15.784 -0.4734,0.253 -1.0814,0.737 -1.3521,1.075 -0.5721,0.716 -1.3268,27.901 -0.8108,29.231 0.2934,0.757 1.6335,1.607 2.6723,1.695 0.1947,0.01 0.3534,-7.281 0.3534,-16.217 z m -233.0052,53.972 -1.2628,-1.32 v -11.35 c 0,-6.243 0.2013,-11.884 0.4494,-12.533 0.7294,-1.921 2.5029,-2.689 8.3608,-3.622 3.0457,-0.486 11.4185,-1.839 18.6073,-3.01 7.1887,-1.169 13.608,-2.127 14.2667,-2.127 0.6948,0 1.7722,0.576 2.571,1.375 l 1.3748,1.375 v 11.733 c 0,11.072 -0.053,11.803 -0.9534,12.945 -0.5241,0.667 -1.3175,1.326 -1.7642,1.465 -1.5962,0.498 -37.4772,6.388 -38.916,6.388 -0.9948,0 -1.8762,-0.425 -2.7336,-1.319 z m 22.3729,-4.38 c 9.765,-1.592 18.1272,-3.167 18.5819,-3.499 0.7388,-0.541 0.8321,-1.671 0.8921,-10.858 0.04,-5.64 -0.12,-10.738 -0.3413,-11.328 -0.3094,-0.815 -0.7801,-1.076 -1.9482,-1.08 -2.1283,-0.01 -33.5608,5.047 -35.8811,5.77 l -1.8815,0.586 -0.12,11.045 c -0.067,6.076 -0.027,11.315 0.1067,11.643 0.12,0.329 0.8174,0.603 1.5375,0.608 0.7201,0 9.2983,-1.293 19.0646,-2.887 z m -16.4777,-3.591 c -0.1853,-0.453 -0.3373,-3.198 -0.3373,-6.098 0,-4.19 0.1533,-5.429 0.7467,-6.022 1.1161,-1.117 28.9176,-5.799 29.7124,-5.003 0.4427,0.443 0.5694,11.77 0.136,12.204 -0.12,0.12 -0.5267,-0.01 -0.8881,-0.315 -0.52,-0.432 -0.8121,-0.311 -1.3961,0.582 -0.9041,1.38 -3.6817,2.094 -15.815,4.065 -10.1824,1.655 -11.6892,1.728 -12.1586,0.587 z m 10.9518,-2.706 c 3.3644,-0.697 7.6648,-1.582 9.5557,-1.966 1.9708,-0.399 3.5483,-0.978 3.6924,-1.354 0.1386,-0.36 0.62,-2.354 1.0707,-4.43 0.7828,-3.608 0.7828,-3.775 -0.013,-3.775 -2.0082,0 -3.2203,0.94 -4.2271,3.278 -0.9961,2.316 -1.1014,2.4 -4.1377,3.28 -1.7135,0.498 -5.5873,1.46 -8.6076,2.14 -3.0216,0.681 -5.6966,1.49 -5.9432,1.798 -0.2481,0.308 -0.5934,1.227 -0.7681,2.043 l -0.3174,1.483 1.7922,-0.614 c 0.9854,-0.337 4.5431,-1.184 7.9061,-1.883 z m -154.9465,-2.377 c -6.27,-0.887 -11.6759,-2.275 -15.3482,-3.941 -4.7432,-2.15 -18.5006,-11.086 -17.9365,-11.65 0.5733,-0.572 10.601,3.854 16.6977,7.37 4.5978,2.652 8.7289,4.17 14.8842,5.471 3.5763,0.755 6.2099,0.891 16.935,0.878 14.3615,-0.01 16.7297,-0.271 44.1525,-4.702 8.7596,-1.415 16.131,-2.574 16.3791,-2.574 0.248,0 0.384,0.572 0.3013,1.271 -0.1693,1.448 1.1628,1.128 -17.0831,4.104 -22.2662,3.633 -26.7134,4.098 -40.9268,4.288 -9.857,0.133 -14.4002,0 -18.0552,-0.515 z m 196.3441,-0.458 c -3.351,-1.168 -4.9512,-4.445 -4.2351,-8.678 0.4481,-2.66 2.0069,-4.716 4.5725,-6.036 2.8323,-1.458 5.0618,-1.135 7.246,1.048 2.6723,2.672 2.6857,6.047 0.04,9.065 l -1.5054,1.714 2.0908,-0.334 c 2.0496,-0.328 2.0736,-0.316 1.2602,0.584 -0.8428,0.931 -4.2658,2.548 -6.4087,3.028 -0.6467,0.145 -2.0229,-0.03 -3.0576,-0.391 z m 38.9173,-1.109 c -3.391,-1.171 -6.626,-4.027 -8.3408,-7.361 -1.3055,-2.541 -1.4108,-3.115 -1.4108,-7.726 0,-4.678 0.093,-5.172 1.5401,-8.109 3.1777,-6.452 8.8449,-9.971 16.1003,-9.998 3.7124,-0.01 4.2178,0.107 7.0568,1.664 5.6672,3.111 8.2861,8.141 7.8994,15.171 -0.24,4.363 -1.5761,7.738 -4.3457,10.974 -4.4965,5.253 -12.304,7.525 -18.4993,5.385 z m 10.2304,-2.727 c 3.4684,-1.12 7.0114,-4.458 8.7516,-8.245 1.1161,-2.429 1.3588,-3.59 1.3561,-6.487 0,-7.258 -3.9377,-12.055 -10.8011,-13.172 -6.39,-1.04 -12.5426,2.625 -15.6963,9.351 -1.7642,3.762 -1.7402,9.105 0.053,12.58 1.7989,3.479 4.7498,5.77 8.6849,6.742 2.1376,0.527 4.3138,0.308 7.6488,-0.769 z m -6.5753,-1.813 c -4.6605,-1.447 -7.5261,-5.405 -7.5261,-10.396 0,-3.603 1.0294,-6.613 3.0843,-9.013 1.7468,-2.04 5.7939,-4.33 7.6554,-4.33 4.1058,0 8.7983,3.619 9.929,7.658 1.7722,6.33 -1.8308,13.615 -7.8488,15.866 -2.8883,1.081 -2.5496,1.067 -5.2938,0.215 z m 2.5402,-5.872 c -0.053,-3.051 -1.7668,-9.166 -3.0283,-10.825 -1.1041,-1.452 -2.0855,-0.975 -3.4643,1.682 -2.5603,4.932 0.4427,12.216 4.8938,11.868 l 1.6468,-0.134 z m 5.4953,0.362 c 4.5884,-4.781 2.9709,-14.466 -2.415,-14.466 -3.0656,0 -3.4176,0.956 -1.8588,5.057 0.516,1.358 1.1601,3.475 1.4321,4.704 0.7761,3.515 1.4108,5.763 1.6269,5.763 0.1066,0 0.656,-0.476 1.2148,-1.058 z m 152.989,-0.17 -1.2282,-1.227 0.2694,-30.125 c 0.2574,-28.755 0.3107,-30.182 1.1734,-31.35 0.4974,-0.672 1.4202,-1.476 2.0496,-1.786 0.6307,-0.309 6.4326,-1.406 12.8946,-2.439 20.5381,-3.279 50.1225,-8.046 56.0618,-9.031 5.2299,-0.868 5.8606,-0.89 7.134,-0.231 2.5283,1.308 2.5403,1.479 2.1683,32.874 -0.3654,30.875 -0.3681,30.914 -2.767,31.826 -0.6,0.228 -8.1568,1.594 -16.795,3.034 -17.5912,2.935 -29.9418,5.048 -45.6314,7.811 -12.7706,2.248 -13.688,2.287 -15.3295,0.644 z m 15.1482,-3.269 c 5.4325,-0.932 13.3707,-2.299 17.6404,-3.037 4.2685,-0.738 15.6777,-2.669 25.3533,-4.292 12.4333,-2.086 17.8818,-3.186 18.5806,-3.753 0.9854,-0.797 0.9921,-0.972 1.1254,-29.517 l 0.1347,-28.715 -1.0748,-0.684 c -1.2721,-0.808 0.1067,-0.99 -32.1233,4.2 -38.1972,6.151 -41.2735,6.7 -42.0683,7.493 -0.6547,0.655 -0.756,4.118 -0.8787,29.999 -0.1334,27.123 -0.08,29.3 0.664,29.844 0.4414,0.323 1.2442,0.491 1.7856,0.372 0.54,-0.12 5.4272,-0.977 10.8611,-1.91 z m -7.7888,-5.029 c -1.0028,-1.056 -1.0041,-1.096 -0.8188,-24.109 0.188,-23.624 0.2734,-24.667 2.0522,-25.349 0.4201,-0.162 4.2365,-0.82 8.4809,-1.464 4.2444,-0.645 12.7453,-2.015 18.8899,-3.047 23.2558,-3.906 35.9571,-5.76 36.3904,-5.312 0.5814,0.6 0.6908,48.025 0.1067,48.604 -0.8681,0.868 -5.0485,1.723 -25.0959,5.133 -10.7371,1.826 -23.7544,4.059 -28.927,4.961 -5.1712,0.903 -9.5556,1.642 -9.7423,1.642 -0.1867,0 -0.7907,-0.476 -1.3428,-1.059 z m 21.5515,-5.071 c 32.2126,-5.437 37.5172,-6.366 39.3694,-6.901 0.8774,-0.252 0.8694,-0.301 -0.1694,-1.143 -0.8201,-0.664 -1.8508,-0.877 -4.2097,-0.872 -3.6577,0.01 -5.2619,0.263 -29.4671,4.65 -26.9027,4.875 -24.4358,4.293 -24.6105,5.809 -0.1333,1.115 0.013,1.295 1.0615,1.295 0.6667,0 8.7769,-1.278 18.0258,-2.838 z m 3.8777,-12 c 11.5132,-1.978 22.4157,-3.84 24.2265,-4.14 l 3.2924,-0.546 0.1827,-16.582 c 0.1066,-9.12 0.04,-16.583 -0.1441,-16.583 -0.18,0 -1.2508,0.234 -2.3789,0.518 l -2.0509,0.516 -0.156,12.857 c -0.148,12.1 -0.2133,12.935 -1.1254,14.184 -1.6455,2.255 -4.2444,3.19 -12.7187,4.571 -4.3737,0.714 -13.272,2.234 -19.7726,3.378 -6.502,1.144 -11.9533,2.08 -12.1133,2.08 -0.1613,0 -0.292,0.871 -0.292,1.934 0,1.768 0.093,1.909 1.0574,1.671 0.5828,-0.144 10.4798,-1.88 21.9929,-3.858 z m -7.5274,-5.187 c 7.1154,-1.198 14.9482,-2.531 17.4058,-2.964 l 4.4685,-0.789 0.304,-5.87 c 0.1667,-3.228 0.412,-9.327 0.5454,-13.554 l 0.2413,-7.685 -1.2508,0.308 c -4.4418,1.091 -6.1593,5.693 -6.1806,16.556 0,4.96 -0.3227,5.86 -2.2469,6.462 -0.4507,0.142 -4.6311,1.223 -9.2876,2.405 -20.3568,5.16 -19.522,4.887 -19.522,6.387 0,1.197 0.136,1.317 1.2935,1.129 0.7107,-0.12 7.1153,-1.188 14.2294,-2.385 z m -0.067,-6.997 c 6.5647,-1.637 12.0906,-3.23 12.2813,-3.539 0.4894,-0.791 0.9214,-14.419 0.5054,-15.936 l -0.3427,-1.251 -5.1326,0.12 c -5.2112,0.12 -14.2788,1.171 -17.9951,2.098 -1.1228,0.28 -2.6576,1.028 -3.4097,1.661 l -1.3682,1.151 v 9.642 9.644 l 1.7642,-0.303 c 0.9694,-0.165 7.1341,-1.641 13.6974,-3.279 z m -165.993,13.595 c -3.699,-1.66 -5.7419,-4.949 -5.7419,-9.244 0,-10.181 11.8759,-15.547 18.2765,-8.257 4.1991,4.782 2.9763,12.651 -2.5722,16.55 -1.6655,1.171 -2.5483,1.436 -5.1632,1.551 -2.1176,0.09 -3.6964,-0.107 -4.7992,-0.6 z m 8.3822,-2.899 c 2.7776,-2.058 4.6605,-6.389 4.0924,-9.416 -0.4147,-2.211 -3.1283,-5.09 -5.3072,-5.632 -6.6167,-1.645 -12.6639,5.93 -9.573,11.988 1.6495,3.229 3.7204,4.416 7.2594,4.157 1.3002,-0.09 2.807,-0.562 3.5284,-1.097 z m -7.4928,-0.746 c -4.127,-2.779 -3.9484,-8.664 0.3641,-11.953 4.1657,-3.176 10.033,-0.05 10.033,5.331 0,5.813 -5.9593,9.609 -10.3971,6.622 z m 6.318,-3.145 c 1.7135,-2.038 2.0429,-4.069 0.9054,-5.595 -1.4894,-2.002 -3.0589,-2.307 -5.0031,-0.974 -2.8657,1.963 -3.359,4.222 -1.4242,6.521 1.6695,1.984 3.8764,2.003 5.5219,0.04 z m -308.0635,100.598 c -0.8601,-2.435 -0.8615,-5.855 0,-9.897 0.8187,-3.866 1.6655,-5.542 4.1804,-8.274 1.9122,-2.078 10.2731,-8.818 13.6601,-11.013 0.9321,-0.604 1.6975,-1.258 1.7001,-1.451 0,-0.195 -0.8014,-0.353 -1.7895,-0.353 -0.9867,0 -2.9883,-0.22 -4.4484,-0.491 -3.4777,-0.643 -4.7965,0.03 -11.4879,5.836 -6.2953,5.465 -6.8273,6.046 -8.3862,9.161 -1.1308,2.258 -1.2401,2.925 -1.0934,6.624 0.1427,3.6 0.34,4.403 1.5881,6.427 1.2495,2.03 5.2126,5.373 6.3687,5.373 0.2174,0 0.093,-0.874 -0.288,-1.942 z m 325.8707,-11.577 c 3.023,-1.491 5.5099,-2.93 5.5272,-3.196 0.013,-0.266 -0.7201,-1.194 -1.6388,-2.061 l -1.6709,-1.576 0.9655,-1.027 c 0.8387,-0.892 1.3028,-2.142 0.7961,-2.142 -0.093,0 -2.475,1.073 -5.2926,2.386 -5.3619,2.498 -11.0024,5.89 -11.0024,6.617 0,0.233 0.52,0.662 1.1561,0.952 0.9241,0.422 1.3934,0.372 2.3362,-0.245 1.5962,-1.047 1.6815,-1.006 1.6815,0.795 0,2.908 0.2694,2.889 7.1421,-0.503 z m -0.272,-6.046 c -0.3254,-0.849 0,-1.604 0.7187,-1.604 0.7601,0 1.9082,1.357 1.5868,1.877 -0.456,0.739 -1.9869,0.558 -2.3055,-0.273 z m -309.1557,6.745 c -1.1588,-2.051 -2.7216,-3.646 -3.5724,-3.646 -1.0614,0 -4.1471,1.729 -4.1471,2.324 0,0.2 1.2855,0.499 2.8577,0.664 1.5721,0.164 3.2123,0.506 3.6457,0.758 1.0961,0.64 1.6108,0.597 1.2161,-0.107 z m 324.6306,-7.565 c 2.8469,-0.932 6.6073,-2.08 8.3595,-2.551 l 3.1843,-0.857 -2.8323,-1.998 c -2.8949,-2.042 -3.6964,-3.235 -1.7722,-2.642 1.7082,0.527 3.4297,1.498 5.0019,2.821 0.9268,0.78 1.3641,0.96 1.1828,0.488 -0.1587,-0.412 -0.4521,-0.75 -0.6534,-0.75 -0.2014,0 -0.7228,-0.544 -1.1575,-1.208 -0.628,-0.957 -0.6734,-1.348 -0.2227,-1.892 0.3134,-0.377 0.4868,-0.763 0.3841,-0.857 -0.6694,-0.62 -17.5725,3.504 -20.2648,4.945 -1.5081,0.807 -1.0107,1.711 0.9095,1.653 1.6641,-0.05 1.7761,0.04 2.0242,1.593 0.144,0.906 0.08,2.154 -0.1334,2.775 -0.3093,0.887 -0.264,1.025 0.2094,0.651 0.332,-0.263 2.9323,-1.24 5.7779,-2.171 z m 8.9502,-7.821 c -0.1693,-0.273 0.04,-0.628 0.4494,-0.787 1.0348,-0.397 1.3561,0.04 0.5334,0.723 -0.4641,0.384 -0.7721,0.404 -0.9828,0.07 z m -16.2883,7.154 c 0.067,-0.771 -0.5001,-0.744 -1.6215,0.08 -0.8934,0.654 -0.8934,0.678 0.027,1.691 l 0.9307,1.028 0.3094,-1.103 c 0.1707,-0.606 0.332,-1.368 0.3574,-1.691 z m 70.6966,-1.513 c -7.9422,-4.378 -17.0045,-6.734 -31.5206,-8.195 l -2.5029,-0.252 0.304,1.511 c 0.6494,3.235 0.027,2.994 8.5929,3.307 8.2382,0.303 12.708,1.03 21.7462,3.535 6.286,1.743 6.3767,1.746 3.3804,0.09 z m -201.39,-1.391 c 1.7055,-1.706 1.7535,-3.278 0.1573,-5.174 -1.2094,-1.438 -2.8456,-1.846 -4.6418,-1.156 -0.9294,0.357 -2.1375,2.591 -2.1375,3.955 0,1.423 2.4816,3.75 3.9991,3.75 0.752,0 1.7935,-0.546 2.6229,-1.375 z m 157.5548,-1.439 c 1.6815,-0.26 3.8511,-0.473 4.8205,-0.475 2.1229,0 2.3362,-0.897 0.5507,-2.301 -0.8587,-0.676 -1.1281,-1.227 -0.9214,-1.88 0.2814,-0.886 0.1067,-0.915 -4.3125,-0.702 -6.3059,0.304 -7.6647,0.551 -7.6647,1.392 0,0.388 0.2653,0.652 0.588,0.587 0.9561,-0.195 2.5683,0.913 2.839,1.952 0.1427,0.543 -0.067,1.28 -0.4681,1.686 -0.6467,0.646 -0.6067,0.694 0.3947,0.465 0.6134,-0.139 2.491,-0.465 4.1738,-0.724 z m -5.6459,-1.655 c -0.3214,-0.388 -0.7974,-0.705 -1.0561,-0.705 -0.2627,0 -0.2107,0.312 0.12,0.705 0.3214,0.388 0.7974,0.706 1.0561,0.706 0.2614,0 0.2107,-0.312 -0.12,-0.706 z m 14.9642,-1.525 c -0.1067,-1.23 -0.3934,-1.807 -0.9694,-1.916 -0.9628,-0.183 -1.0668,0.745 -0.2774,2.478 0.7961,1.746 1.4148,1.466 1.2468,-0.562 z m 27.3068,-2.185 c -2.4536,-1.652 -5.6126,-3.652 -7.0194,-4.444 -4.8018,-2.704 -14.0574,-5.843 -20.2834,-6.877 -1.6228,-0.27 -1.7402,-0.206 -1.8815,1.01 -0.4374,3.785 -10.0664,3.228 -13.9841,-0.808 l -1.7869,-1.842 -4.8898,0.72 c -4.8592,0.716 -10.3211,1.756 -12.7413,2.428 -1.2362,0.343 -1.1841,0.415 2.3522,3.279 1.9882,1.61 4.3898,3.573 5.3339,4.361 l 1.7188,1.433 4.3978,-0.728 c 6.3167,-1.044 20.5648,-1.42 27.6815,-0.73 8.0475,0.778 12.464,1.594 18.8166,3.479 2.9763,0.882 5.7113,1.63 6.078,1.664 0.368,0.03 -1.3388,-1.292 -3.7924,-2.945 z m -32.862,-10.577 c 0,-0.57 -3.8551,-1.592 -5.2232,-1.384 -1.1148,0.168 -1.1122,0.18 0.284,0.963 1.4775,0.831 4.9392,1.125 4.9392,0.421 z m -294.0462,-25.948 c 10.2704,-0.782 26.3481,-3.295 106.5843,-16.649 22.509,-3.747 49.9224,-8.302 60.9196,-10.124 10.9958,-1.822 20.8274,-3.572 21.8475,-3.892 1.0201,-0.32 2.5376,-1.265 3.3724,-2.099 4.0577,-4.058 2.6456,-13.734 -2.7896,-19.126 -2.0136,-1.998 -14.1308,-11.836 -18.4873,-15.011 l -2.4069,-1.754 -0.2973,2.177 c -0.3774,2.751 -0.3828,5.513 0,6.478 0.336,0.877 7.2514,6.47 12.7493,10.313 4.3924,3.068 6.7246,5.624 6.714,7.354 -0.013,2.415 -0.9841,2.925 -7.5195,3.952 -2.7162,0.427 -14.3588,2.264 -25.8719,4.083 -11.5146,1.819 -31.0952,4.885 -43.5138,6.813 -23.5931,3.663 -34.9063,5.447 -41.6323,6.566 -8.0822,1.343 -43.7271,6.795 -50.6012,7.739 -24.3025,3.337 -47.7529,1.379 -63.5998,-5.311 -10.7625,-4.543 -15.6976,-9.618 -15.0096,-15.432 0.6054,-5.11 5.4606,-11.185 12.1053,-15.144 4.2444,-2.53 1.7055,-1.664 -4.7338,1.613 -6.2033,3.158 -10.1144,6.063 -12.4546,9.254 -3.3764,4.602 -3.8764,9.231 -1.5469,14.321 1.6415,3.584 8.3129,10.477 13.4441,13.892 12.2999,8.183 30.7031,11.669 52.74,9.987 z m 485.4124,-0.08 c 1.2015,-1.201 0.4854,-2.045 -3.3097,-3.904 -4.4977,-2.203 -10.7344,-7.826 -13.7667,-12.413 -1.0348,-1.566 -2.0935,-2.783 -2.3522,-2.706 -0.2587,0.08 -0.6628,0.687 -0.8975,1.351 -0.3653,1.032 -0.12,1.648 1.7042,4.196 6.594,9.24 16.0297,16.069 18.6219,13.476 z m 4.5978,-4.396 c 0.168,-0.899 -0.027,-3.586 -0.424,-5.97 -0.4027,-2.384 -0.6668,-4.4 -0.5867,-4.479 0.08,-0.08 0.6147,1.185 1.1907,2.811 1.6455,4.65 1.8962,5.079 1.5815,2.72 -0.3813,-2.875 -1.7601,-6.484 -3.4483,-9.034 -1.6108,-2.431 -9.8357,-9.501 -15.1256,-13.003 -1.9828,-1.312 -3.9404,-2.864 -4.3511,-3.451 -1.0948,-1.561 -0.9761,-5.135 0.2134,-6.411 1.1201,-1.203 3.5123,-1.354 4.8925,-0.309 1.2948,0.978 1.6748,0.864 1.6748,-0.507 0,-3.119 -3.8884,-4.39 -7.8835,-2.576 -2.4015,1.089 -2.9363,2.253 -2.9363,6.391 0,3.534 -0.027,3.5 5.5699,7.443 5.3433,3.766 9.1263,7.353 12.46,11.814 3.8857,5.2 5.5726,9.024 5.8566,13.28 0.2373,3.543 0.7907,4.083 1.3161,1.281 z m -4.5844,-3.052 c 0.3587,-3.694 -7.2395,-14.708 -12.0933,-17.53 l -1.4561,-0.845 -1.9589,1.826 -1.9589,1.829 1.3188,2.422 c 1.6282,2.991 4.5832,6.493 7.8608,9.317 2.7643,2.381 6.9367,4.95 7.6622,4.721 0.2586,-0.08 0.54,-0.866 0.6254,-1.74 z m -468.456,-7.932 c 3.751,-0.517 14.1241,-2.124 23.0503,-3.571 21.1635,-3.432 68.231,-10.94 87.0276,-13.883 8.1502,-1.276 22.8624,-3.601 32.694,-5.169 9.8317,-1.567 19.4634,-3.083 21.4036,-3.367 1.9402,-0.284 3.6937,-0.667 3.895,-0.85 0.6694,-0.608 -1.5695,-2.821 -6.1686,-6.102 -2.5016,-1.783 -5.6819,-4.098 -7.0687,-5.143 l -2.523,-1.9 -1.8868,2.825 c -4.5698,6.844 -15.2869,11.584 -31.2752,13.834 -8.1742,1.151 -27.4988,0.792 -35.649,-0.662 -10.3891,-1.852 -18.9873,-5.059 -24.5585,-9.16 l -2.811,-2.07 -0.7761,4.384 c -1.1174,6.304 -2.4095,9.4 -5.1218,12.267 -3.9297,4.156 -10.8451,6.927 -20.4928,8.214 -5.1312,0.684 -18.4285,0.268 -22.7436,-0.711 -10.8385,-2.458 -17.7032,-6.755 -20.5288,-12.849 -1.1308,-2.439 -1.2601,-3.264 -1.2721,-8.125 0,-4.975 0.093,-5.623 1.2921,-8.067 1.3588,-2.766 3.019,-4.309 7.1247,-6.617 l 2.3896,-1.344 -2.1162,0.248 c -18.8633,2.22 -29.8644,4.634 -42.3377,9.289 -14.9508,5.579 -24.2291,11.905 -25.2212,17.195 -0.5614,2.988 0.9441,6.563 4.043,9.604 5.6966,5.59 19.242,10.431 33.8795,12.11 2.4576,0.282 5.1032,0.6 5.8793,0.708 3.7284,0.52 23.413,-0.197 29.8724,-1.088 z m 450.1021,-10.861 2.0295,-1.835 -1.3241,-0.673 c -0.7281,-0.371 -1.7989,-0.82 -2.3816,-1 -1.0174,-0.314 -1.0588,-0.215 -1.0588,2.528 0,1.57 0.1587,2.846 0.3534,2.835 0.1933,-0.01 1.2655,-0.845 2.3816,-1.855 z m -422.75,-1.915 c 9.8637,-1.002 16.6884,-3.499 20.7955,-7.605 2.6629,-2.664 3.7484,-5.061 4.3178,-9.539 l 0.2986,-2.352 -0.904,1.41 c -4.0338,6.292 -13.8268,9.891 -28.403,10.439 -12.0652,0.453 -20.2434,-1.051 -28.6349,-5.266 -4.7391,-2.379 -5.3992,-2.507 -6.1099,-1.177 -1.2322,2.301 3.3696,6.992 9.897,10.089 7.8114,3.705 17.8751,5.107 28.7429,4.001 z m 435.578,-5.094 c -1.8336,-2.575 -6.7354,-6.216 -7.4315,-5.52 -0.576,0.576 0.4761,1.776 3.7177,4.243 3.8644,2.939 5.2326,3.41 3.7138,1.277 z m 0.9,-9.843 c 0,-2.767 -0.236,-5.868 -0.52,-6.89 -1.0948,-3.946 -4.7805,-6.004 -11.9066,-6.649 l -3.435,-0.312 -0.244,2.528 c -0.1347,1.391 -0.1333,3.758 0,5.259 0.204,2.271 0.3734,2.677 1.0014,2.417 1.6562,-0.684 5.5339,-1.607 6.7767,-1.612 3.1644,-0.01 5.4833,2.62 6.2087,7.05 0.4133,2.533 1.0601,3.891 1.6708,3.513 0.2467,-0.152 0.4467,-2.539 0.4454,-5.304 z m -431.1361,3.921 c 10.7078,-2.273 16.515,-5.976 18.1138,-11.551 0.7641,-2.663 -0.1933,-5.044 -3.2243,-8.009 -3.719,-3.641 -10.8918,-7.044 -10.8918,-5.166 0,0.543 -1.1708,1.183 -2.9403,1.607 -1.5561,0.372 -1.6775,-0.266 -0.3133,-1.63 0.5387,-0.54 0.8881,-1.073 0.7734,-1.187 -0.3667,-0.366 -6.646,-1.58 -8.2209,-1.589 -1.6668,-0.01 -1.9388,0.479 -0.7974,1.425 1.2788,1.062 1.6962,2.25 1.1495,3.271 -0.4081,0.763 -0.9841,0.942 -3.0403,0.942 -2.2056,0 -2.6683,-0.169 -3.5524,-1.292 -0.7787,-0.99 -0.9534,-1.687 -0.7481,-2.971 l 0.2681,-1.679 -2.8097,0.332 c -1.5455,0.183 -4.3457,0.719 -6.2246,1.192 l -3.415,0.862 2.1162,0.269 c 2.4162,0.308 4.9498,1.413 4.8365,2.111 -0.093,0.589 -1.7482,1.068 -3.8951,1.128 -2.1322,0.07 -4.9605,-1.344 -4.8751,-2.42 0.053,-0.652 -0.1854,-0.756 -1.1762,-0.52 -5.0832,1.217 -11.0998,4.735 -12.996,7.6 -1.7215,2.602 -1.9628,4.697 -0.8,6.953 2.9416,5.711 11.1864,9.544 24.0811,11.192 3.1163,0.399 15.2936,-0.171 18.5819,-0.87 z m -18.6433,-4.516 c -8.6395,-1.269 -14.0334,-5.387 -12.6292,-9.642 1.0267,-3.11 5.1191,-5.005 13.396,-6.201 5.9019,-0.852 11.2051,-0.441 16.8617,1.306 4.2898,1.325 7.3648,4.164 7.3648,6.802 0,5.633 -12.6493,9.549 -24.9933,7.735 z m 12.3453,-2.519 c 4.3045,-0.768 7.5235,-2.12 9.1009,-3.822 1.0655,-1.149 1.1095,-1.364 0.5201,-2.503 -0.3534,-0.685 -1.5202,-1.738 -2.5896,-2.34 -2.3082,-1.297 -9.553,-2.881 -13.2,-2.885 -5.9166,-0.01 -12.2719,1.697 -14.9295,4.005 l -1.7709,1.538 0.9628,1.34 c 2.0042,2.792 9.1182,5.215 15.5029,5.278 1.5522,0.01 4.4338,-0.26 6.4033,-0.611 z m 74.7303,5.157 c 0.4014,-0.484 0.5228,-2.411 0.4094,-6.469 -0.156,-5.589 -0.1333,-5.783 0.8361,-5.921 1.3081,-0.186 1.5762,0.884 1.5842,6.345 0,2.376 0.212,4.863 0.4653,5.527 0.4281,1.127 0.6628,1.207 3.5591,1.207 5.0098,0 4.9725,0.05 4.8911,-7.113 -0.04,-3.364 0.067,-6.25 0.2254,-6.412 1.1934,-1.194 2.5963,4.101 2.6163,9.879 v 2.705 l 1.5281,-0.03 c 0.8414,-0.01 2.2709,-0.279 3.1763,-0.589 l 1.6455,-0.561 0.2361,-6.313 c 0.3453,-9.259 1.9215,-8.714 2.5709,0.889 0.1653,2.45 0.3454,4.499 0.4,4.553 0.053,0.05 1.0855,-0.106 2.2909,-0.368 l 2.1909,-0.468 0.1547,-6.014 c 0.1067,-4.292 0.344,-6.243 0.8161,-6.811 1.1761,-1.414 1.6588,-0.01 1.9242,5.578 0.14,2.952 0.4,5.511 0.5774,5.688 0.428,0.428 2.2549,-0.05 3.423,-0.908 0.8241,-0.602 0.9694,-1.386 1.1761,-6.348 0.1494,-3.613 0.4467,-5.873 0.8228,-6.249 1.1428,-1.141 1.6761,0.393 1.9015,5.463 0.12,2.727 0.3787,4.958 0.5721,4.958 0.9814,0 1.5388,-1.847 1.8935,-6.277 0.3774,-4.717 1.3495,-8.306 2.2509,-8.306 0.2387,0 0.7187,1.323 1.0668,2.939 l 0.6347,2.941 0.26,-3.527 c 0.204,-2.779 0.5827,-4.118 1.7789,-6.3 0.8907,-1.625 1.5201,-3.449 1.5201,-4.41 0,-1.934 -0.5694,-2.249 6.8274,3.783 2.7856,2.271 5.1445,4.048 5.2445,3.948 0.2787,-0.279 -1.6255,-4.512 -2.5696,-5.712 -1.7801,-2.263 -18.8379,-16.44 -23.8411,-19.815 -4.8711,-3.284 -5.3819,-3.52 -6.8233,-3.147 l -1.5589,0.404 5.3619,2.995 c 11.7105,6.541 13.1094,7.622 14.9722,11.586 2.747,5.842 -1.2921,12.22 -10.5851,16.718 -7.2794,3.525 -14.9708,5.177 -28.1909,6.059 -6.0646,0.405 -19.0952,-0.07 -24.1331,-0.874 -2.1989,-0.352 -2.4576,-0.31 -2.1856,0.357 0.9601,2.351 1.1775,4.064 1.0815,8.508 l -0.1067,4.927 2.0882,0.612 c 1.5349,0.451 2.3856,0.48 3.2137,0.107 1.1174,-0.501 1.1254,-0.551 0.8867,-6.01 -0.26,-5.968 -0.168,-6.684 0.8601,-6.684 1.0108,0 1.4268,1.608 1.7562,6.784 0.3787,5.97 1.0321,6.859 5.0392,6.859 1.7815,0 2.875,-0.231 3.255,-0.689 z m 109.1499,-14.822 c 15.6536,-2.587 39.5747,-6.505 53.1574,-8.707 13.5841,-2.203 25.968,-4.218 27.5202,-4.477 3.6724,-0.615 25.2986,-4.122 43.7485,-7.094 8.0208,-1.293 24.2144,-3.938 35.9876,-5.878 63.9666,-10.541 62.3184,-10.234 65.7388,-12.24 3.7124,-2.175 5.6686,-6.602 4.1844,-9.471 -1.0241,-1.979 -2.8683,-3.427 -8.9396,-7.019 -6.566,-3.883 -10.6384,-6.751 -13.9054,-9.79 -1.4722,-1.369 -2.3882,-1.975 -2.1682,-1.431 1.7575,4.333 2.2695,13.587 0.9881,17.847 -1.3788,4.578 -4.3805,7.411 -10.4864,9.891 -7.0688,2.873 -21.4729,4.286 -31.6246,3.101 -13.7534,-1.602 -24.4892,-6.692 -27.6362,-13.101 -1.2774,-2.601 -1.3188,-2.919 -1.3188,-10.212 0,-8.603 0.5561,-10.577 3.8538,-13.678 l 1.7908,-1.683 -1.8815,0.275 c -1.0348,0.152 -9.8197,1.536 -19.522,3.075 -25.4746,4.043 -52.0613,8.244 -65.8588,10.409 -24.5398,3.849 -32.0846,5.071 -32.2313,5.216 -0.1973,0.199 4.3138,3.957 16.1484,13.448 5.3525,4.294 9.9903,8.138 10.305,8.544 0.8414,1.083 0.7694,6.386 -0.093,7.252 -0.8507,0.851 -0.6987,0.819 -14.1174,2.925 -5.9513,0.933 -20.5568,3.261 -32.4594,5.174 -25.1625,4.043 -39.072,6.131 -43.8658,6.588 -1.8762,0.179 -3.411,0.412 -3.411,0.518 0,0.433 2.0736,4.216 3.003,5.48 1.0881,1.48 8.4795,7.612 11.1091,9.219 0.9068,0.552 2.0709,0.896 2.5883,0.764 0.5174,-0.134 13.7481,-2.357 29.4003,-4.945 z m 48.9237,-52.431 c 0,-0.924 0.08,-1.68 0.1933,-1.68 0.1067,0 5.0272,-0.827 10.9371,-1.837 5.9086,-1.011 11.6586,-1.984 12.7747,-2.165 l 2.0308,-0.325 -0.1493,1.811 -0.148,1.811 -10.3504,1.716 c -5.6913,0.944 -11.4599,1.859 -12.8187,2.032 l -2.4695,0.318 z m -272.0466,55.367 c -0.12,-0.457 -0.224,-0.197 -0.2333,0.579 0,0.776 0.093,1.151 0.216,0.832 0.1333,-0.318 0.1373,-0.953 0.013,-1.411 z m 132.6323,-5.728 c 9.6223,-1.628 17.7498,-4.626 21.3728,-7.882 4.3925,-3.95 5.6419,-7.702 3.7804,-11.349 -0.9494,-1.859 -2.8723,-3.884 -2.8723,-3.023 0,0.284 0.2107,0.646 0.4694,0.806 0.9441,0.584 0.4507,2.058 -0.9148,2.741 -1.2854,0.64 -1.4334,0.621 -2.0215,-0.264 -0.6107,-0.922 -0.6641,-0.926 -1.4841,-0.107 -0.6801,0.679 -1.0255,0.743 -1.7096,0.315 -0.472,-0.295 -0.9267,-0.386 -1.0094,-0.2 -0.08,0.184 -0.8747,0.738 -1.7588,1.232 l -1.6069,0.894 -0.8694,-1.073 c -0.6814,-0.841 -0.7507,-1.219 -0.3174,-1.74 0.3041,-0.367 0.8415,-0.556 1.1935,-0.422 0.4987,0.192 0.5347,0.04 0.16,-0.652 -1.0894,-2.037 0.1334,-4.091 1.6735,-2.812 0.3441,0.285 1.3935,0.911 2.3309,1.388 1.3255,0.676 1.6495,0.72 1.4482,0.196 -0.1427,-0.37 -0.027,-0.674 0.2467,-0.674 0.2787,0 0.3813,-0.326 0.2293,-0.723 -0.4814,-1.254 1.1708,-1.431 2.1429,-0.23 0.4841,0.598 0.9988,0.967 1.1441,0.822 0.144,-0.146 -1.3428,-1.54 -3.3043,-3.099 l -3.5684,-2.835 -2.3175,0.688 c -2.3003,0.683 -2.3336,0.677 -4.4218,-0.732 -2.8297,-1.91 -9.621,-3.584 -15.9977,-3.947 -3.959,-0.224 -5.0525,-0.159 -4.9018,0.297 0.12,0.359 1.6095,0.715 3.8497,0.92 3.5124,0.322 4.9712,0.882 4.9712,1.907 0,0.313 -1.3575,0.376 -3.8804,0.181 -2.7923,-0.216 -3.651,-0.162 -3.059,0.191 0.9521,0.567 1.0775,1.884 0.26,2.702 -0.32,0.32 -1.8495,0.565 -3.523,0.565 -2.9536,0 -2.9576,0 -3.6684,-1.704 -0.78,-1.866 -0.9601,-4.882 -0.292,-4.882 0.2307,0 0.5361,0.304 0.6787,0.675 0.1427,0.371 0.7468,0.929 1.3442,1.241 1.0588,0.554 1.0561,0.538 -0.093,-0.63 -0.6468,-0.659 -1.4495,-1.535 -1.7829,-1.947 -0.5,-0.619 -1.6948,-0.75 -6.8207,-0.743 -3.419,0 -6.494,0.184 -6.8353,0.401 -0.4694,0.298 -0.2601,0.698 0.8587,1.639 0.8148,0.686 1.6762,1.246 1.9149,1.246 1.0868,0 0.272,1.504 -1.1948,2.203 -1.6002,0.762 -1.6682,0.752 -3.8804,-0.616 -1.2388,-0.766 -2.2522,-1.647 -2.2522,-1.961 0,-0.312 0.1066,-0.532 0.2347,-0.488 0.1333,0.04 0.6867,-0.162 1.2388,-0.457 0.8454,-0.452 0.9947,-0.412 0.9414,0.255 -0.04,0.442 0.3467,0.877 0.8627,0.982 0.7734,0.159 0.8295,0.08 0.3441,-0.51 -0.3187,-0.386 -0.4601,-1.014 -0.3134,-1.397 0.2227,-0.578 -0.6174,-0.513 -5.0072,0.394 -2.9016,0.599 -5.4699,1.284 -5.7086,1.523 -0.2653,0.265 1.0695,1.233 3.4297,2.487 2.7616,1.466 3.5857,2.096 2.887,2.201 -0.5374,0.08 -1.3628,-0.05 -1.8335,-0.311 -0.5948,-0.318 -1.2108,-0.261 -2.0229,0.19 -1.5202,0.84 -3.2897,0.824 -4.4338,-0.04 -0.5027,-0.38 -1.5281,-0.691 -2.2789,-0.691 -0.9694,0 -1.4361,-0.273 -1.6108,-0.941 -0.3601,-1.378 -1.5308,-1.162 -4.6498,0.857 -6.514,4.216 -8.7463,9.39 -6.2647,14.516 3.1137,6.433 17.1178,12.103 33.3581,13.508 5.6366,0.488 21.5916,-0.149 27.1135,-1.084 z m -26.224,-0.34 c -0.8601,-1.036 -0.2334,-2.268 1.4681,-2.894 l 1.6402,-0.603 -1.8815,0.228 c -1.7296,0.211 -1.8069,0.174 -0.9681,-0.454 0.5027,-0.376 1.2027,-0.684 1.5561,-0.684 0.3547,0 0.5254,-0.192 0.3801,-0.427 -0.1441,-0.235 -0.6868,-0.316 -1.2028,-0.18 -1.1295,0.295 -1.1615,0.04 -0.2227,-1.77 0.632,-1.222 0.9667,-1.386 2.8269,-1.386 1.4268,0 2.3376,0.265 2.8136,0.822 1.1028,1.288 0.9881,1.745 -0.5053,2.018 l -1.3842,0.255 1.3762,0.686 c 1.7388,0.868 2.1162,1.863 0.7067,1.863 -1.0201,0 -1.0268,0.03 -0.2094,0.932 0.6855,0.758 0.7335,1.064 0.2574,1.639 -0.7347,0.884 -5.9086,0.85 -6.6513,-0.04 z m 5.6965,-0.644 c 0,-0.259 -0.5827,-0.467 -1.2934,-0.463 -1.0081,0 -1.1388,0.107 -0.5881,0.463 0.9201,0.594 1.8815,0.594 1.8815,0 z m -3.1763,-0.655 c 1.2041,-0.913 1.0055,-1.289 -0.352,-0.671 -0.6468,0.295 -1.1761,0.714 -1.1761,0.931 0,0.561 0.5747,0.464 1.5281,-0.26 z m 1.7642,-4.05 c 0,-0.258 -0.3174,-0.47 -0.7054,-0.47 -0.388,0 -0.7054,0.212 -0.7054,0.47 0,0.259 0.3174,0.471 0.7054,0.471 0.388,0 0.7054,-0.212 0.7054,-0.471 z m 17.7885,4.079 c -0.344,-0.344 -0.9028,-0.534 -1.2415,-0.421 -0.3373,0.107 -0.7307,-0.24 -0.8734,-0.785 -0.144,-0.551 -0.6401,-0.991 -1.1174,-0.991 -1.2255,0 -1.4522,-0.634 -0.6428,-1.79 0.5614,-0.801 1.0068,-0.944 2.2149,-0.714 2.0242,0.385 2.0562,0.45 0.7561,1.556 l -1.1255,0.956 1.9869,-0.211 c 1.7149,-0.183 2.1202,-0.04 2.955,1.018 0.7494,0.952 0.8307,1.316 0.3654,1.612 -0.9215,0.584 -2.5803,0.468 -3.2777,-0.23 z m 1.9695,-1.727 c 0,-0.258 -0.093,-0.47 -0.2067,-0.47 -0.12,0 -0.3387,0.212 -0.4987,0.47 -0.16,0.259 -0.067,0.471 0.2067,0.471 0.2747,0 0.4987,-0.212 0.4987,-0.471 z m -38.7226,0.906 c -0.9868,-0.528 -1.7109,-1.211 -1.6082,-1.52 0.1067,-0.308 1.1561,-1.163 2.3443,-1.899 2.2989,-1.426 3.1096,-1.398 4.9858,0.169 l 1.1041,0.923 -0.8921,1.535 c -1.1148,1.917 -3.2856,2.207 -5.9339,0.792 z m 3.9124,-1.128 c 0,-0.283 -2.6496,-1.664 -3.1523,-1.643 -0.6508,0.03 1.8108,1.865 2.4976,1.865 0.36,0 0.6547,-0.09 0.6547,-0.222 z m 0.4694,-1.894 c -0.3214,-0.388 -0.7974,-0.706 -1.0561,-0.706 -0.2614,0 -0.2107,0.312 0.12,0.706 0.3213,0.388 0.7974,0.706 1.0561,0.706 0.2613,0 0.2107,-0.312 -0.12,-0.706 z m 43.5458,0.63 -1.8496,-0.976 1.1442,-0.634 c 1.5668,-0.868 2.0922,-0.821 1.3188,0.12 -0.5868,0.714 -0.4948,0.759 1.0014,0.503 0.9054,-0.156 1.3815,-0.173 1.0588,-0.04 -0.3241,0.133 -0.5814,0.489 -0.5734,0.791 0,0.302 0.424,0.07 0.9214,-0.538 0.7321,-0.877 1.2868,-1.059 2.8883,-0.94 2.6123,0.191 2.7896,1.02 0.4187,1.968 -2.5002,1 -4.0711,0.938 -6.3286,-0.253 z m 5.1032,-0.696 c 0.248,-0.647 0.1786,-0.675 -0.4201,-0.179 -0.8161,0.679 -0.9014,0.951 -0.296,0.951 0.2307,0 0.5534,-0.348 0.7161,-0.772 z m -62.6905,-0.287 c -0.324,-0.324 -0.8387,-0.588 -1.1468,-0.588 -1.1041,0 -0.8307,-1.484 0.3748,-2.034 1.6321,-0.744 1.7575,-0.706 1.1881,0.356 -0.9681,1.809 -0.4534,2.066 1.1054,0.554 l 1.5922,-1.543 1.5828,0.839 c 0.8708,0.461 2.0069,0.79 2.5243,0.73 0.9281,-0.106 0.9281,-0.09 0.027,0.612 -0.5027,0.396 -1.0321,0.55 -1.1761,0.34 -0.1454,-0.208 -0.7721,-0.728 -1.3949,-1.153 -1.3134,-0.899 -2.8909,-0.361 -2.8296,0.963 0.027,0.491 0.1334,0.576 0.2747,0.218 0.2507,-0.621 1.6695,-0.801 2.1922,-0.278 0.1707,0.17 0.08,0.593 -0.2133,0.941 -0.6601,0.795 -3.3217,0.823 -4.1018,0.04 z m 14.8722,-0.852 c -1.4575,-1.366 -1.4761,-1.423 -0.36,-1.127 0.6467,0.171 1.7002,0.819 2.3416,1.439 0.9547,0.924 1.0201,1.128 0.36,1.128 -0.4427,0 -1.4962,-0.648 -2.3416,-1.44 z m 2.3856,-0.395 c -0.6041,-0.472 -1.6148,-1.02 -2.2456,-1.217 -1.0974,-0.344 -1.1081,-0.388 -0.2627,-1.006 0.4854,-0.356 1.9082,-0.647 3.1604,-0.647 2.8189,0 3.427,0.963 1.6481,2.613 -1.1748,1.089 -1.2268,1.096 -2.3002,0.257 z m 0.7561,-1.184 c -0.5027,-0.367 -1.0135,-0.568 -1.1348,-0.445 -0.2587,0.258 0.9534,1.094 1.6042,1.105 0.244,0 0.027,-0.293 -0.4694,-0.66 z m 21.4795,1.177 c -1.1628,-0.736 -0.2107,-1.921 1.5442,-1.921 2.0482,0 3.111,0.401 3.111,1.176 0,1.108 -3.259,1.63 -4.6552,0.745 z m 15.955,-0.77 c 0.268,-0.706 0.428,-1.34 0.356,-1.411 -0.067,-0.07 -1.0148,0.03 -2.0962,0.231 -2.5349,0.465 -3.5884,-0.134 -2.2682,-1.281 2.0602,-1.796 2.3175,-2.394 1.4414,-3.361 -0.764,-0.844 -0.7534,-0.906 0.1987,-1.207 0.7521,-0.239 1.2882,0.01 2.1416,1.005 l 1.1374,1.325 -1.2828,1.026 c -0.7067,0.564 -1.1334,1.178 -0.9481,1.364 0.1841,0.186 1.6655,0.314 3.2924,0.283 3.4123,-0.07 4.5831,0.386 3.4497,1.327 -0.5628,0.467 -0.8788,0.477 -1.3975,0.05 -0.9174,-0.761 -2.2896,-0.453 -2.8576,0.639 -0.2587,0.497 -0.7374,0.992 -1.0628,1.098 -0.4561,0.151 -0.4801,-0.09 -0.1067,-1.086 z m -0.8921,-5.51 c -0.4641,-0.462 -0.5187,-0.408 -0.264,0.262 0.1773,0.465 0.44,0.726 0.5854,0.581 0.144,-0.144 0,-0.525 -0.3214,-0.843 z m -58.6193,5.779 c -0.1921,-0.309 -0.1361,-0.773 0.12,-1.032 0.6134,-0.613 1.1001,0.176 0.604,0.977 -0.288,0.468 -0.464,0.482 -0.7267,0.05 z m 13.7294,-0.779 c -0.5868,-0.586 -0.3494,-0.876 0.7294,-0.894 0.5827,-0.01 1.6588,-0.178 2.3922,-0.372 0.7854,-0.209 1.2228,-0.177 1.0655,0.08 -0.1481,0.238 -0.7481,0.537 -1.3335,0.664 -0.5854,0.133 -1.3935,0.37 -1.7962,0.541 -0.4014,0.171 -0.8774,0.163 -1.0574,-0.01 z m -15.1469,-0.641 c 0.16,-0.259 0.384,-0.471 0.4987,-0.471 0.12,0 0.2067,0.212 0.2067,0.471 0,0.259 -0.224,0.471 -0.4974,0.471 -0.2747,0 -0.368,-0.212 -0.208,-0.471 z m 11.0544,0 c -0.412,-0.267 -0.4747,-0.459 -0.152,-0.464 0.3054,0 0.6521,-0.378 0.7708,-0.83 0.12,-0.453 0.1947,-0.241 0.168,0.47 -0.027,0.712 -0.053,1.291 -0.067,1.287 0,0 -0.3334,-0.212 -0.7214,-0.463 z m 62.5664,-0.01 c 0,-0.267 0.3134,-0.605 0.6961,-0.752 0.3827,-0.148 1.1401,-0.988 1.6842,-1.867 1.0414,-1.685 2.4989,-2.107 2.9776,-0.86 0.4054,1.057 -0.4614,2.428 -2.0562,3.254 -1.5801,0.817 -3.3017,0.934 -3.3017,0.225 z m -75.745,-1.642 c -0.8975,-1.081 0.6587,-2.577 2.6829,-2.577 1.2055,0 1.6922,0.255 2.0202,1.059 l 0.4307,1.057 0.3267,-1.108 c 0.2814,-0.951 0.5494,-1.073 1.8775,-0.857 1.0255,0.165 1.7376,0.03 2.1056,-0.42 0.3067,-0.37 0.8347,-0.673 1.1734,-0.673 0.7108,0 1.3535,1.645 0.9188,2.349 -0.4174,0.674 -2.4696,0.589 -2.7323,-0.12 -0.1573,-0.42 -0.404,-0.35 -0.8641,0.245 -0.644,0.836 -3.543,1.256 -4.5164,0.655 -0.2721,-0.17 -0.6161,0.01 -0.7641,0.396 -0.3494,0.911 -1.8989,0.904 -2.6589,-0.01 z m 18.4152,0.371 c -1.5469,-0.189 -1.5615,-0.211 -0.5881,-0.892 0.5481,-0.384 0.9974,-1.004 0.9974,-1.377 0,-0.902 -1.2574,-0.871 -1.7695,0.04 -0.352,0.628 -0.52,0.596 -1.2748,-0.239 -0.4787,-0.528 -0.744,-1.087 -0.5894,-1.242 0.4961,-0.496 6.6661,-1.956 7.2768,-1.721 1.0081,0.387 0.6494,2.26 -0.6614,3.455 -0.6894,0.627 -1.1001,0.875 -0.9134,0.552 0.5053,-0.876 -0.4428,-0.711 -1.1882,0.208 -0.4387,0.54 -0.4573,0.683 -0.053,0.443 0.3694,-0.223 0.5881,-0.08 0.5881,0.38 0,0.403 -0.053,0.699 -0.12,0.657 -0.067,-0.04 -0.8308,-0.161 -1.7029,-0.268 z m 2.6282,-3.708 c -0.4573,-0.458 -1.7495,0.744 -1.7495,1.628 0,0.604 0.2027,0.549 1.0335,-0.28 0.5667,-0.568 0.8894,-1.175 0.716,-1.348 z m 51.1946,2.372 c -0.7787,-1.187 -0.8081,-1.192 -1.5828,-0.3 -0.5147,0.592 -1.0374,0.78 -1.4962,0.537 -0.388,-0.204 -1.0921,-0.49 -1.5641,-0.638 -1.0255,-0.32 -0.8801,-1.61 0.2613,-2.329 0.6294,-0.396 0.9975,-0.329 1.6202,0.292 0.7481,0.749 0.8668,0.751 1.6588,0.04 1.0121,-0.916 1.4335,-0.621 1.4335,1.007 0,0.658 0.093,1.196 0.208,1.196 0.4868,0 2.3429,-1.132 3.327,-2.029 1.3669,-1.246 2.2403,-0.566 1.5629,1.219 -0.9215,2.423 -4.1138,3.019 -5.4286,1.012 z m -2.8443,-1.612 c -0.16,-0.259 -0.4894,-0.471 -0.7334,-0.471 -0.2427,0 -0.4427,0.212 -0.4427,0.471 0,0.259 0.3307,0.471 0.7334,0.471 0.4041,0 0.6027,-0.212 0.4427,-0.471 z m -56.7124,1.143 c -0.4894,-0.59 -0.4601,-0.858 0.1613,-1.479 0.6267,-0.627 0.8868,-0.654 1.4895,-0.155 0.9628,0.8 0.9187,1.296 -0.1627,1.875 -0.6667,0.357 -1.0428,0.296 -1.4881,-0.241 z m 41.8949,-0.12 c 0,-0.474 0.4761,-1.295 1.0575,-1.827 0.9881,-0.903 3.7457,-2.49 4.3284,-2.49 0.5827,0 0.2067,1.331 -0.4467,1.582 -0.3881,0.149 -0.7054,0.764 -0.7054,1.366 0,0.815 -0.4014,1.242 -1.5628,1.662 -2.1323,0.771 -2.671,0.712 -2.671,-0.293 z m 3.7231,-1.611 c 0.22,-0.583 0.3027,-1.164 0.1813,-1.294 -0.248,-0.266 -1.5521,1.39 -1.5521,1.971 0,0.815 0.9921,0.326 1.3708,-0.677 z m 11.8745,-0.824 c 0,-0.647 0.1067,-0.911 0.2374,-0.588 0.1333,0.324 0.1333,0.853 0,1.176 -0.1334,0.324 -0.2374,0.05 -0.2374,-0.588 z m -72.2327,-1.214 c -0.3827,-0.996 -0.3894,-0.967 0.4534,-1.811 0.9387,-0.938 5.0405,-1.004 5.7965,-0.09 0.2961,0.357 0.4041,0.991 0.2427,1.413 -0.3187,0.832 -1.6041,1.062 -1.6041,0.288 0,-0.279 -0.7081,-0.182 -1.7042,0.236 -2.1616,0.902 -2.8283,0.896 -3.1843,-0.03 z m 8.1101,-0.402 c -0.692,-1.518 -0.1906,-2.833 0.8988,-2.359 0.4507,0.196 1.3481,0.376 1.9949,0.401 1.5575,0.07 1.9028,-1.756 0.5,-2.632 -1.6201,-1.012 -1.2294,-1.939 0.6761,-1.607 0.9054,0.157 2.4402,0.403 3.411,0.544 4.4258,0.648 4.5391,0.803 2.8923,3.962 -1.0401,1.995 -1.7188,2.269 -3.247,1.315 -0.8001,-0.499 -1.0388,-0.427 -1.7015,0.52 l -0.7707,1.1 -1.0708,-1.343 -1.0721,-1.343 -0.5894,1.294 c -0.7281,1.596 -1.2442,1.636 -1.9216,0.148 z m 8.8236,-2.306 c 1.5562,-1.339 1.1935,-2.375 -0.5934,-1.695 -0.8307,0.316 -1.4121,0.3 -1.8322,-0.05 -0.4614,-0.383 -0.7334,-0.291 -1.0867,0.368 -0.5174,0.967 -0.2081,1.719 0.876,2.132 1.1482,0.436 1.3002,0.394 2.6363,-0.756 z m -8.7502,-1.956 c -0.3201,-0.387 -0.4721,-1.127 -0.3361,-1.646 0.3494,-1.337 -0.352,-1.172 -0.9921,0.232 -0.324,0.712 -0.9254,1.176 -1.5241,1.176 -0.8521,0 -0.9454,-0.192 -0.6774,-1.41 0.2467,-1.123 0.1507,-1.411 -0.4654,-1.411 -0.5214,0 -0.6907,0.268 -0.5187,0.823 0.352,1.129 -0.3641,2.125 -1.3855,1.928 -1.2334,-0.24 -1.3055,-1.006 -0.2067,-2.184 0.7348,-0.79 1.4975,-1.037 3.183,-1.031 3.3057,0.01 4.4138,0.406 4.0791,1.463 -0.1547,0.486 -0.053,0.882 0.2214,0.882 0.276,0 0.5027,0.423 0.5027,0.94 0,1.107 -1.0481,1.241 -1.8802,0.238 z m 49.2464,-3.467 c -0.7281,-0.48 -2.1576,-1.147 -3.1764,-1.484 -2.0175,-0.666 -2.2815,-1.115 -1.0614,-1.798 0.8187,-0.457 5.1178,0.529 6.0059,1.38 0.5348,0.511 1.9842,0.584 1.4749,0.08 -0.1947,-0.194 -1.1668,-0.672 -2.1603,-1.06 l -1.8081,-0.707 1.3388,-1.64 1.3388,-1.64 4.7484,1.556 c 2.6123,0.858 4.6365,1.74 4.4978,1.966 -0.1386,0.224 -0.8294,0.698 -1.5361,1.056 -0.7068,0.356 -1.7082,0.869 -2.2256,1.139 -0.5174,0.269 -1.6081,0.837 -2.4242,1.262 -1.9269,1.003 -3.3777,0.973 -5.0125,-0.106 z m -105.6989,20.164 c -0.9214,-0.594 -1.5441,-0.594 -1.1761,0 0.16,0.259 0.6494,0.469 1.0868,0.465 0.6854,0 0.6974,-0.07 0.093,-0.465 z m -2.1402,-0.417 c -0.2453,-0.229 -0.9761,-0.559 -1.6228,-0.729 -1.1308,-0.302 -1.1401,-0.284 -0.2627,0.417 0.9628,0.77 2.6789,1.054 1.8855,0.312 z m 16.0177,-0.523 c 0,-0.345 -0.2641,-0.716 -0.5881,-0.824 -0.3494,-0.12 -0.5881,0.218 -0.5881,0.824 0,0.606 0.2387,0.939 0.5881,0.823 0.324,-0.107 0.5881,-0.479 0.5881,-0.823 z m -2.2763,-0.677 c -0.428,-0.908 -0.62,-1.005 -0.9214,-0.467 -0.4574,0.816 -0.04,1.614 0.8294,1.614 0.5054,0 0.5241,-0.231 0.093,-1.147 z m 147.5178,-6.579 c 0.7121,-0.159 1.2948,-0.463 1.2948,-0.676 0,-0.423 -3.1417,-3.095 -15.0535,-12.807 -13.3081,-10.851 -13.2307,-10.801 -17.2645,-10.732 -5.2832,0.09 -5.4032,0.376 -1.2628,2.999 2.0242,1.283 6.0153,4.43 8.8689,6.993 11.4252,10.262 15.9643,13.672 19.222,14.437 1.4828,0.347 1.7242,0.335 4.1951,-0.214 z m 19.5487,-4.638 c 0.1693,-2.63 0.3373,-2.594 -6.4874,-1.371 l -4.4618,0.799 -0.3093,1.881 c -0.1694,1.035 -0.2387,1.999 -0.1534,2.143 0.08,0.143 2.655,-0.08 5.7113,-0.487 l 5.5565,-0.746 z m -14.4909,1.472 c 0,-0.751 -2.4669,-3.02 -10.1343,-9.324 -3.6111,-2.969 -9.2183,-7.626 -12.4613,-10.349 -6.7314,-5.654 -9.693,-8.009 -10.0717,-8.009 -0.144,0 -0.2627,0.61 -0.2627,1.355 0,1.1 0.5067,1.732 2.7056,3.375 1.4868,1.112 5.986,4.703 9.9957,7.98 19.4233,15.869 20.2287,16.465 20.2287,14.972 z m 26.7255,-1.116 c 6.4446,-0.976 29.2923,-4.638 35.2516,-5.65 0.8414,-0.144 1.5295,-0.489 1.5295,-0.769 0,-0.344 -0.8975,-0.41 -2.751,-0.2 -2.7043,0.306 -2.795,0.278 -5.5272,-1.746 -1.5269,-1.132 -7.6461,-6.022 -13.5961,-10.869 -5.9513,-4.846 -11.4052,-9.121 -12.1212,-9.498 -1.0308,-0.546 -1.6922,-0.583 -3.175,-0.184 -1.0308,0.277 -1.8669,0.656 -1.8575,0.84 0,0.184 0.8334,0.969 1.8281,1.745 3.6257,2.826 18.3233,15.283 18.6446,15.802 0.1814,0.293 0.093,0.677 -0.192,0.855 -0.2867,0.177 -5.0659,1.036 -10.6198,1.908 l -10.097,1.587 -1.7895,-1.191 c -1.6788,-1.116 -12.2559,-9.497 -18.8566,-14.942 -2.859,-2.36 -3.0043,-2.42 -4.5858,-1.897 -0.8988,0.296 -1.6335,0.702 -1.6335,0.902 0,0.202 1.2174,1.342 2.7056,2.534 7.1194,5.709 16.9391,14.412 18.3472,16.264 1.6002,2.103 1.8389,3.581 0.5801,3.581 -0.7894,0 -1.3868,0.653 -1.3975,1.529 0,0.787 0.2654,0.77 9.313,-0.601 z m -24.8439,-1.858 c 0,-1.178 1.9242,-1.985 6.7433,-2.831 l 4.6258,-0.809 -1.3334,-1.399 c -1.5589,-1.633 -26.1174,-21.938 -28.0416,-23.182 -1.2721,-0.823 -1.4615,-0.811 -7.4434,0.511 l -6.1366,1.356 1.5628,1.336 c 0.8588,0.735 7.0661,5.942 13.7934,11.572 13.6587,11.429 15.2882,12.882 15.2882,13.624 0,0.284 0.2121,0.517 0.4708,0.517 0.2587,0 0.4707,-0.313 0.4707,-0.695 z m 77.2666,-7.075 c 1.0041,-0.256 1.2921,-0.607 1.2854,-1.572 -0.013,-2.543 -0.32,-2.631 -6.1459,-1.791 -2.919,0.421 -5.4633,0.929 -5.6526,1.128 -0.3174,0.332 -0.5921,2.476 -0.4747,3.7 0.04,0.477 7.018,-0.453 10.9878,-1.465 z m -46.6902,-1.444 c 2.9763,-0.438 5.6993,-0.946 6.0513,-1.131 0.7348,-0.385 -18.0205,-16 -19.2139,-15.996 -1.3362,0 -4.3018,0.997 -4.1538,1.389 0.08,0.216 1.8909,1.796 4.0217,3.513 5.3539,4.311 5.6233,6.292 1.0575,7.799 -1.0308,0.34 -1.8749,0.713 -1.8749,0.828 0,0.275 2.0202,1.903 4.3458,3.5 1.2215,0.842 2.2776,1.21 3.1043,1.083 0.6894,-0.106 3.6871,-0.549 6.662,-0.985 z m 27.0521,-1.62 c 0.2321,-1.695 0.1454,-2.582 -0.308,-3.129 -0.3494,-0.42 -4.8685,-4.157 -10.0424,-8.307 -5.1751,-4.149 -10.7797,-8.697 -12.4546,-10.108 l -3.0456,-2.565 -0.8374,2.77 -0.8374,2.771 1.4921,1.177 c 0.8214,0.646 6.6607,5.356 12.976,10.466 6.3153,5.11 11.7625,9.292 12.1066,9.292 0.3934,0 0.7454,-0.877 0.9507,-2.367 z m 4.6632,2.08 c 1.1441,-0.439 0.8827,-1.852 -0.4534,-2.46 -0.6601,-0.302 -1.2948,-0.547 -1.4121,-0.547 -0.5054,0 -0.1574,2.767 0.3747,2.982 0.324,0.133 0.624,0.253 0.668,0.274 0.04,0.01 0.4134,-0.09 0.8228,-0.249 z m -163.4781,-1.087 c 0.4987,-0.316 0.1894,-0.657 -1.2748,-1.404 -3.307,-1.687 -5.5086,-0.819 -2.5602,1.009 1.4321,0.887 2.8296,1.031 3.835,0.395 z m 29.6831,-0.04 c -0.3881,-0.251 -1.0242,-0.444 -1.4122,-0.429 -0.4654,0.01 -0.3854,0.162 0.236,0.429 1.2935,0.556 2.0349,0.556 1.1762,0 z m -16.4657,-3.32 c 0,-0.244 -0.3174,-0.443 -0.7054,-0.443 -0.7268,0 -0.9348,0.555 -0.4041,1.085 0.3761,0.375 1.1095,-0.05 1.1095,-0.642 z m 18.2192,0.684 c -0.1561,-0.156 -0.5614,-0.172 -0.9015,-0.04 -0.3747,0.15 -0.264,0.261 0.2841,0.284 0.496,0.01 0.7734,-0.09 0.6174,-0.247 z m 141.8225,-1.375 2.4749,-0.341 -1.8749,-1.647 c -1.0307,-0.907 -6.0032,-4.943 -11.0477,-8.97 -5.0459,-4.028 -10.9678,-8.763 -13.1601,-10.524 -2.1935,-1.762 -4.3097,-3.205 -4.7044,-3.209 -0.3948,0 -2.3056,0.337 -4.2458,0.753 -1.9402,0.417 -4.0191,0.85 -4.6205,0.965 -0.9121,0.172 0.6441,1.588 9.4076,8.566 5.7766,4.598 12.7627,10.079 15.527,12.179 l 5.0245,3.819 2.3722,-0.626 c 1.3042,-0.344 3.4857,-0.778 4.8472,-0.965 z m -54.1976,-2.98 c 0,-0.174 -1.9135,-2.082 -4.2524,-4.239 l -4.2538,-3.922 -3.0576,0.577 c -1.6829,0.318 -2.9963,0.734 -2.9216,0.924 0.1826,0.46 5.7152,5.106 8.2741,6.95 2.0082,1.447 2.0322,1.451 4.1165,0.742 1.1521,-0.394 2.0948,-0.858 2.0948,-1.032 z m 198.5177,-1.014 c 5.1232,-0.788 9.4983,-1.939 12.5146,-3.289 2.899,-1.298 6.3993,-4.066 7.3221,-5.789 0.4934,-0.921 0.4827,-0.921 -0.8481,0.01 -7.2194,5.099 -18.0218,7.486 -31.9259,7.054 -11.7212,-0.363 -19.4607,-2.209 -27.5188,-6.567 l -3.5284,-1.907 1.6468,1.751 c 3.247,3.453 13.1921,7.487 21.4129,8.685 3.9711,0.577 17.2791,0.606 20.9248,0.04 z m -1.0054,-4.935 c 14.0534,-1.999 21.6875,-6.95 21.7009,-14.079 v -1.381 l -1.2935,1.212 c -2.5603,2.399 -8.2329,4.526 -15.6416,5.865 -3.319,0.6 -7.0114,0.804 -14.3481,0.794 -13.9735,-0.01 -20.3955,-1.296 -29.5097,-5.868 -2.519,-1.264 -4.6885,-2.298 -4.8219,-2.298 -0.5467,0 -0.192,3.024 0.5334,4.555 2.2189,4.674 13.9908,9.963 25.3306,11.379 5.1965,0.649 12.7427,0.575 18.0472,-0.179 z m -2.759,-9.66 c 13.052,-1.177 21.9049,-5.072 22.8384,-10.05 0.7627,-4.067 -4.7179,-8.783 -14.1348,-12.163 -13.252,-4.755 -35.125,-3.471 -45.6167,2.678 -2.9283,1.716 -4.3578,4.617 -3.523,7.149 2.0522,6.219 12.7599,10.986 28.2055,12.558 3.4324,0.35 6.9981,0.299 12.2306,-0.172 z m -17.1244,-3.779 c -7.4928,-1.029 -12.8747,-3.159 -15.5949,-6.17 -2.0576,-2.277 -2.1256,-4.005 -0.2414,-6.151 6.5807,-7.495 29.6164,-8.663 42.511,-2.155 5.0272,2.538 7.3848,4.881 7.3848,7.34 0,1.045 -2.4523,3.469 -4.6138,4.559 -3.8564,1.944 -8.5116,2.707 -17.4951,2.868 -4.7872,0.08 -10.1638,-0.04 -11.9506,-0.291 z m 16.2777,-2.324 c 7.7928,-0.739 14.0187,-3.243 14.0187,-5.636 0,-1.221 -1.8388,-2.649 -5.6552,-4.394 -4.3858,-2.006 -8.2862,-3.005 -14.3882,-3.686 -9.8343,-1.097 -23.0396,2.208 -23.9931,6.005 -0.8147,3.244 6.6714,6.71 16.539,7.658 6.0513,0.581 7.8409,0.588 13.4788,0.05 z m -41.6363,-7.401 c -0.12,-0.453 -0.216,-0.08 -0.216,0.823 0,0.906 0.093,1.276 0.216,0.823 0.12,-0.452 0.12,-1.194 0,-1.646 z" id="path60"/></g></svg>